<svg xmlns="http://www.w3.org/2000/svg" width="24" height="24" viewBox="0 0 24 24"><defs><style>.a{opacity:0.3;}.b{fill:#eca74c;}</style></defs><g class="a"><path class="b" d="M12,0A12,12,0,1,0,24,12,12,12,0,0,0,12,0Zm0,22.5A10.5,10.5,0,1,1,22.5,12,10.513,10.513,0,0,1,12,22.5Z"/></g><g transform="translate(5.125 5.125)"><path class="b" d="M36.375,29.5H32.25V25.375a1.375,1.375,0,0,0-2.75,0V29.5H25.375a1.375,1.375,0,0,0,0,2.75H29.5v4.125a1.375,1.375,0,0,0,2.75,0V32.25h4.125a1.375,1.375,0,0,0,0-2.75Z" transform="translate(-24 -24)"/></g></svg>