<svg xmlns="http://www.w3.org/2000/svg" width="19.883" height="19.883" viewBox="0 0 19.883 19.883"><defs><style>.a{fill:#f84400;stroke:#f84400;stroke-width:0.5px;}</style></defs><g transform="translate(0.25 0.25)"><g transform="translate(3.535 3.529)"><path class="a" d="M26.238,49.4a6.184,6.184,0,0,0-1.178,7.05l.045.08a6.247,6.247,0,0,0,1.133,1.588,6.165,6.165,0,1,0,0-8.719Zm-.589,6.925a3.2,3.2,0,0,1,1.437-1.937,1.808,1.808,0,0,0,1.133.4,1.852,1.852,0,0,0,1.142-.4,3.2,3.2,0,0,1,1.33,1.624,3.759,3.759,0,0,0-.785,2.213,2.592,2.592,0,0,0,.223,1.08A5.486,5.486,0,0,1,26.657,57.7,5.346,5.346,0,0,1,25.649,56.323Zm2.57-2.124a1.43,1.43,0,0,1-1.339-1.5,1.339,1.339,0,0,1,2.677,0A1.424,1.424,0,0,1,28.219,54.2Zm6.327,3.5a5.578,5.578,0,0,1-3.739,1.624,1.905,1.905,0,0,1-.312-1.1,3.181,3.181,0,0,1,.723-1.945l.054-.062a2.728,2.728,0,0,1,.741-.616,1.818,1.818,0,0,0,1.142.4,1.758,1.758,0,0,0,1.142-.411,3.051,3.051,0,0,1,1.062,1.071A5.525,5.525,0,0,1,34.546,57.7Zm-1.392-2.276a1.424,1.424,0,0,1-1.339-1.5,1.339,1.339,0,0,1,2.677,0A1.424,1.424,0,0,1,33.154,55.421Zm2.508.66a3.5,3.5,0,0,0-.964-.919,2.173,2.173,0,0,0,.384-1.24,1.923,1.923,0,0,0-3.846,0,2.214,2.214,0,0,0,.375,1.24,4.577,4.577,0,0,0-.482.366,3.653,3.653,0,0,0-1.356-1.589,2.214,2.214,0,0,0,.375-1.24,1.928,1.928,0,0,0-3.855,0,2.2,2.2,0,0,0,.384,1.249,3.68,3.68,0,0,0-1.365,1.571,5.575,5.575,0,1,1,10.352.562Z" transform="translate(-24.445 -47.59)"/></g><path class="a" d="M43.137,56.592h-.6a8.79,8.79,0,0,0-8.5-8.5V47.5a.295.295,0,1,0-.589,0v.589a8.79,8.79,0,0,0-8.5,8.5h-.6a.3.3,0,0,0-.294.294.291.291,0,0,0,.294.295h.6a8.807,8.807,0,0,0,8.5,8.513v.589a.294.294,0,1,0,.589,0v-.589a8.807,8.807,0,0,0,8.5-8.513h.6a.291.291,0,0,0,.295-.295A.3.3,0,0,0,43.137,56.592ZM39.559,62.7A8.214,8.214,0,0,1,34.035,65.1v-.866a.294.294,0,1,0-.589,0V65.1a8.2,8.2,0,0,1-7.916-7.916H26.4a.291.291,0,0,0,.295-.295.3.3,0,0,0-.295-.294H25.53a8.214,8.214,0,0,1,7.916-7.916v.875a.295.295,0,0,0,.589,0v-.875a8.2,8.2,0,0,1,7.916,7.916h-.866a.291.291,0,0,0-.294.294.286.286,0,0,0,.294.295h.866A8.2,8.2,0,0,1,39.559,62.7Z" transform="translate(-24.049 -47.195)"/></g></svg>