<svg xmlns="http://www.w3.org/2000/svg" width="18.183" height="21.355" viewBox="0 0 18.183 21.355"><defs><style>.a{fill:#f84400;stroke:#f84400;stroke-width:0.3px;}</style></defs><g transform="translate(0.15 0.177)"><path class="a" d="M113.091,395.108H99.878a.892.892,0,0,1-.891-.891v-.964a.891.891,0,0,0,.566-1.132v-.963a.891.891,0,0,0-.566-1.132v-.964a.891.891,0,0,0-.566-1.132v-.963a.891.891,0,0,0,.566-1.132v-.964a.892.892,0,0,1,.891-.891h6.545a.892.892,0,0,1,.891.891v.741a.325.325,0,1,1-.65,0v-.741a.241.241,0,0,0-.241-.241H99.878a.241.241,0,0,0-.241.241v.964a.241.241,0,0,0,.241.241.325.325,0,1,1,0,.65h-.566a.241.241,0,0,0-.241.241v.963a.241.241,0,0,0,.241.241h.566a.325.325,0,0,1,0,.65.241.241,0,0,0-.241.241v.964a.241.241,0,0,0,.241.241h.566a.325.325,0,0,1,0,.65.241.241,0,0,0-.241.241v.963a.241.241,0,0,0,.241.241.325.325,0,1,1,0,.65h-.566a.241.241,0,0,0-.241.241v.964a.241.241,0,0,0,.241.241h13.213a.325.325,0,1,1,0,.65Z" transform="translate(-95.533 -374.08)"/><path class="a" d="M105.478,369.828a.325.325,0,0,1-.324-.3c-.017-.256-.375-6.3,3-8.9a.325.325,0,0,1,.4.516c-3.1,2.38-2.75,8.278-2.746,8.338a.325.325,0,0,1-.3.345Z" transform="translate(-99.409 -360.561)"/><path class="a" d="M115.171,369.828h-.022a.325.325,0,0,1-.3-.345c0-.059.351-5.958-2.746-8.338a.325.325,0,1,1,.4-.516c3.373,2.593,3.015,8.64,3,8.9A.325.325,0,0,1,115.171,369.828Z" transform="translate(-103.357 -360.561)"/><path class="a" d="M109.147,369.828a.325.325,0,0,1-.325-.325c0-.822-1.167-1.516-2.547-1.516s-2.547.695-2.547,1.516a.325.325,0,1,1-.65,0c0-.822-1.167-1.516-2.547-1.516s-2.547.695-2.547,1.516a.325.325,0,1,1-.65,0c0-.822-1.166-1.516-2.547-1.516s-2.547.695-2.547,1.516a.325.325,0,1,1-.65,0,8.942,8.942,0,0,1,17.883,0A.325.325,0,0,1,109.147,369.828Zm-8.617-2.491a3.531,3.531,0,0,1,2.872,1.2,3.531,3.531,0,0,1,2.872-1.2,3.968,3.968,0,0,1,2.424.739,8.293,8.293,0,0,0-16.338,0,3.968,3.968,0,0,1,2.425-.739,3.53,3.53,0,0,1,2.872,1.2A3.531,3.531,0,0,1,100.531,367.336Z" transform="translate(-91.589 -360.561)"/><path class="a" d="M120.233,399H118.29a.625.625,0,0,1-.624-.624V397.9a.325.325,0,1,1,.65,0v.447h1.891v-1.393H118.29a.625.625,0,0,1-.624-.624V394.89a.625.625,0,0,1,.624-.624h1.943a.625.625,0,0,1,.624.624v.473a.325.325,0,1,1-.65,0v-.447h-1.891v1.392h1.917a.625.625,0,0,1,.624.624v1.445A.625.625,0,0,1,120.233,399Z" transform="translate(-106.643 -380.018)"/><path class="a" d="M121,394.346a.325.325,0,0,1-.325-.325V393.6a.325.325,0,1,1,.65,0v.417A.325.325,0,0,1,121,394.346Z" transform="translate(-108.378 -379.449)"/><path class="a" d="M121,405.275a.325.325,0,0,1-.325-.325v-.417a.325.325,0,1,1,.65,0v.417A.325.325,0,0,1,121,405.275Z" transform="translate(-108.378 -385.758)"/><path class="a" d="M115.5,398.414a4.354,4.354,0,1,1,4.354-4.354A4.358,4.358,0,0,1,115.5,398.414Zm0-8.057a3.7,3.7,0,1,0,3.7,3.7A3.707,3.707,0,0,0,115.5,390.357Z" transform="translate(-102.877 -377.386)"/><path class="a" d="M108.866,389.587h-3.927a.325.325,0,1,1,0-.65h3.927a.325.325,0,1,1,0,.65Z" transform="translate(-99.109 -376.942)"/><path class="a" d="M105.05,394.544h-3.626a.325.325,0,1,1,0-.65h3.626a.325.325,0,1,1,0,.65Z" transform="translate(-97.079 -379.804)"/><path class="a" d="M108.713,399.5H106.7a.325.325,0,0,1,0-.65h2.017a.325.325,0,1,1,0,.65Z" transform="translate(-100.122 -382.666)"/><path class="a" d="M105.434,404.459h-2.671a.325.325,0,0,1,0-.65h2.671a.325.325,0,0,1,0,.65Z" transform="translate(-97.852 -385.527)"/></g></svg>