<svg xmlns="http://www.w3.org/2000/svg" width="20.884" height="22.22" viewBox="0 0 20.884 22.22"><defs><style>.a{fill:#f84400;stroke:#f84400;stroke-width:0.3px;}</style></defs><g transform="translate(0.15 0.156)"><path class="a" d="M55.126,147.383H51.183a.326.326,0,0,1,0-.652h3.944a.326.326,0,0,1,0,.652Z" transform="translate(-41.086 -130.418)"/><path class="a" d="M32.155,145.085a.326.326,0,0,1-.326-.326V144a.326.326,0,0,1,.652,0v.759A.326.326,0,0,1,32.155,145.085Z" transform="translate(-28.703 -128.429)"/><path class="a" d="M32.155,150.64a.326.326,0,0,1-.326-.326v-4.141a.326.326,0,0,1,.652,0v4.141A.326.326,0,0,1,32.155,150.64Z" transform="translate(-28.703 -129.843)"/><path class="a" d="M26.331,146.726H23.269a.39.39,0,0,1-.389-.389v-7.83a.39.39,0,0,1,.389-.389h3.062a.326.326,0,0,1,.326.326v1.478l3.078-1.1a3.534,3.534,0,0,1,2-.112l4,.532a1.5,1.5,0,0,1,1.149,1.837l.009.041,4.34-2.669a2.06,2.06,0,0,1,.692-.272,1.272,1.272,0,0,1,1.2.394,1.287,1.287,0,0,1,.285,1.241,3.08,3.08,0,0,1-.59,1.1,6.33,6.33,0,0,1-.666.657c-.073.065-.146.13-.218.2a6.46,6.46,0,0,1-.62.506l-3.894,2.787a2.916,2.916,0,0,1-1.708.548h-9.05v.79A.326.326,0,0,1,26.331,146.726Zm-2.8-.651h2.474v-.79a.326.326,0,0,1,.326-.326h9.375a2.268,2.268,0,0,0,1.328-.426l3.894-2.787a5.783,5.783,0,0,0,.558-.455c.075-.069.151-.136.226-.2a5.737,5.737,0,0,0,.6-.589,2.426,2.426,0,0,0,.464-.868.641.641,0,0,0-.141-.618.618.618,0,0,0-.589-.193,1.419,1.419,0,0,0-.474.187l-4.308,2.671a.681.681,0,0,1-1.023-.723c.014-.082.135-.923-.614-1.068l-3.993-.531-.033-.006a2.883,2.883,0,0,0-1.647.089l-3.513,1.255a.326.326,0,0,1-.436-.307V138.77H23.532Z" transform="translate(-22.88 -124.813)"/><path class="a" d="M26.317,144.6a1.055,1.055,0,1,1,1.055-1.055A1.056,1.056,0,0,1,26.317,144.6Zm0-1.458a.4.4,0,1,0,.4.4A.4.4,0,0,0,26.317,143.141Z" transform="translate(-24.43 -127.657)"/><path class="a" d="M37.159,109.294a.326.326,0,0,1-.171-.6l3.463-2.125a.326.326,0,0,1,.341.555l-3.463,2.125A.326.326,0,0,1,37.159,109.294Z" transform="translate(-31.96 -104.249)"/><path class="a" d="M60.529,109.294a.325.325,0,0,1-.17-.048L56.9,107.122a.326.326,0,1,1,.341-.555l3.463,2.125a.326.326,0,0,1-.17.6Z" transform="translate(-44.915 -104.25)"/><path class="a" d="M44.1,112.82H33.683a.326.326,0,0,1-.326-.326v-7.427h-1.54a.326.326,0,0,1-.172-.6l7.074-4.393a.326.326,0,0,1,.344,0l2.474,1.537v-.4a.326.326,0,0,1,.326-.326h1.8a.325.325,0,0,1,.326.326v1.92l2.153,1.337a.326.326,0,0,1-.172.6h-1.54v7.427A.326.326,0,0,1,44.1,112.82Zm-10.09-.652h9.764v-7.427a.326.326,0,0,1,.326-.326h.723l-1.336-.83a.326.326,0,0,1-.154-.277v-1.775H42.189v.66a.326.326,0,0,1-.5.277l-2.8-1.739-5.931,3.684h.724a.326.326,0,0,1,.326.326Z" transform="translate(-28.484 -100.023)"/><path class="a" d="M50.72,126.6H47.594a.326.326,0,0,1-.326-.326v-4.747a.326.326,0,0,1,.326-.326H50.72a.326.326,0,0,1,.326.326v4.747A.326.326,0,0,1,50.72,126.6Zm-2.8-.652h2.475v-4.1H47.92Z" transform="translate(-38.75 -113.807)"/></g></svg>