<svg xmlns="http://www.w3.org/2000/svg" width="24" height="24" viewBox="0 0 24 24"><defs><style>.a{fill:#f05a26;}.b{fill:#fff;stroke:#eca74c;stroke-width:0.6px;}.c{fill:#eca74c;}.d{stroke:none;}.e{fill:none;}</style></defs><path class="a" d="M0,24V21c0-3.3,5.4-6,12-6s12,2.7,12,6v3ZM6,6a6,6,0,1,1,6,6A6,6,0,0,1,6,6Z"/><g class="b" transform="translate(12 12)"><circle class="d" cx="6" cy="6" r="6"/><circle class="e" cx="6" cy="6" r="5.7"/></g><g transform="translate(15 15)"><path class="c" d="M29.4,26.4H27.6V24.6a.6.6,0,0,0-1.2,0v1.8H24.6a.6.6,0,0,0,0,1.2h1.8v1.8a.6.6,0,0,0,1.2,0V27.6h1.8a.6.6,0,0,0,0-1.2Z" transform="translate(-24 -24)"/></g></svg>