<svg xmlns="http://www.w3.org/2000/svg" width="18.415" height="18.936" viewBox="0 0 18.415 18.936"><defs><style>.a{fill:#f84400;stroke:#f84400;stroke-width:0.4px;}</style></defs><g transform="translate(0.2 0.2)"><path class="a" d="M50.069,27.4l-.009-.026L50.01,27.3h0l-3.5-3.5h0l-.077-.051-.026-.009-.077-.017H36.494a.272.272,0,0,0-.273.282V41.979a.277.277,0,0,0,.273.282H49.813a.284.284,0,0,0,.282-.282V27.5l-.009-.017Zm-.939-.179H46.586V24.681Zm.4,14.472H36.784V24.28h9.247V27.5a.279.279,0,0,0,.282.282h3.219Z" transform="translate(-36.221 -23.725)"/><path class="a" d="M40.411,25.595V24.476a.76.76,0,0,0-.76-.751h-.444a.762.762,0,0,0-.768.751v1.118l-.026.026a1.42,1.42,0,0,0-.418,1.016V37.992c0,.376.35,2.561,1.153,3v.99a.282.282,0,1,0,.563,0v-.99c.794-.435,1.153-2.621,1.153-3V26.637A1.482,1.482,0,0,0,40.411,25.595Zm-1.861,12.4V30.777H40.3v7.215l-.009.043H38.559Zm0-11.356a.873.873,0,0,1,.256-.615.893.893,0,0,1,.623-.256h0a.875.875,0,0,1,.871.871v3.569H38.55ZM39,24.476a.2.2,0,0,1,.2-.2h.444a.2.2,0,0,1,.2.2v.794a1.385,1.385,0,0,0-.418-.068h0A1.4,1.4,0,0,0,39,25.27ZM39.429,40.5c-.23,0-.64-1.059-.8-1.9h1.6C40.061,39.444,39.651,40.5,39.429,40.5Z" transform="translate(-22.849 -23.725)"/><path class="a" d="M36.824,24.558h4.243a.277.277,0,0,0,.282-.273A.284.284,0,0,0,41.067,24H36.824a.284.284,0,0,0-.282.282A.277.277,0,0,0,36.824,24.558Z" transform="translate(-33.802 -21.629)"/><path class="a" d="M36.9,24.581a.277.277,0,0,0,.273.282h4.815a.284.284,0,0,0,.282-.282.279.279,0,0,0-.282-.282H37.177A.272.272,0,0,0,36.9,24.581Z" transform="translate(-31.073 -19.398)"/><path class="a" d="M36.824,25.159h7.052a.284.284,0,0,0,.282-.282.279.279,0,0,0-.282-.282H36.824a.279.279,0,0,0-.282.282A.284.284,0,0,0,36.824,25.159Z" transform="translate(-33.802 -17.167)"/><path class="a" d="M41.993,24.891H37.177a.282.282,0,0,0,0,.564h4.815a.282.282,0,1,0,0-.564Z" transform="translate(-31.073 -14.936)"/><path class="a" d="M36.824,25.751h5.652a.282.282,0,1,0,0-.564H36.824a.282.282,0,0,0,0,.564Z" transform="translate(-33.802 -12.704)"/><path class="a" d="M41.993,25.483H37.177a.279.279,0,0,0-.273.29.275.275,0,0,0,.273.273h4.815a.283.283,0,0,0,.282-.273A.286.286,0,0,0,41.993,25.483Z" transform="translate(-31.073 -10.473)"/><path class="a" d="M36.824,26.454h1.682a.279.279,0,0,0,.282-.282v-1.7a.277.277,0,0,0-.282-.273H36.824a.283.283,0,0,0-.282.273v1.7A.284.284,0,0,0,36.824,26.454Zm.282-1.691h1.118v1.118H37.106Z" transform="translate(-33.802 -20.145)"/><path class="a" d="M36.824,27.038h1.682a.281.281,0,0,0,.282-.29V25.066a.272.272,0,0,0-.282-.273H36.824a.277.277,0,0,0-.282.273v1.682A.286.286,0,0,0,36.824,27.038Zm.282-1.691h1.118v1.127H37.106Z" transform="translate(-33.802 -15.674)"/><path class="a" d="M38.506,25.385H36.824a.279.279,0,0,0-.282.282v1.682a.284.284,0,0,0,.282.282h1.682a.279.279,0,0,0,.282-.282V25.667A.274.274,0,0,0,38.506,25.385Zm-.282,1.682H37.106V25.949h1.118Z" transform="translate(-33.802 -11.212)"/></g></svg>