<svg xmlns="http://www.w3.org/2000/svg" width="30" height="24" viewBox="0 0 30 24"><defs><style>.a{fill:#f05a26;}.b,.c{fill:#fff;}.c{stroke:#eca74c;stroke-width:0.6px;}.d{fill:#eca74c;}.e{stroke:none;}.f{fill:none;}</style></defs><path class="a" d="M1,0H9a1,1,0,0,1,1,1V24a0,0,0,0,1,0,0H0a0,0,0,0,1,0,0V1A1,1,0,0,1,1,0Z" transform="translate(10)"/><path class="a" d="M3,0H9A0,0,0,0,1,9,0V19a0,0,0,0,1,0,0H0a0,0,0,0,1,0,0V3A3,3,0,0,1,3,0Z" transform="translate(0 5)"/><path class="a" d="M0,0H6A3,3,0,0,1,9,3V14a0,0,0,0,1,0,0H0a0,0,0,0,1,0,0V0A0,0,0,0,1,0,0Z" transform="translate(21 10)"/><path class="b" d="M1,0H7A1,1,0,0,1,8,1V9A0,0,0,0,1,8,9H0A0,0,0,0,1,0,9V1A1,1,0,0,1,1,0Z" transform="translate(11 14)"/><g class="c" transform="translate(18)"><circle class="e" cx="6" cy="6" r="6"/><circle class="f" cx="6" cy="6" r="5.7"/></g><g transform="translate(21 3)"><path class="d" d="M29.4,26.4H27.6V24.6a.6.6,0,0,0-1.2,0v1.8H24.6a.6.6,0,0,0,0,1.2h1.8v1.8a.6.6,0,0,0,1.2,0V27.6h1.8a.6.6,0,0,0,0-1.2Z" transform="translate(-24 -24)"/></g></svg>