<svg xmlns="http://www.w3.org/2000/svg" width="25" height="26" viewBox="0 0 25 26"><defs><style>.a{fill:#f05a26;fill-rule:evenodd;}.b{fill:#fff;stroke:#eca74c;stroke-width:0.5px;}.c,.e{fill:none;}.c{stroke:#f05a26;}.d{stroke:none;}</style></defs><path class="a" d="M21.5,29H7a2.049,2.049,0,0,1-2-2.088V7.088A2.05,2.05,0,0,1,7,5H26a2.043,2.043,0,0,1,2,2.081V21.7L22,29ZM6,11.261V26.914a1.02,1.02,0,0,0,1.007,1.042H21V22.745a2.04,2.04,0,0,1,2-2.093h4V11.261Zm0-1.043V7.086A1.016,1.016,0,0,1,7,6.043H26a1.025,1.025,0,0,1,1,1.051v3.123ZM22,27.435V22.748A1.029,1.029,0,0,1,23,21.7h3.7L22,27.435Zm-9-8.87v1.043h7V18.565ZM8,17.522v3.13h3v-3.13Zm1,1.043v1.043h1V18.565Zm4-4.174v1.043H25V14.391ZM8,13.348v3.13h3v-3.13Zm1,1.043v1.043h1V14.391Zm4,8.348v1.043h6V22.739ZM8,21.7v3.13h3V21.7Zm1,1.043v1.043h1V22.739Z" transform="translate(-5 -5)"/><g class="b" transform="translate(11 12)"><circle class="d" cx="7" cy="7" r="7"/><circle class="e" cx="7" cy="7" r="6.75"/></g><line class="c" y2="8" transform="translate(18 15)"/><line class="c" y2="8" transform="translate(22 19) rotate(90)"/></svg>