<svg xmlns="http://www.w3.org/2000/svg" width="22" height="26.799" viewBox="0 0 22 26.799"><defs><style>.a{fill:#f05a26;}.b{fill:#fff;stroke:#eca74c;stroke-width:0.6px;}.c{fill:#eca74c;}.d{stroke:none;}.e{fill:none;}</style></defs><g transform="translate(-8 -5.201)"><path class="a" d="M15,26.35s-.44-.06-.85-.12S13.41,26.07,13,26V24.65c.32.06.5.12.68.16a4.54,4.54,0,0,0,.53.12,5.4,5.4,0,0,0,.58.08H15V23.59c.16,0-.14-.1-.43-.17a2.45,2.45,0,0,1-.78-.31,1.56,1.56,0,0,1-.57-.54,1.59,1.59,0,0,1-.22-.89,1.79,1.79,0,0,1,.17-.78,1.54,1.54,0,0,1,.49-.59,2.35,2.35,0,0,1,.77-.41c.3-.1.64-.17.57-.21V19h2v.67a9.25,9.25,0,0,1,1,.11A5.11,5.11,0,0,1,19,20v1.32A7.74,7.74,0,0,0,17,21v1.48a6.72,6.72,0,0,1,.87.18,2.6,2.6,0,0,1,.76.32,1.61,1.61,0,0,1,.55.55,1.54,1.54,0,0,1,.22.87,1.59,1.59,0,0,1-.63,1.34,3.34,3.34,0,0,1-1.77.61V27H15Zm-.91-4.73a.5.5,0,0,0,.23.43,1.93,1.93,0,0,0,.68.22V21a1.41,1.41,0,0,0-.71.22A.51.51,0,0,0,14.09,21.62Zm3.78,2.77a.49.49,0,0,0-.21-.43,1.82,1.82,0,0,0-.66-.21V25c.58-.07.87-.27.87-.61Z"/><path class="a" d="M19,14a3,3,0,1,1-4.91-2.31Q14,12.82,14,14a2,2,0,0,0,4,0,10.56,10.56,0,0,1,.19-2A3,3,0,0,1,19,14Z" transform="translate(0 -2)"/><path class="a" d="M23,32H9a1,1,0,0,1-1-1V13a1,1,0,0,1,.2-.6l3-4A1,1,0,0,1,12,8h8a1,1,0,0,1,.8.4l3,4a1,1,0,0,1,.2.6V31A1,1,0,0,1,23,32ZM10,30H22V13.33L19.5,10h-7L10,13.33Z"/><path class="a" d="M15.44,6.6a.44.44,0,0,1-.44-.44C15,2.705,16.355,0,18.079,0a.44.44,0,1,1,0,.88c-1.043,0-2.2,2.169-2.2,5.279A.44.44,0,0,1,15.44,6.6Z" transform="translate(1.081 5.201)"/><path class="a" d="M15.44,7.719a.44.44,0,0,1-.44-.44C15,4.367,16.975,2,19.4,2a.44.44,0,0,1,0,.88c-1.94,0-3.519,1.975-3.519,4.4A.44.44,0,0,1,15.44,7.719Z" transform="translate(1.081 4.081)"/><path class="a" d="M22.76,1.76a.44.44,0,0,1-.44-.44c0-.18-.343-.44-.88-.44a.44.44,0,0,1,0-.88c.985,0,1.76.581,1.76,1.32A.44.44,0,0,1,22.76,1.76Z" transform="translate(-2.28 5.201)"/></g><g class="b" transform="translate(10 14.799)"><circle class="d" cx="6" cy="6" r="6"/><circle class="e" cx="6" cy="6" r="5.7"/></g><g transform="translate(13 17.799)"><path class="c" d="M29.4,26.4H27.6V24.6a.6.6,0,0,0-1.2,0v1.8H24.6a.6.6,0,0,0,0,1.2h1.8v1.8a.6.6,0,0,0,1.2,0V27.6h1.8a.6.6,0,0,0,0-1.2Z" transform="translate(-24 -24)"/></g></svg>