<svg xmlns="http://www.w3.org/2000/svg" width="84.865" height="91.882" viewBox="0 0 84.865 91.882"><defs><style>.a{fill:#f84400;}</style></defs><g transform="translate(0 0)"><path class="a" d="M84.958,14.7h0C65.419,12.86,54.367,4.34,54.367,4.243a7.717,7.717,0,0,0-9.769,0c-.1.1-11.151,8.617-30.69,10.457A7.527,7.527,0,0,0,7,22.154C7,76.373,44.795,93.123,46.373,93.8a8.345,8.345,0,0,0,6.118,0c1.579-.678,39.373-17.428,39.373-71.646A7.527,7.527,0,0,0,84.958,14.7ZM49.334,87.217a52.665,52.665,0,0,1-14.8-10.747l.987-8.423a9.314,9.314,0,0,1,9.276-8.133h9.177a9.242,9.242,0,0,1,9.276,8.133l.987,8.423A49.582,49.582,0,0,1,49.334,87.217Zm.1-36.017a8.425,8.425,0,1,1,8.585-8.423A8.512,8.512,0,0,1,49.433,51.2ZM70.846,68.725l-.2-1.549A16.579,16.579,0,0,0,60.583,54.008,15.832,15.832,0,1,0,33.446,42.777a15.415,15.415,0,0,0,4.835,11.231A16.437,16.437,0,0,0,28.216,67.175l-.2,1.549C20.815,58.558,14.6,43.551,14.7,22.058c22.3-2.13,34.538-12.1,34.933-12.1.493.387,12.828,10.069,34.637,12.1l.2.194C84.464,43.648,78.149,58.655,70.846,68.725Z" transform="translate(-7 -2.5)"/></g></svg>