<svg xmlns="http://www.w3.org/2000/svg" width="29.832" height="32.298" viewBox="0 0 29.832 32.298"><defs><style>.a{fill:#f84400;}</style></defs><g transform="translate(-323.084 -1173.851)"><g transform="translate(323.084 1173.851)"><path class="a" d="M34.4,6.788h0C27.536,6.142,23.65,3.147,23.65,3.113a2.713,2.713,0,0,0-3.434,0A21.978,21.978,0,0,1,9.428,6.788,2.646,2.646,0,0,0,7,9.409C7,28.468,20.286,34.356,20.841,34.594a2.934,2.934,0,0,0,2.151,0c.555-.238,13.841-6.126,13.841-25.185A2.646,2.646,0,0,0,34.4,6.788ZM21.881,32.28a18.513,18.513,0,0,1-5.2-3.778l.347-2.961a3.274,3.274,0,0,1,3.261-2.859h3.226a3.249,3.249,0,0,1,3.261,2.859l.347,2.961A17.429,17.429,0,0,1,21.881,32.28Zm.035-12.661a2.962,2.962,0,1,1,3.018-2.961A2.992,2.992,0,0,1,21.916,19.619Zm7.527,6.16-.069-.545a5.828,5.828,0,0,0-3.538-4.629A5.565,5.565,0,1,0,16.3,16.658,5.419,5.419,0,0,0,18,20.606a5.778,5.778,0,0,0-3.538,4.629l-.069.545c-2.532-3.574-4.718-8.849-4.683-16.4a25.69,25.69,0,0,0,12.28-4.254c.173.136,4.51,3.54,12.176,4.254l.069.068C34.23,16.965,32.01,22.24,29.443,25.779Z" transform="translate(-7 -2.5)"/></g></g></svg>