<svg width="24" height="24" viewBox="0 0 24 24" fill="none" xmlns="http://www.w3.org/2000/svg">
<path d="M11.7743 23.9995C11.6699 23.9995 11.5651 23.9795 11.465 23.9374C11.4594 23.9353 11.4537 23.9325 11.4481 23.9312C5.09125 21.4409 2 18.3579 2 14.5048V2.69312C2 2.45007 2.10929 2.21982 2.29779 2.0661C2.4861 1.91241 2.73328 1.85146 2.9718 1.90056C3.98557 2.10843 5.34338 2.12084 6.69859 1.93103C8.95314 1.61444 10.571 0.860632 11.1842 0.249077C11.42 0.00584178 11.7204 -0.0592434 12.0861 0.0538118C12.2005 0.101029 12.2996 0.172704 12.379 0.261492C13.0022 0.870977 14.6131 1.6167 16.8526 1.93103C18.207 2.12121 19.5662 2.10898 20.579 1.90055C20.8164 1.85183 21.0649 1.9124 21.2532 2.06609C21.4415 2.21978 21.551 2.44985 21.551 2.69311V14.5043C21.551 18.3594 18.4569 21.4438 12.0943 23.9345C12.0918 23.9357 12.0892 23.9366 12.0867 23.9377C12.0247 23.9641 11.9603 23.9808 11.8956 23.9908C11.855 23.9966 11.8147 24 11.7743 24C11.6699 24 11.8147 24 11.7743 24L11.7743 23.9995ZM3.61779 3.62921V14.5037C3.61779 17.5657 6.28679 20.1237 11.7752 22.3188C17.2638 20.1232 19.9327 17.5656 19.9327 14.5037V3.62921C18.9324 3.72703 17.7832 3.69467 16.6275 3.5327C14.6558 3.2558 12.8809 2.63273 11.7756 1.85171C10.6696 2.63278 8.89515 3.2556 6.92367 3.53232C5.76789 3.69504 4.61923 3.7274 3.61807 3.6292L3.61779 3.62921Z" fill="#151821"/>
<path d="M13.8936 7.64364C13.8936 7.77905 13.8839 7.91204 13.867 8.04503C13.8767 7.97974 13.8839 7.91688 13.8936 7.85159C13.8573 8.12241 13.7848 8.38354 13.6784 8.6326L13.7509 8.45851C13.676 8.63019 13.5889 8.7922 13.4874 8.94938C13.4608 8.98807 13.4317 9.02676 13.4051 9.06545C13.3495 9.14525 13.4608 8.99533 13.4608 8.99533C13.4608 9.00742 13.4196 9.04611 13.41 9.05578C13.3495 9.12832 13.2867 9.19845 13.219 9.26615C13.1561 9.32902 13.0908 9.38947 13.0207 9.4475C13.0013 9.46443 12.9796 9.48135 12.9602 9.49828C12.8974 9.55147 13.1005 9.39672 13.0328 9.44266C12.9941 9.46926 12.9554 9.49828 12.9167 9.52488C12.7571 9.63127 12.5903 9.72316 12.4138 9.79811C12.4718 9.77393 12.5298 9.74975 12.5879 9.72558C12.3364 9.83197 12.0752 9.90209 11.8068 9.94078C11.8721 9.93111 11.935 9.92385 12.0003 9.91418C11.7319 9.94803 11.4635 9.94803 11.1951 9.91418C11.2604 9.92385 11.3232 9.93111 11.3885 9.94078C11.1177 9.90451 10.8566 9.83197 10.6075 9.72558C10.6655 9.74976 10.7236 9.77394 10.7816 9.79811C10.6099 9.72316 10.4479 9.63611 10.2907 9.53455C10.252 9.50795 10.2133 9.47894 10.1746 9.45234C10.0949 9.39672 10.2448 9.50795 10.2448 9.50795C10.2327 9.50795 10.194 9.46685 10.1843 9.45717C10.1118 9.39672 10.0417 9.33385 9.97395 9.26615C9.91108 9.20328 9.85063 9.138 9.7926 9.06787C9.77567 9.04853 9.75874 9.02677 9.74182 9.00742C9.68862 8.94455 9.84338 9.14767 9.79743 9.07996C9.77084 9.04127 9.74182 9.00258 9.71522 8.9639C9.60883 8.80431 9.51694 8.63746 9.44198 8.46095L9.51452 8.63505C9.40813 8.38357 9.33801 8.12241 9.29932 7.85403C9.30899 7.91932 9.31624 7.98218 9.32592 8.04747C9.29206 7.77907 9.29206 7.51065 9.32592 7.24226C9.31624 7.30755 9.30899 7.37042 9.29932 7.43571C9.33559 7.16489 9.40813 6.90375 9.51452 6.65469L9.44198 6.82879C9.51694 6.65711 9.60399 6.4951 9.70555 6.33791C9.73214 6.29922 9.76116 6.26053 9.78776 6.22184C9.84337 6.14205 9.73215 6.29196 9.73215 6.29196C9.73215 6.27987 9.77325 6.24119 9.78292 6.23151C9.84337 6.15897 9.90624 6.08885 9.97395 6.02115C10.0368 5.95828 10.1021 5.89783 10.1722 5.83979C10.1916 5.82287 10.2133 5.80594 10.2327 5.78902C10.2955 5.73582 10.0924 5.89057 10.1601 5.84463C10.1988 5.81803 10.2375 5.78902 10.2762 5.76242C10.4358 5.65603 10.6026 5.56414 10.7791 5.48918C10.7211 5.51336 10.6631 5.53754 10.6051 5.56172C10.8565 5.45533 11.1177 5.3852 11.3861 5.34651C11.3208 5.35619 11.2579 5.36344 11.1926 5.37311C11.461 5.33926 11.7294 5.33926 11.9978 5.37311C11.9325 5.36344 11.8697 5.35619 11.8044 5.34651C12.0752 5.38278 12.3363 5.45532 12.5854 5.56172C12.5274 5.53754 12.4693 5.51336 12.4113 5.48918C12.583 5.56414 12.745 5.65119 12.9022 5.75274C12.9409 5.77934 12.9796 5.80836 13.0183 5.83496C13.098 5.89057 12.9481 5.77934 12.9481 5.77934C12.9602 5.77934 12.9989 5.82045 13.0086 5.83012C13.0811 5.89057 13.1513 5.95344 13.219 6.02114C13.2818 6.08401 13.3423 6.14929 13.4003 6.21942C13.4172 6.23876 13.4342 6.26053 13.4511 6.27987C13.5043 6.34274 13.3495 6.13963 13.3955 6.20733C13.4221 6.24602 13.4511 6.28471 13.4777 6.3234C13.5841 6.48299 13.676 6.64983 13.7509 6.82635L13.6784 6.65225C13.7848 6.90372 13.8549 7.16488 13.8936 7.43327C13.8839 7.36798 13.8767 7.30511 13.867 7.23982C13.8839 7.37523 13.8936 7.51064 13.8936 7.64363C13.896 8.02326 14.2249 8.38596 14.619 8.36903C15.0107 8.3521 15.3468 8.04985 15.3444 7.64363C15.3395 6.89405 15.1171 6.1251 14.677 5.51334C14.2079 4.86289 13.5913 4.38656 12.8393 4.10849C11.4248 3.58379 9.70074 4.04804 8.74317 5.21595C8.22572 5.84704 7.92346 6.57729 7.85816 7.39218C7.79529 8.14419 7.99357 8.9349 8.38286 9.57809C8.75765 10.1971 9.32345 10.7291 9.98602 11.0289C10.7477 11.3722 11.5626 11.4738 12.3847 11.3094C13.8331 11.0192 15.0566 9.76666 15.2839 8.30376C15.3177 8.08372 15.3443 7.8661 15.3468 7.64362C15.3492 7.264 15.0107 6.90129 14.6214 6.91823C14.2248 6.93757 13.896 7.23741 13.8935 7.64362L13.8936 7.64364Z" fill="#151821"/>
<path d="M16 18H7V17C7 15.1144 7 14.1716 7.58579 13.5858C8.17157 13 9.11438 13 11 13H12C13.8856 13 14.8284 13 15.4142 13.5858C16 14.1716 16 15.1144 16 17V18Z" stroke="#151821" stroke-width="1.3"/>
</svg>
