<svg xmlns="http://www.w3.org/2000/svg" width="14.275" height="16" viewBox="0 0 14.275 16"><defs><style>.a{fill:#666;}</style></defs><path class="a" d="M27.447,21.321a1.395,1.395,0,0,0-.85-.8A4.024,4.024,0,0,1,25,18.629c0-.005-.006-.008-.009-.013l-.873-2.207a5.5,5.5,0,0,0-2.978-3.033,5.563,5.563,0,0,0-2.79-.439l-.015-.039a1.507,1.507,0,0,0-.814-.832,1.568,1.568,0,0,0-1.179-.031,1.517,1.517,0,0,0-.854.792,1.454,1.454,0,0,0-.032,1.148l.013.032a5.383,5.383,0,0,0-1.859,6.326l.877,2.23s0,0,0,0a3.987,3.987,0,0,1,.117,2.409,1.335,1.335,0,0,0-.114,1.2l0,.01a1,1,0,0,0,1.274.493l11.113-4.129a.943.943,0,0,0,.564-1.225Zm-12.312-1.64a.266.266,0,0,1-.044,0,.231.231,0,0,1-.228-.183,4.452,4.452,0,0,1-.084-.786.229.229,0,0,1,.228-.229h0a.229.229,0,0,1,.232.222,3.97,3.97,0,0,0,.076.708A.227.227,0,0,1,15.134,19.681Zm1.91-4.426a4.259,4.259,0,0,0-.828.75A4.162,4.162,0,0,0,15.38,17.6a.231.231,0,0,1-.224.168.237.237,0,0,1-.059-.007.226.226,0,0,1-.165-.276,4.608,4.608,0,0,1,.927-1.764,4.681,4.681,0,0,1,.918-.83.234.234,0,0,1,.323.054A.222.222,0,0,1,17.044,15.255Z" transform="translate(-13.235 -11.935)"/><path class="a" d="M25.079,32.465l-.654.251-4.187,1.61-.654.251a2.78,2.78,0,0,0,1.34,1.247,2.833,2.833,0,0,0,2.165.051l.258-.1a2.835,2.835,0,0,0,1.573-1.488A2.786,2.786,0,0,0,25.079,32.465Z" transform="translate(-16.123 -20.065)"/></svg>