<svg xmlns="http://www.w3.org/2000/svg" xmlns:xlink="http://www.w3.org/1999/xlink" width="74.786" height="119.744" viewBox="0 0 74.786 119.744"><defs><style>.a{fill:#fff;stroke:#fff;}.b{filter:url(#ac);}.c{filter:url(#aa);}.d{filter:url(#y);}.e{filter:url(#w);}.f{filter:url(#u);}.g{filter:url(#s);}.h{filter:url(#q);}.i{filter:url(#o);}.j{filter:url(#m);}.k{filter:url(#k);}.l{filter:url(#i);}.m{filter:url(#g);}.n{filter:url(#e);}.o{filter:url(#c);}.p{filter:url(#a);}</style><filter id="a" x="0" y="0" width="74.786" height="119.744" filterUnits="userSpaceOnUse"><feOffset dx="2" dy="2" input="SourceAlpha"/><feGaussianBlur stdDeviation="3" result="b"/><feFlood flood-opacity="0.502"/><feComposite operator="in" in2="b"/><feComposite in="SourceGraphic"/></filter><filter id="c" x="4.391" y="9.253" width="66.005" height="96.018" filterUnits="userSpaceOnUse"><feOffset dx="2" dy="2" input="SourceAlpha"/><feGaussianBlur stdDeviation="3" result="d"/><feFlood flood-opacity="0.502"/><feComposite operator="in" in2="d"/><feComposite in="SourceGraphic"/></filter><filter id="e" x="23.014" y="87.545" width="28.758" height="28.759" filterUnits="userSpaceOnUse"><feOffset dx="2" dy="2" input="SourceAlpha"/><feGaussianBlur stdDeviation="3" result="f"/><feFlood flood-opacity="0.502"/><feComposite operator="in" in2="f"/><feComposite in="SourceGraphic"/></filter><filter id="g" x="18.092" y="3.323" width="38.604" height="24.013" filterUnits="userSpaceOnUse"><feOffset dx="2" dy="2" input="SourceAlpha"/><feGaussianBlur stdDeviation="3" result="h"/><feFlood flood-opacity="0.502"/><feComposite operator="in" in2="h"/><feComposite in="SourceGraphic"/></filter><filter id="i" x="10.756" y="40.825" width="53.275" height="42.493" filterUnits="userSpaceOnUse"><feOffset dx="2" dy="2" input="SourceAlpha"/><feGaussianBlur stdDeviation="3" result="j"/><feFlood flood-opacity="0.502"/><feComposite operator="in" in2="j"/><feComposite in="SourceGraphic"/></filter><filter id="k" x="10.756" y="44.273" width="25.477" height="35.597" filterUnits="userSpaceOnUse"><feOffset dx="2" dy="2" input="SourceAlpha"/><feGaussianBlur stdDeviation="3" result="l"/><feFlood flood-opacity="0.502"/><feComposite operator="in" in2="l"/><feComposite in="SourceGraphic"/></filter><filter id="m" x="14.292" y="37.633" width="23.881" height="23.881" filterUnits="userSpaceOnUse"><feOffset dx="2" dy="2" input="SourceAlpha"/><feGaussianBlur stdDeviation="3" result="n"/><feFlood flood-opacity="0.502"/><feComposite operator="in" in2="n"/><feComposite in="SourceGraphic"/></filter><filter id="o" x="20.11" y="36.426" width="34.567" height="25.088" filterUnits="userSpaceOnUse"><feOffset dx="2" dy="2" input="SourceAlpha"/><feGaussianBlur stdDeviation="3" result="p"/><feFlood flood-opacity="0.502"/><feComposite operator="in" in2="p"/><feComposite in="SourceGraphic"/></filter><filter id="q" x="36.094" y="43.235" width="25.691" height="23.536" filterUnits="userSpaceOnUse"><feOffset dx="2" dy="2" input="SourceAlpha"/><feGaussianBlur stdDeviation="3" result="r"/><feFlood flood-opacity="0.502"/><feComposite operator="in" in2="r"/><feComposite in="SourceGraphic"/></filter><filter id="s" x="18.86" y="43.235" width="37.065" height="37.067" filterUnits="userSpaceOnUse"><feOffset dx="2" dy="2" input="SourceAlpha"/><feGaussianBlur stdDeviation="3" result="t"/><feFlood flood-opacity="0.502"/><feComposite operator="in" in2="t"/><feComposite in="SourceGraphic"/></filter><filter id="u" x="21.702" y="46.079" width="31.381" height="31.378" filterUnits="userSpaceOnUse"><feOffset dx="2" dy="2" input="SourceAlpha"/><feGaussianBlur stdDeviation="3" result="v"/><feFlood flood-opacity="0.502"/><feComposite operator="in" in2="v"/><feComposite in="SourceGraphic"/></filter><filter id="w" x="38.271" y="12.994" width="28.087" height="28.592" filterUnits="userSpaceOnUse"><feOffset dx="2" dy="2" input="SourceAlpha"/><feGaussianBlur stdDeviation="3" result="x"/><feFlood flood-opacity="0.502"/><feComposite operator="in" in2="x"/><feComposite in="SourceGraphic"/></filter><filter id="y" x="8.429" y="72.729" width="28.086" height="28.592" filterUnits="userSpaceOnUse"><feOffset dx="2" dy="2" input="SourceAlpha"/><feGaussianBlur stdDeviation="3" result="z"/><feFlood flood-opacity="0.502"/><feComposite operator="in" in2="z"/><feComposite in="SourceGraphic"/></filter><filter id="aa" x="38.271" y="72.729" width="28.087" height="28.592" filterUnits="userSpaceOnUse"><feOffset dx="2" dy="2" input="SourceAlpha"/><feGaussianBlur stdDeviation="3" result="ab"/><feFlood flood-opacity="0.502"/><feComposite operator="in" in2="ab"/><feComposite in="SourceGraphic"/></filter><filter id="ac" x="8.429" y="12.994" width="28.086" height="28.592" filterUnits="userSpaceOnUse"><feOffset dx="2" dy="2" input="SourceAlpha"/><feGaussianBlur stdDeviation="3" result="ad"/><feFlood flood-opacity="0.502"/><feComposite operator="in" in2="ad"/><feComposite in="SourceGraphic"/></filter></defs><g transform="translate(7.5 7.5)"><g class="p" transform="matrix(1, 0, 0, 1, -7.5, -7.5)"><path class="a" d="M323.946,191.984h-41.61a7.1,7.1,0,0,1-7.089-7.089V98.329a7.1,7.1,0,0,1,7.089-7.089h41.61a7.1,7.1,0,0,1,7.087,7.089V184.9A7.1,7.1,0,0,1,323.946,191.984Zm-41.61-99.052a5.4,5.4,0,0,0-5.4,5.4V184.9a5.4,5.4,0,0,0,5.4,5.4h41.61a5.4,5.4,0,0,0,5.394-5.4V98.329a5.4,5.4,0,0,0-5.394-5.4Z" transform="translate(-267.75 -83.74)"/></g><g transform="translate(4.391 9.253)"><g class="o" transform="matrix(1, 0, 0, 1, -11.89, -16.75)"><path class="a" d="M321.461,173.725H281.226a3.387,3.387,0,0,1-3.385-3.385V100.092a3.389,3.389,0,0,1,3.385-3.385h40.234a3.389,3.389,0,0,1,3.385,3.385v70.247A3.388,3.388,0,0,1,321.461,173.725ZM281.226,98.4a1.693,1.693,0,0,0-1.693,1.693v70.247a1.693,1.693,0,0,0,1.693,1.693h40.234a1.693,1.693,0,0,0,1.693-1.693V100.092a1.693,1.693,0,0,0-1.693-1.693Z" transform="translate(-265.95 -79.95)"/></g></g><g transform="translate(23.014 87.545)"><g class="n" transform="matrix(1, 0, 0, 1, -30.51, -95.05)"><path class="a" d="M293.724,152.722a4.88,4.88,0,1,1,4.878-4.88A4.886,4.886,0,0,1,293.724,152.722Zm0-8.067a3.187,3.187,0,1,0,3.185,3.187A3.19,3.19,0,0,0,293.724,144.656Z" transform="translate(-258.33 -47.92)"/></g></g><g transform="translate(18.092 3.323)"><g class="m" transform="matrix(1, 0, 0, 1, -25.59, -10.82)"><path class="a" d="M303.529,98.216H287.945a2.011,2.011,0,0,1-2.009-2.009v-1a2.01,2.01,0,0,1,2.009-2.009h15.584a2.012,2.012,0,0,1,2.011,2.009v1A2.013,2.013,0,0,1,303.529,98.216ZM287.945,94.9a.317.317,0,0,0-.316.316v1a.317.317,0,0,0,.316.317h15.584a.318.318,0,0,0,.318-.317v-1a.317.317,0,0,0-.318-.316Z" transform="translate(-260.34 -82.38)"/></g></g><g transform="translate(10.756 40.825)"><g class="l" transform="matrix(1, 0, 0, 1, -18.26, -48.33)"><path class="a" d="M312.74,138.853h-28a3.135,3.135,0,0,1-3.135-3.128V118.49a3.135,3.135,0,0,1,3.135-3.13h28a3.136,3.136,0,0,1,3.136,3.13v17.236A3.135,3.135,0,0,1,312.74,138.853Zm-28-21.8a1.441,1.441,0,0,0-1.442,1.437v17.236a1.441,1.441,0,0,0,1.442,1.435h28a1.442,1.442,0,0,0,1.444-1.435V118.49a1.443,1.443,0,0,0-1.444-1.437Z" transform="translate(-263.35 -67.03)"/></g></g><g transform="translate(10.756 44.273)"><g class="k" transform="matrix(1, 0, 0, 1, -18.26, -51.77)"><path class="a" d="M284.715,133.994h-2.266a.844.844,0,0,1-.846-.846v-14.9a.844.844,0,0,1,.846-.846h2.266a3.367,3.367,0,0,1,3.365,3.361v9.866A3.371,3.371,0,0,1,284.715,133.994Zm-1.42-1.693h1.42a1.677,1.677,0,0,0,1.672-1.677v-9.866a1.673,1.673,0,0,0-1.672-1.669h-1.42Z" transform="translate(-263.35 -65.62)"/></g></g><g transform="translate(14.292 37.633)"><g class="j" transform="matrix(1, 0, 0, 1, -21.79, -45.13)"><path class="a" d="M287.726,118.355h-3.189a.847.847,0,0,1-.846-.846v-1.594a2.441,2.441,0,1,1,4.881,0v1.594A.846.846,0,0,1,287.726,118.355Zm-2.343-1.693h1.5v-.748a.748.748,0,1,0-1.5,0Z" transform="translate(-261.9 -68.34)"/></g></g><g transform="translate(20.11 36.426)"><g class="i" transform="matrix(1, 0, 0, 1, -27.61, -43.93)"><path class="a" d="M301.848,118.849H287.974a.847.847,0,0,1-.846-.846,5.248,5.248,0,0,1,5.242-5.242h5.085a5.247,5.247,0,0,1,5.24,5.242A.846.846,0,0,1,301.848,118.849Zm-12.926-1.693H300.9a3.555,3.555,0,0,0-3.446-2.7H292.37A3.556,3.556,0,0,0,288.922,117.157Z" transform="translate(-259.52 -68.83)"/></g></g><g transform="translate(36.094 43.235)"><g class="h" transform="matrix(1, 0, 0, 1, -43.59, -50.74)"><path class="a" d="M301,121.32h-2.155a2.268,2.268,0,1,1,0-4.536H301a2.268,2.268,0,0,1,0,4.536Zm-2.155-2.844a.575.575,0,1,0,0,1.151H301a.575.575,0,0,0,0-1.151Z" transform="translate(-252.98 -66.05)"/></g></g><g transform="translate(18.86 43.235)"><g class="g" transform="matrix(1, 0, 0, 1, -26.36, -50.74)"><path class="a" d="M295.423,134.851a9.033,9.033,0,1,1,9.032-9.033A9.043,9.043,0,0,1,295.423,134.851Zm0-16.374a7.341,7.341,0,1,0,7.339,7.341A7.348,7.348,0,0,0,295.423,118.477Z" transform="translate(-260.03 -66.05)"/></g></g><g transform="translate(21.702 46.079)"><g class="f" transform="matrix(1, 0, 0, 1, -29.2, -53.58)"><path class="a" d="M294.26,130.842a6.189,6.189,0,1,1,6.19-6.188A6.2,6.2,0,0,1,294.26,130.842Zm0-10.685a4.5,4.5,0,1,0,4.5,4.5A4.5,4.5,0,0,0,294.26,120.157Z" transform="translate(-258.87 -64.89)"/></g></g><g transform="translate(8.429 12.994)"><g transform="translate(29.842)"><g class="e" transform="matrix(1, 0, 0, 1, -45.77, -20.49)"><path class="a" d="M306.1,108.509a.846.846,0,0,1-.846-.846v-6.136a.919.919,0,0,0-.917-.917H298.7a.846.846,0,1,1,0-1.693h5.631a2.613,2.613,0,0,1,2.61,2.61v6.136A.847.847,0,0,1,306.1,108.509Z" transform="translate(-252.09 -78.42)"/></g></g><g transform="translate(0 59.735)"><g class="d" transform="matrix(1, 0, 0, 1, -15.93, -80.23)"><path class="a" d="M288.466,143.8h-5.63a2.612,2.612,0,0,1-2.61-2.61v-6.136a.846.846,0,1,1,1.693,0v6.136a.918.918,0,0,0,.917.917h5.63a.846.846,0,1,1,0,1.693Z" transform="translate(-264.3 -53.98)"/></g></g><g transform="translate(29.842 59.735)"><g class="c" transform="matrix(1, 0, 0, 1, -45.77, -80.23)"><path class="a" d="M304.336,143.8H298.7a.846.846,0,1,1,0-1.693h5.631a.919.919,0,0,0,.917-.917v-6.136a.846.846,0,1,1,1.693,0v6.136A2.613,2.613,0,0,1,304.336,143.8Z" transform="translate(-252.09 -53.98)"/></g></g><g class="b" transform="matrix(1, 0, 0, 1, -15.93, -20.49)"><path class="a" d="M281.073,108.509a.846.846,0,0,1-.846-.846v-6.136a2.612,2.612,0,0,1,2.61-2.61h5.63a.846.846,0,1,1,0,1.693h-5.63a.918.918,0,0,0-.917.917v6.136A.847.847,0,0,1,281.073,108.509Z" transform="translate(-264.3 -78.42)"/></g></g></g></svg>