<svg width="30" height="30" viewBox="0 0 30 30" fill="none" xmlns="http://www.w3.org/2000/svg">
<path d="M0 15C0 6.71573 6.71573 0 15 0C23.2843 0 30 6.71573 30 15C30 23.2843 23.2843 30 15 30C6.71573 30 0 23.2843 0 15Z" fill="#EF5926"/>
<g clip-path="url(#clip0_867_25810)">
<path d="M22.3333 19.6667C22.3333 20.0203 22.1928 20.3594 21.9428 20.6095C21.6927 20.8595 21.3536 21 21 21H8.99996C8.64634 21 8.3072 20.8595 8.05715 20.6095C7.8071 20.3594 7.66663 20.0203 7.66663 19.6667V12.3333C7.66663 11.9797 7.8071 11.6406 8.05715 11.3905C8.3072 11.1405 8.64634 11 8.99996 11H11.6666L13 9H17L18.3333 11H21C21.3536 11 21.6927 11.1405 21.9428 11.3905C22.1928 11.6406 22.3333 11.9797 22.3333 12.3333V19.6667Z" stroke="white" stroke-width="2" stroke-linecap="round" stroke-linejoin="round"/>
<path d="M15 18.3333C16.4727 18.3333 17.6666 17.1394 17.6666 15.6667C17.6666 14.1939 16.4727 13 15 13C13.5272 13 12.3333 14.1939 12.3333 15.6667C12.3333 17.1394 13.5272 18.3333 15 18.3333Z" stroke="white" stroke-width="2" stroke-linecap="round" stroke-linejoin="round"/>
</g>
<defs>
<clipPath id="clip0_867_25810">
<rect width="16" height="16" fill="white" transform="translate(7 7)"/>
</clipPath>
</defs>
</svg>
