<svg xmlns="http://www.w3.org/2000/svg" width="30.907" height="36.328" viewBox="0 0 30.907 36.328"><defs><style>.a{fill:#f84400;stroke:#f84400;stroke-width:0.3px;}</style></defs><g transform="translate(0.15 0.191)"><path class="a" d="M123.528,403.025H100.915A1.527,1.527,0,0,1,99.39,401.5V399.85a1.525,1.525,0,0,0,.969-1.937v-1.649a1.525,1.525,0,0,0-.969-1.937v-1.649a1.525,1.525,0,0,0-.969-1.937v-1.649a1.525,1.525,0,0,0,.969-1.937V385.5a1.526,1.526,0,0,1,1.525-1.524h11.2a1.526,1.526,0,0,1,1.525,1.524v1.268a.556.556,0,1,1-1.113,0V385.5a.413.413,0,0,0-.412-.412h-11.2a.413.413,0,0,0-.412.412v1.649a.413.413,0,0,0,.412.412.556.556,0,1,1,0,1.113h-.969a.413.413,0,0,0-.412.412v1.649a.412.412,0,0,0,.412.412h.969a.556.556,0,1,1,0,1.113.413.413,0,0,0-.412.412v1.649a.413.413,0,0,0,.412.412h.969a.556.556,0,0,1,0,1.113.413.413,0,0,0-.412.412v1.649a.413.413,0,0,0,.412.412.556.556,0,0,1,0,1.113h-.969a.413.413,0,0,0-.412.412V401.5a.413.413,0,0,0,.412.412h22.614a.556.556,0,1,1,0,1.113Z" transform="translate(-93.478 -367.037)"/><path class="a" d="M105.722,376.42a.556.556,0,0,1-.554-.519c-.029-.438-.642-10.788,5.132-15.225a.556.556,0,0,1,.678.883c-5.3,4.073-4.707,14.168-4.7,14.269a.557.557,0,0,1-.519.591Z" transform="translate(-95.335 -360.561)"/><path class="a" d="M117.446,376.42h-.037a.556.556,0,0,1-.519-.591c.007-.1.6-10.2-4.7-14.269a.556.556,0,1,1,.678-.883c5.773,4.437,5.16,14.787,5.131,15.225A.556.556,0,0,1,117.446,376.42Z" transform="translate(-97.226 -360.561)"/><path class="a" d="M121.639,376.421a.556.556,0,0,1-.556-.556c0-1.406-2-2.6-4.36-2.6s-4.36,1.189-4.36,2.6a.556.556,0,1,1-1.113,0c0-1.406-2-2.6-4.36-2.6s-4.36,1.189-4.36,2.6a.556.556,0,1,1-1.113,0c0-1.406-2-2.6-4.359-2.6s-4.36,1.189-4.36,2.6a.556.556,0,1,1-1.113,0,15.3,15.3,0,0,1,30.606,0A.556.556,0,0,1,121.639,376.421Zm-14.747-4.264a6.043,6.043,0,0,1,4.916,2.052,6.043,6.043,0,0,1,4.916-2.052,6.791,6.791,0,0,1,4.149,1.265,14.193,14.193,0,0,0-27.961,0,6.792,6.792,0,0,1,4.15-1.265,6.041,6.041,0,0,1,4.915,2.052A6.044,6.044,0,0,1,106.892,372.156Z" transform="translate(-91.589 -360.561)"/><path class="a" d="M122.06,402.371h-3.326a1.069,1.069,0,0,1-1.068-1.068v-.81a.556.556,0,0,1,1.113,0v.765h3.236v-2.384h-3.281a1.069,1.069,0,0,1-1.068-1.068v-2.473a1.069,1.069,0,0,1,1.068-1.068h3.326a1.069,1.069,0,0,1,1.068,1.068v.81a.556.556,0,1,1-1.113,0v-.765h-3.236v2.383h3.281a1.069,1.069,0,0,1,1.068,1.068V401.3A1.069,1.069,0,0,1,122.06,402.371Z" transform="translate(-98.8 -369.882)"/><path class="a" d="M121.228,395.106a.556.556,0,0,1-.556-.556v-.714a.556.556,0,1,1,1.112,0v.714A.556.556,0,0,1,121.228,395.106Z" transform="translate(-99.631 -369.609)"/><path class="a" d="M121.228,406.035a.556.556,0,0,1-.556-.556v-.714a.556.556,0,1,1,1.112,0v.714A.556.556,0,0,1,121.228,406.035Z" transform="translate(-99.631 -372.631)"/><path class="a" d="M118.592,404.609a7.451,7.451,0,1,1,7.451-7.451A7.459,7.459,0,0,1,118.592,404.609Zm0-13.789a6.338,6.338,0,1,0,6.338,6.338A6.345,6.345,0,0,0,118.592,390.82Z" transform="translate(-96.996 -368.621)"/><path class="a" d="M111.891,390.05H105.17a.556.556,0,1,1,0-1.113h6.721a.556.556,0,0,1,0,1.113Z" transform="translate(-95.191 -368.408)"/><path class="a" d="M107.861,395.007h-6.206a.556.556,0,0,1,0-1.113h6.206a.556.556,0,0,1,0,1.113Z" transform="translate(-94.219 -369.779)"/><path class="a" d="M110.379,399.965h-3.452a.556.556,0,0,1,0-1.113h3.452a.556.556,0,0,1,0,1.113Z" transform="translate(-95.677 -371.15)"/><path class="a" d="M107.566,404.922h-4.571a.556.556,0,0,1,0-1.113h4.571a.556.556,0,0,1,0,1.113Z" transform="translate(-94.589 -372.521)"/></g></svg>