<svg xmlns="http://www.w3.org/2000/svg" xmlns:xlink="http://www.w3.org/1999/xlink" width="110" height="112.661" viewBox="0 0 110 112.661"><defs><style>.a{fill:#fff;}.b{filter:url(#u);}.c{filter:url(#s);}.d{filter:url(#q);}.e{filter:url(#o);}.f{filter:url(#m);}.g{filter:url(#k);}.h{filter:url(#i);}.i{filter:url(#g);}.j{filter:url(#e);}.k{filter:url(#c);}.l{filter:url(#a);}</style><filter id="a" x="0" y="0" width="88.853" height="112.661" filterUnits="userSpaceOnUse"><feOffset dx="2" dy="2" input="SourceAlpha"/><feGaussianBlur stdDeviation="3" result="b"/><feFlood flood-opacity="0.502"/><feComposite operator="in" in2="b"/><feComposite in="SourceGraphic"/></filter><filter id="c" x="77.35" y="0" width="32.65" height="112.661" filterUnits="userSpaceOnUse"><feOffset dx="2" dy="2" input="SourceAlpha"/><feGaussianBlur stdDeviation="3" result="d"/><feFlood flood-opacity="0.502"/><feComposite operator="in" in2="d"/><feComposite in="SourceGraphic"/></filter><filter id="e" x="13.996" y="12.122" width="42.548" height="20.834" filterUnits="userSpaceOnUse"><feOffset dx="2" dy="2" input="SourceAlpha"/><feGaussianBlur stdDeviation="3" result="f"/><feFlood flood-opacity="0.502"/><feComposite operator="in" in2="f"/><feComposite in="SourceGraphic"/></filter><filter id="g" x="29.78" y="25.028" width="45.426" height="20.878" filterUnits="userSpaceOnUse"><feOffset dx="2" dy="2" input="SourceAlpha"/><feGaussianBlur stdDeviation="3" result="h"/><feFlood flood-opacity="0.502"/><feComposite operator="in" in2="h"/><feComposite in="SourceGraphic"/></filter><filter id="i" x="13.996" y="37.934" width="56.893" height="20.878" filterUnits="userSpaceOnUse"><feOffset dx="2" dy="2" input="SourceAlpha"/><feGaussianBlur stdDeviation="3" result="j"/><feFlood flood-opacity="0.502"/><feComposite operator="in" in2="j"/><feComposite in="SourceGraphic"/></filter><filter id="k" x="29.78" y="50.841" width="45.426" height="20.878" filterUnits="userSpaceOnUse"><feOffset dx="2" dy="2" input="SourceAlpha"/><feGaussianBlur stdDeviation="3" result="l"/><feFlood flood-opacity="0.502"/><feComposite operator="in" in2="l"/><feComposite in="SourceGraphic"/></filter><filter id="m" x="13.996" y="63.747" width="49.742" height="20.878" filterUnits="userSpaceOnUse"><feOffset dx="2" dy="2" input="SourceAlpha"/><feGaussianBlur stdDeviation="3" result="n"/><feFlood flood-opacity="0.502"/><feComposite operator="in" in2="n"/><feComposite in="SourceGraphic"/></filter><filter id="o" x="29.78" y="76.654" width="45.426" height="20.878" filterUnits="userSpaceOnUse"><feOffset dx="2" dy="2" input="SourceAlpha"/><feGaussianBlur stdDeviation="3" result="p"/><feFlood flood-opacity="0.502"/><feComposite operator="in" in2="p"/><feComposite in="SourceGraphic"/></filter><filter id="q" x="13.996" y="20.711" width="29.467" height="29.511" filterUnits="userSpaceOnUse"><feOffset dx="2" dy="2" input="SourceAlpha"/><feGaussianBlur stdDeviation="3" result="r"/><feFlood flood-opacity="0.502"/><feComposite operator="in" in2="r"/><feComposite in="SourceGraphic"/></filter><filter id="s" x="13.996" y="46.568" width="29.467" height="29.468" filterUnits="userSpaceOnUse"><feOffset dx="2" dy="2" input="SourceAlpha"/><feGaussianBlur stdDeviation="3" result="t"/><feFlood flood-opacity="0.502"/><feComposite operator="in" in2="t"/><feComposite in="SourceGraphic"/></filter><filter id="u" x="13.996" y="72.38" width="29.467" height="29.468" filterUnits="userSpaceOnUse"><feOffset dx="2" dy="2" input="SourceAlpha"/><feGaussianBlur stdDeviation="3" result="v"/><feFlood flood-opacity="0.502"/><feComposite operator="in" in2="v"/><feComposite in="SourceGraphic"/></filter></defs><g transform="translate(7 7)"><g class="l" transform="matrix(1, 0, 0, 1, -7, -7)"><path class="a" d="M106.943,42.518l-.044-.131-.262-.392h0L88.761,24.117h0l-.392-.261-.131-.044-.393-.087H37.616a1.388,1.388,0,0,0-1.4,1.439v91.784a1.415,1.415,0,0,0,1.4,1.439h68.019a1.451,1.451,0,0,0,1.439-1.439V43l-.044-.087Zm-4.8-.916H89.154V28.608Zm2.049,73.907H39.1V26.559H86.319V43a1.424,1.424,0,0,0,1.439,1.439H104.2Z" transform="translate(-29.22 -16.73)"/></g><g transform="translate(77.35)"><g class="k" transform="matrix(1, 0, 0, 1, -84.35, -7)"><path class="a" d="M50.334,33.274V27.562a3.88,3.88,0,0,0-3.881-3.837H44.187a3.89,3.89,0,0,0-3.924,3.837v5.712l-.131.131a7.252,7.252,0,0,0-2.137,5.189V96.585c0,1.918,1.788,13.081,5.886,15.3v5.058a1.439,1.439,0,1,0,2.878,0V111.89c4.055-2.224,5.886-13.386,5.886-15.3V38.594A7.568,7.568,0,0,0,50.334,33.274ZM40.829,96.585V59.741h8.938V96.585l-.044.218H40.873Zm0-57.992a4.458,4.458,0,0,1,1.308-3.139,4.559,4.559,0,0,1,3.183-1.308h0a4.466,4.466,0,0,1,4.447,4.448V56.819H40.829ZM43.14,27.562a1.024,1.024,0,0,1,1.047-1h2.267a1.014,1.014,0,0,1,1,1v4.055a7.073,7.073,0,0,0-2.137-.349h0a7.136,7.136,0,0,0-2.18.349ZM45.32,109.4c-1.177,0-3.27-5.407-4.1-9.724h8.154C48.547,104,46.454,109.4,45.32,109.4Z" transform="translate(46.35 -16.73)"/></g></g><g transform="translate(13.996 12.122)"><g class="j" transform="matrix(1, 0, 0, 1, -21, -19.12)"><path class="a" d="M37.981,26.837h21.67a1.415,1.415,0,0,0,1.439-1.4A1.452,1.452,0,0,0,59.651,24H37.981a1.451,1.451,0,0,0-1.439,1.439A1.414,1.414,0,0,0,37.981,26.837Z" transform="translate(-15.55 -4.88)"/></g></g><g transform="translate(29.78 25.028)"><g class="i" transform="matrix(1, 0, 0, 1, -36.78, -32.03)"><path class="a" d="M36.9,25.738a1.415,1.415,0,0,0,1.4,1.439H62.891a1.452,1.452,0,0,0,1.439-1.439A1.424,1.424,0,0,0,62.891,24.3H38.3A1.388,1.388,0,0,0,36.9,25.738Z" transform="translate(-0.12 7.73)"/></g></g><g transform="translate(13.996 37.934)"><g class="h" transform="matrix(1, 0, 0, 1, -21, -44.93)"><path class="a" d="M37.981,27.473H74a1.451,1.451,0,0,0,1.439-1.439A1.424,1.424,0,0,0,74,24.6H37.981a1.424,1.424,0,0,0-1.439,1.439A1.451,1.451,0,0,0,37.981,27.473Z" transform="translate(-15.55 20.34)"/></g></g><g transform="translate(29.78 50.841)"><g class="g" transform="matrix(1, 0, 0, 1, -36.78, -57.84)"><path class="a" d="M62.891,24.891H38.3a1.44,1.44,0,0,0,0,2.878H62.891a1.439,1.439,0,1,0,0-2.878Z" transform="translate(-0.12 32.95)"/></g></g><g transform="translate(13.996 63.747)"><g class="f" transform="matrix(1, 0, 0, 1, -21, -70.75)"><path class="a" d="M37.981,28.065H66.845a1.439,1.439,0,1,0,0-2.878H37.981a1.439,1.439,0,0,0,0,2.878Z" transform="translate(-15.55 45.56)"/></g></g><g transform="translate(29.78 76.654)"><g class="e" transform="matrix(1, 0, 0, 1, -36.78, -83.65)"><path class="a" d="M62.891,25.483H38.3a1.426,1.426,0,0,0-1.4,1.482,1.4,1.4,0,0,0,1.4,1.4H62.891a1.443,1.443,0,0,0,1.439-1.4A1.461,1.461,0,0,0,62.891,25.483Z" transform="translate(-0.12 58.17)"/></g></g><g transform="translate(13.996 20.711)"><g class="d" transform="matrix(1, 0, 0, 1, -21, -27.71)"><path class="a" d="M37.981,35.711H46.57a1.424,1.424,0,0,0,1.439-1.439V25.6a1.415,1.415,0,0,0-1.439-1.4H37.981a1.443,1.443,0,0,0-1.439,1.4v8.677A1.452,1.452,0,0,0,37.981,35.711Zm1.439-8.633h5.712V32.79H39.42Z" transform="translate(-15.55 3.51)"/></g></g><g transform="translate(13.996 46.568)"><g class="c" transform="matrix(1, 0, 0, 1, -21, -53.57)"><path class="a" d="M37.981,36.26H46.57a1.434,1.434,0,0,0,1.439-1.483v-8.59a1.388,1.388,0,0,0-1.439-1.4H37.981a1.415,1.415,0,0,0-1.439,1.4v8.59A1.461,1.461,0,0,0,37.981,36.26Zm1.439-8.633h5.712v5.755H39.42Z" transform="translate(-15.55 28.77)"/></g></g><g transform="translate(13.996 72.38)"><g class="b" transform="matrix(1, 0, 0, 1, -21, -79.38)"><path class="a" d="M46.57,25.385H37.981a1.424,1.424,0,0,0-1.439,1.439v8.59a1.452,1.452,0,0,0,1.439,1.439H46.57a1.424,1.424,0,0,0,1.439-1.439v-8.59A1.4,1.4,0,0,0,46.57,25.385Zm-1.439,8.59H39.42V28.263h5.712Z" transform="translate(-15.55 54)"/></g></g></g></svg>