<svg width="208" height="231" viewBox="0 0 208 231" fill="none" xmlns="http://www.w3.org/2000/svg">
<g clip-path="url(#clip0_779_24687)">
<path d="M78.3433 110.248C95.9814 110.248 110.28 95.937 110.28 78.284C110.28 60.6309 95.9814 46.3203 78.3433 46.3203C60.7052 46.3203 46.4067 60.6309 46.4067 78.284C46.4067 95.937 60.7052 110.248 78.3433 110.248Z" stroke="#1D1D1B" stroke-width="6" stroke-miterlimit="10"/>
<path d="M155.549 110.248C173.187 110.248 187.485 95.937 187.485 78.284C187.485 60.6309 173.187 46.3203 155.549 46.3203C137.911 46.3203 123.612 60.6309 123.612 78.284C123.612 95.937 137.911 110.248 155.549 110.248Z" stroke="#1D1D1B" stroke-width="6" stroke-miterlimit="10"/>
<path d="M125.233 66.5273C125.233 66.5273 116.962 74.093 108.208 66.5273V80.9988C108.208 80.9988 116.582 72.3506 125.781 81.3113L125.233 66.5273Z" fill="#1D1D1B"/>
<path d="M49.0174 61.9082C47.5642 62.5947 46.0303 63.1408 44.4427 63.5367C42.1684 64.0527 37.8682 63.9782 37.1101 67.5505C36.352 71.1228 39.4693 74.8614 41.9985 76.4956C44.5276 78.1298 45.7105 81.3122 45.7105 81.3122L49.0174 61.9082Z" fill="#1D1D1B"/>
<path d="M185.896 61.9082C187.349 62.5947 188.883 63.1408 190.471 63.5367C192.745 64.0527 197.045 63.9782 197.804 67.5505C198.562 71.1228 195.444 74.8614 192.915 76.4956C190.386 78.1298 189.203 81.3122 189.203 81.3122L185.896 61.9082Z" fill="#1D1D1B"/>
<path d="M102.751 98.8965C102.751 98.8965 94.3117 121.124 116.992 121.124C139.672 121.124 131.946 99.8196 131.946 99.8196" stroke="#1D1D1B" stroke-width="6" stroke-miterlimit="10"/>
<path d="M116.063 124.875C116.063 124.875 108.023 129.517 87.7832 139.593C75.4974 145.684 62.4201 150.023 48.932 152.485C48.932 152.485 56.7821 171.472 67.0329 185.823C77.2838 200.175 89 205.354 89 205.354L89.4513 192.79C89.4513 192.79 106.63 208.647 106.931 228.38C106.931 228.38 126.353 224.046 137.559 199.821L142.642 208.791C142.642 208.791 167.468 198.099 176.279 161.795L141.955 139.593L116.063 124.875Z" fill="#EA5A29" stroke="black" stroke-width="6" stroke-linejoin="round"/>
<path d="M67.6738 119.027C67.6738 119.027 51.5877 117.41 47.9767 125.489C44.3657 133.569 53.511 147.049 67.3205 138.689C81.1301 130.328 95.3844 114.359 109.325 123.335C123.265 132.312 113.76 155.096 84.8916 160.838C56.023 166.58 27.5993 158.507 27.6909 133.385C27.7825 107.805 67.6738 119.027 67.6738 119.027Z" fill="#EA5A29" stroke="black" stroke-width="6" stroke-linejoin="round"/>
<path d="M165.4 119.027C165.4 119.027 181.486 117.41 185.097 125.489C188.708 133.569 179.563 147.049 165.76 138.689C151.957 130.328 137.69 114.359 123.756 123.335C109.822 132.312 119.314 155.096 148.183 160.838C177.051 166.58 205.475 158.507 205.409 133.385C205.292 107.805 165.4 119.027 165.4 119.027Z" fill="#EA5A29" stroke="black" stroke-width="6" stroke-linejoin="round"/>
<path d="M66.2674 77.3162C70.2163 77.3162 73.4175 74.1123 73.4175 70.1601C73.4175 66.2078 70.2163 63.0039 66.2674 63.0039C62.3185 63.0039 59.1173 66.2078 59.1173 70.1601C59.1173 74.1123 62.3185 77.3162 66.2674 77.3162Z" fill="black"/>
<path d="M142.688 77.3162C146.637 77.3162 149.838 74.1123 149.838 70.1601C149.838 66.2078 146.637 63.0039 142.688 63.0039C138.739 63.0039 135.538 66.2078 135.538 70.1601C135.538 74.1123 138.739 77.3162 142.688 77.3162Z" fill="black"/>
<path d="M53.2036 40.829C53.2036 40.829 74.2679 36.7173 86.4159 28.3892C98.5638 20.0611 79.2396 50.6695 53.2036 40.829Z" fill="#1D1D1B"/>
<path d="M186.759 42.707C186.759 42.707 165.701 38.6281 153.553 30.2345C141.405 21.8409 160.73 52.5475 186.759 42.707Z" fill="#1D1D1B"/>
<path d="M30.0526 17.1794L28.4041 22.7904C27.805 24.6465 27.4145 26.5635 27.2397 28.5062C27.247 29.0735 27.1326 29.6358 26.9043 30.1551C26.676 30.6744 26.339 31.1387 25.9162 31.5166C25.4933 31.8945 24.9944 32.1773 24.4531 32.3458C23.9118 32.5143 23.3406 32.5646 22.7782 32.4934C22.2555 32.4631 21.7449 32.3233 21.2795 32.0831C20.8141 31.8429 20.4043 31.5076 20.0765 31.0989C19.1127 29.8855 19.0102 27.7532 19.769 24.7022C20.5453 22.0004 21.3282 19.2876 22.1175 16.564C22.8894 13.5086 22.7979 11.3917 21.8428 10.2132C20.722 8.80768 18.9579 8.05693 16.5505 7.9609C14.4311 7.78045 12.3193 8.38633 10.6172 9.66319C9.80603 10.3179 9.05373 11.6732 8.3734 13.7356C7.69306 15.798 7.06506 17.0681 6.46976 17.533C6.04848 17.8769 5.55827 18.1263 5.03231 18.2641C4.50636 18.4019 3.95696 18.425 3.42133 18.3317C2.37864 18.2135 1.42446 17.689 0.765394 16.8717C-0.438279 15.3615 -0.220222 12.9237 1.41956 9.55843C2.81077 6.7082 4.24558 4.69164 5.72401 3.50877C9.00794 0.889876 12.933 -0.264622 17.4991 0.045281C22.0652 0.355184 25.6086 2.08584 28.1293 5.23725C30.5977 8.31882 31.2388 12.2995 30.0526 17.1794ZM32.1525 42.1768C31.295 42.8521 30.2343 43.2167 29.1433 43.2113C28.5838 43.2444 28.0245 43.1428 27.5123 42.9149C27.0001 42.6871 26.5499 42.3397 26.1995 41.9018C25.3957 40.8792 24.9273 39.6329 24.8585 38.3336C24.7701 37.592 24.8755 36.8401 25.1645 36.1515C25.4534 35.463 25.916 34.8612 26.507 34.4052C26.9553 34.0142 27.4937 33.7407 28.0737 33.6092C28.6537 33.4778 29.2573 33.4926 29.8302 33.6523C30.8023 33.9449 31.6551 34.5415 32.2637 35.3546C32.9935 36.269 33.4474 37.3729 33.572 38.5366C33.6865 39.2151 33.615 39.912 33.365 40.5531C33.115 41.1941 32.696 41.7553 32.1525 42.1768Z" fill="#1D1D1B"/>
</g>
<defs>
<clipPath id="clip0_779_24687">
<rect width="208" height="231" fill="white"/>
</clipPath>
</defs>
</svg>
