<svg xmlns="http://www.w3.org/2000/svg" xmlns:xlink="http://www.w3.org/1999/xlink" width="116.311" height="109.744" viewBox="0 0 116.311 109.744"><defs><style>.a{fill:#fff;}.b{filter:url(#i);}.c{filter:url(#g);}.d{filter:url(#e);}.e{filter:url(#c);}.f{filter:url(#a);}</style><filter id="a" x="0" y="35.819" width="116.311" height="73.925" filterUnits="userSpaceOnUse"><feOffset dx="2" dy="2" input="SourceAlpha"/><feGaussianBlur stdDeviation="3" result="b"/><feFlood flood-opacity="0.502"/><feComposite operator="in" in2="b"/><feComposite in="SourceGraphic"/></filter><filter id="c" x="4.483" y="0" width="107.39" height="55.002" filterUnits="userSpaceOnUse"><feOffset dx="2" dy="2" input="SourceAlpha"/><feGaussianBlur stdDeviation="3" result="d"/><feFlood flood-opacity="0.502"/><feComposite operator="in" in2="d"/><feComposite in="SourceGraphic"/></filter><filter id="e" x="16.03" y="12.951" width="28.415" height="28.415" filterUnits="userSpaceOnUse"><feOffset dx="2" dy="2" input="SourceAlpha"/><feGaussianBlur stdDeviation="3" result="f"/><feFlood flood-opacity="0.502"/><feComposite operator="in" in2="f"/><feComposite in="SourceGraphic"/></filter><filter id="g" x="71.865" y="12.951" width="28.461" height="28.415" filterUnits="userSpaceOnUse"><feOffset dx="2" dy="2" input="SourceAlpha"/><feGaussianBlur stdDeviation="3" result="h"/><feFlood flood-opacity="0.502"/><feComposite operator="in" in2="h"/><feComposite in="SourceGraphic"/></filter><filter id="i" x="43.971" y="8.106" width="28.415" height="28.46" filterUnits="userSpaceOnUse"><feOffset dx="2" dy="2" input="SourceAlpha"/><feGaussianBlur stdDeviation="3" result="j"/><feFlood flood-opacity="0.502"/><feComposite operator="in" in2="j"/><feComposite in="SourceGraphic"/></filter></defs><g transform="translate(7 7)"><g transform="translate(0 35.819)"><g class="f" transform="matrix(1, 0, 0, 1, -7, -42.82)"><path class="a" d="M142.63,89.229a10.706,10.706,0,0,0,1.811-5.977,9.351,9.351,0,0,0-18.7,0,10.705,10.705,0,0,0,1.811,5.977,17.749,17.749,0,0,0-6.43,7.472l-3.8-.679a18.356,18.356,0,0,0-8.06-13.54,10.956,10.956,0,0,0,1.811-5.977,9.375,9.375,0,0,0-18.747,0,10.854,10.854,0,0,0,1.811,6.023A18.654,18.654,0,0,0,85.98,96.021l-3.713.679a19.006,19.006,0,0,0-6.43-7.472,10.705,10.705,0,0,0,1.811-5.977,9.016,9.016,0,0,0-9.374-9.283A9.042,9.042,0,0,0,58.9,83.252a10.707,10.707,0,0,0,1.811,5.977,18.265,18.265,0,0,0-8.2,14.808c0,7.879,6.023,12.77,15.759,12.77h.589c7.291,4.166,20.332,6.385,32.831,6.385s25.495-2.219,32.831-6.385h.543c9.736,0,15.759-4.89,15.759-12.77A18.265,18.265,0,0,0,142.63,89.229Zm-7.562-12.272a6.075,6.075,0,0,1,6.43,6.294c0,3.939-2.853,7.109-6.43,7.109-3.487,0-6.34-3.17-6.34-7.109A6.026,6.026,0,0,1,135.067,76.957ZM101.693,70.21a6.088,6.088,0,0,1,6.385,6.294c0,3.985-2.9,7.155-6.385,7.155-3.532,0-6.43-3.17-6.43-7.155A6.125,6.125,0,0,1,101.693,70.21ZM96.214,84.7a8.7,8.7,0,0,0,5.479,1.947,8.793,8.793,0,0,0,5.479-1.947,14.99,14.99,0,0,1,7.11,10.958,103.716,103.716,0,0,0-25.223,0A15.043,15.043,0,0,1,96.214,84.7Zm-27.94-7.743a6.063,6.063,0,0,1,6.385,6.294c0,3.939-2.853,7.109-6.385,7.109-3.487,0-6.385-3.17-6.385-7.109A6.063,6.063,0,0,1,68.274,76.957ZM55.5,104.037a15.1,15.1,0,0,1,7.291-12.589A9.07,9.07,0,0,0,68.274,93.4a8.968,8.968,0,0,0,5.479-1.947,14.253,14.253,0,0,1,5.525,5.932c-9.464,2.31-16.347,6.249-16.347,11.638a6.773,6.773,0,0,0,1.811,4.528C60.757,112.822,55.5,110.738,55.5,104.037Zm10.415,4.981c0-5.3,14.672-11.185,35.774-11.185,21.057,0,35.729,5.887,35.729,11.185s-14.672,11.23-35.729,11.23C80.591,120.248,65.919,114.316,65.919,109.018Zm72.726,4.528a6.95,6.95,0,0,0,1.766-4.528c0-5.389-6.883-9.328-16.347-11.638a14.855,14.855,0,0,1,5.525-5.932,8.747,8.747,0,0,0,11,0,15.1,15.1,0,0,1,7.291,12.589C147.883,110.738,142.585,112.822,138.645,113.546Z" transform="translate(-45.52 -24.45)"/></g></g><g transform="translate(4.483)"><g class="e" transform="matrix(1, 0, 0, 1, -11.48, -7)"><path class="a" d="M62.622,96.091l1.313,6.2a1.729,1.729,0,0,0,1.042,1.132,1.505,1.505,0,0,0,1.494-.408l5.706-5.887c6.792-.5,12.453-3.849,14.581-8.332a19.868,19.868,0,0,0,5.072,1.857l4.257,6.475a1.481,1.481,0,0,0,2.445,0l4.3-6.475A22.142,22.142,0,0,0,107.86,88.8c2.128,4.483,7.744,7.834,14.581,8.332l5.706,5.887a1.473,1.473,0,0,0,1.042.453l.407-.045a1.541,1.541,0,0,0,1.042-1.132l1.313-6.2C138.11,94.054,142,89.706,142,84.816c0-6.838-7.879-12.362-17.525-12.362a23.118,23.118,0,0,0-10.6,2.446c-2.309-4.981-8.921-8.423-16.574-8.423S83.045,69.918,80.69,74.9a22.928,22.928,0,0,0-10.551-2.446c-9.646,0-17.525,5.525-17.525,12.362C52.614,89.706,56.509,94.054,62.622,96.091ZM70.139,75.4A18.834,18.834,0,0,1,80.645,78.34,1.449,1.449,0,0,0,82,78.476a1.6,1.6,0,0,0,.951-1c1.087-4.619,7.245-8.061,14.355-8.061s13.268,3.441,14.355,8.061a1.538,1.538,0,0,0,2.31.86A18.728,18.728,0,0,1,124.48,75.4c8.015,0,14.536,4.257,14.536,9.419,0,3.758-3.442,7.155-8.74,8.649a1.41,1.41,0,0,0-1.041,1.132l-.906,4.3-4.166-4.211a1.3,1.3,0,0,0-1-.453c-6.566-.407-12.046-3.758-13.087-8.015a1.582,1.582,0,0,0-.906-1.042l-.5-.091a1.394,1.394,0,0,0-.86.272,16.545,16.545,0,0,1-6.2,2.491,1.574,1.574,0,0,0-.951.679L97.309,93.6l-3.351-5.072a1.573,1.573,0,0,0-.951-.679,16.115,16.115,0,0,1-6.2-2.491,1.528,1.528,0,0,0-1.4-.136,1.645,1.645,0,0,0-.906,1c-1,4.256-6.521,7.608-13.087,8.015a1.275,1.275,0,0,0-.951.453L66.29,98.9l-.906-4.3a1.41,1.41,0,0,0-1.041-1.132C59,91.97,55.6,88.574,55.6,84.816,55.6,79.653,62.124,75.4,70.139,75.4Z" transform="translate(-41.13 -59.48)"/></g></g><g transform="translate(16.03 12.951)"><g class="d" transform="matrix(1, 0, 0, 1, -23.03, -19.95)"><path class="a" d="M54.318,73.464h2.264v2.219a1.494,1.494,0,0,0,2.989,0V73.464H61.79a1.508,1.508,0,0,0,1.494-1.495,1.479,1.479,0,0,0-1.494-1.494H59.571V68.256a1.494,1.494,0,0,0-2.989,0v2.219H54.318a1.441,1.441,0,0,0-1.449,1.494A1.469,1.469,0,0,0,54.318,73.464Z" transform="translate(-29.84 -46.81)"/></g></g><g transform="translate(71.865 12.951)"><g class="c" transform="matrix(1, 0, 0, 1, -78.87, -19.95)"><path class="a" d="M55.6,73.464h2.264v2.219a1.494,1.494,0,0,0,2.989,0V73.464h2.219a1.508,1.508,0,0,0,1.494-1.495,1.479,1.479,0,0,0-1.494-1.494H60.849V68.256a1.494,1.494,0,0,0-2.989,0v2.219H55.6A1.479,1.479,0,0,0,54.1,71.969,1.508,1.508,0,0,0,55.6,73.464Z" transform="translate(24.76 -46.81)"/></g></g><g transform="translate(43.971 8.106)"><g class="b" transform="matrix(1, 0, 0, 1, -50.97, -15.11)"><path class="a" d="M54.981,73.357H57.2v2.264a1.494,1.494,0,0,0,2.989,0V73.357h2.219A1.469,1.469,0,0,0,63.9,71.908a1.489,1.489,0,0,0-1.494-1.54H60.188V68.149a1.494,1.494,0,1,0-2.989,0v2.219H54.981a1.517,1.517,0,0,0-1.494,1.54A1.5,1.5,0,0,0,54.981,73.357Z" transform="translate(-2.52 -51.55)"/></g></g></g></svg>