<svg width="80" height="80" viewBox="0 0 80 80" fill="none" xmlns="http://www.w3.org/2000/svg">
<rect x="0.5" y="0.5" width="79" height="79" rx="39.5" fill="#FCF3EC"/>
<path d="M57.8311 36.8926V22.9134C57.8308 22.6711 57.7343 22.4388 57.5628 22.2675C57.3913 22.0963 57.1589 22 56.9166 22H39.7876C39.5453 22 39.3128 22.0963 39.1414 22.2675C38.9699 22.4388 38.8734 22.6711 38.8731 22.9134V28.9829H22.9145C22.7943 28.9829 22.6753 29.0066 22.5643 29.0526C22.4532 29.0986 22.3524 29.1661 22.2674 29.2512C22.1825 29.3362 22.1152 29.4371 22.0693 29.5482C22.0234 29.6593 21.9999 29.7783 22 29.8985V57.8255C22 57.9456 22.0236 58.0645 22.0696 58.1755C22.1155 58.2864 22.1829 58.3872 22.2679 58.4721C22.3528 58.5571 22.4536 58.6245 22.5645 58.6704C22.6755 58.7164 22.7944 58.74 22.9145 58.74H56.948C57.0681 58.74 57.1869 58.7164 57.2979 58.6704C57.4089 58.6245 57.5097 58.5571 57.5947 58.4721C57.6796 58.3872 57.7469 58.2864 57.7929 58.1755C57.8388 58.0645 57.8153 57.9442 57.8153 57.8241V38.7228L57.8311 36.8926ZM23.8279 30.8108H38.872V56.9088H33.974V48.7623C33.9737 48.6165 33.9156 48.4769 33.8126 48.3738C33.7095 48.2708 33.5699 48.2127 33.4241 48.2124H29.2724C29.1267 48.2127 28.987 48.2708 28.8839 48.3738C28.7809 48.4769 28.7228 48.6165 28.7225 48.7623V56.9088H23.8234L23.8279 30.8108ZM29.8256 49.311H32.8743V57.2779H29.8256V49.311ZM55.9897 37.8082V56.9099H50.7315V48.7634C50.7315 48.6177 50.6738 48.4781 50.5709 48.375C50.468 48.2719 50.3284 48.2138 50.1828 48.2135H46.031C45.8855 48.2141 45.7461 48.2723 45.6432 48.3753C45.5404 48.4783 45.4826 48.6178 45.4823 48.7634V56.9099H40.6988V23.8302H55.9975V37.6983C55.9926 37.7348 55.99 37.7715 55.9897 37.8082ZM46.5842 57.2757V49.3087H49.6329V57.2757H46.5842Z" fill="#F7C4AC"/>
<path d="M47.3495 27.2997H43.2515C43.1059 27.3 42.9664 27.3581 42.8635 27.4612C42.7606 27.5643 42.7029 27.7039 42.7029 27.8496V31.9475C42.7029 32.0195 42.7171 32.0908 42.7447 32.1573C42.7722 32.2238 42.8127 32.2842 42.8636 32.3351C42.9146 32.386 42.9751 32.4263 43.0417 32.4537C43.1083 32.4812 43.1795 32.4952 43.2515 32.4951H47.3495C47.4215 32.4952 47.4929 32.4812 47.5594 32.4537C47.626 32.4263 47.6865 32.386 47.7374 32.3351C47.7884 32.2842 47.8288 32.2238 47.8564 32.1573C47.884 32.0908 47.8982 32.0195 47.8982 31.9475V27.8496C47.8982 27.7039 47.8404 27.5643 47.7376 27.4612C47.6347 27.3581 47.4951 27.3 47.3495 27.2997ZM46.8008 31.3976H43.8003V28.3983H46.8008V31.3976Z" fill="#F7C4AC"/>
<path d="M53.575 27.2998H49.4815C49.3359 27.3001 49.1963 27.3581 49.0935 27.4612C48.9906 27.5643 48.9329 27.7039 48.9329 27.8496V31.9475C48.9329 32.0196 48.947 32.0908 48.9746 32.1573C49.0022 32.2238 49.0426 32.2843 49.0936 32.3351C49.1446 32.386 49.2051 32.4263 49.2717 32.4537C49.3382 32.4812 49.4095 32.4953 49.4815 32.4951H53.5795C53.6515 32.4953 53.7228 32.4812 53.7894 32.4537C53.856 32.4263 53.9164 32.386 53.9674 32.3351C54.0184 32.2843 54.0588 32.2238 54.0864 32.1573C54.114 32.0908 54.1282 32.0196 54.1282 31.9475V27.8496C54.1282 27.7771 54.1139 27.7054 54.086 27.6384C54.0582 27.5715 54.0174 27.5107 53.966 27.4596C53.9146 27.4085 53.8536 27.3681 53.7865 27.3406C53.7194 27.3132 53.6475 27.2993 53.575 27.2998ZM53.0251 31.3977H50.0258V28.3983H53.0251V31.3977Z" fill="#F7C4AC"/>
<path d="M47.3495 34.0099H43.2515C43.1062 34.0099 42.9668 34.0676 42.864 34.1702C42.7611 34.2729 42.7032 34.4122 42.7029 34.5575V38.6543C42.7027 38.7265 42.7168 38.7979 42.7443 38.8647C42.7718 38.9314 42.8122 38.9919 42.8631 39.043C42.9141 39.0941 42.9747 39.1346 43.0413 39.1622C43.108 39.1899 43.1794 39.2041 43.2515 39.2041H47.3495C47.4217 39.2041 47.4931 39.1899 47.5598 39.1622C47.6264 39.1346 47.6869 39.0941 47.7379 39.043C47.7889 38.9919 47.8292 38.9314 47.8567 38.8647C47.8842 38.7979 47.8984 38.7265 47.8982 38.6543V34.5575C47.8979 34.4122 47.84 34.2729 47.7371 34.1702C47.6342 34.0676 47.4948 34.0099 47.3495 34.0099ZM46.8008 38.1056H43.8003V35.1062H46.8008V38.1056Z" fill="#F7C4AC"/>
<path d="M53.575 34.0099H49.4815C49.3362 34.0099 49.1968 34.0676 49.0939 34.1702C48.9911 34.2729 48.9332 34.4122 48.9329 34.5575V38.6543C48.9327 38.7265 48.9468 38.798 48.9743 38.8647C49.0018 38.9314 49.0422 38.9919 49.0931 39.043C49.1441 39.0941 49.2047 39.1346 49.2713 39.1623C49.338 39.1899 49.4094 39.2042 49.4815 39.2042H53.5795C53.6516 39.2042 53.7231 39.1899 53.7897 39.1623C53.8564 39.1346 53.9169 39.0941 53.9679 39.043C54.0188 38.9919 54.0592 38.9314 54.0867 38.8647C54.1142 38.798 54.1284 38.7265 54.1282 38.6543V34.5575C54.1281 34.4852 54.1136 34.4136 54.0857 34.3469C54.0578 34.2801 54.0169 34.2196 53.9655 34.1687C53.9141 34.1178 53.8531 34.0776 53.7861 34.0503C53.7191 34.0231 53.6473 34.0093 53.575 34.0099ZM53.0251 38.1056H50.0258V35.1062H53.0251V38.1056Z" fill="#F7C4AC"/>
<path d="M47.3495 40.7167H43.2515C43.1059 40.717 42.9664 40.7751 42.8635 40.8782C42.7606 40.9813 42.7029 41.121 42.7029 41.2666V45.3645C42.7029 45.4365 42.7171 45.5078 42.7447 45.5743C42.7722 45.6408 42.8127 45.7012 42.8636 45.7521C42.9146 45.803 42.9751 45.8433 43.0417 45.8707C43.1083 45.8982 43.1795 45.9122 43.2515 45.9121H47.3495C47.4215 45.9122 47.4929 45.8982 47.5594 45.8707C47.626 45.8433 47.6865 45.803 47.7374 45.7521C47.7884 45.7012 47.8288 45.6408 47.8564 45.5743C47.884 45.5078 47.8982 45.4365 47.8982 45.3645V41.2688C47.8985 41.1965 47.8845 41.1249 47.8571 41.058C47.8296 40.9911 47.7894 40.9303 47.7384 40.879C47.6874 40.8277 47.6268 40.787 47.5601 40.7591C47.4934 40.7313 47.4218 40.7169 47.3495 40.7167ZM46.8008 44.8147H43.8003V41.8153H46.8008V44.8147Z" fill="#F7C4AC"/>
<path d="M53.575 40.7167H49.4815C49.3359 40.717 49.1963 40.7752 49.0935 40.8782C48.9906 40.9813 48.9329 41.121 48.9329 41.2666V45.3645C48.9329 45.4365 48.947 45.5078 48.9746 45.5743C49.0022 45.6408 49.0426 45.7012 49.0936 45.7521C49.1446 45.803 49.2051 45.8433 49.2717 45.8707C49.3382 45.8982 49.4095 45.9122 49.4815 45.9121H53.5795C53.6515 45.9122 53.7228 45.8982 53.7894 45.8707C53.856 45.8433 53.9164 45.803 53.9674 45.7521C54.0184 45.7012 54.0588 45.6408 54.0864 45.5743C54.114 45.5078 54.1282 45.4365 54.1282 45.3645V41.2688C54.1285 41.1961 54.1144 41.1242 54.0866 41.057C54.0589 40.9898 54.0182 40.9288 53.9667 40.8774C53.9153 40.8261 53.8542 40.7854 53.7869 40.7578C53.7197 40.7303 53.6476 40.7163 53.575 40.7167ZM53.0251 44.8147H50.0258V41.8153H53.0251V44.8147Z" fill="#F7C4AC"/>
<path d="M26.192 39.2041H30.2934C30.3655 39.2041 30.4368 39.1899 30.5034 39.1622C30.57 39.1346 30.6305 39.094 30.6813 39.0429C30.7322 38.9918 30.7725 38.9312 30.7999 38.8645C30.8273 38.7978 30.8412 38.7264 30.8409 38.6543V34.5575C30.8409 34.4856 30.8268 34.4144 30.7993 34.3479C30.7718 34.2815 30.7314 34.2211 30.6806 34.1703C30.6297 34.1194 30.5694 34.0791 30.5029 34.0516C30.4365 34.0241 30.3653 34.0099 30.2934 34.0099H26.1955C26.0501 34.0099 25.9107 34.0676 25.8078 34.1702C25.7049 34.2729 25.647 34.4122 25.6467 34.5575V38.6543C25.6464 38.7995 25.7036 38.9388 25.8058 39.0418C25.908 39.1449 26.0469 39.2033 26.192 39.2041ZM26.7408 35.1062H29.7402V38.1056H26.7408V35.1062Z" fill="#F7C4AC"/>
<path d="M32.4132 39.2041H36.51C36.5821 39.2041 36.6536 39.1899 36.7202 39.1622C36.7869 39.1346 36.8474 39.0941 36.8984 39.043C36.9493 38.9919 36.9897 38.9314 37.0173 38.8647C37.0448 38.7979 37.0588 38.7265 37.0587 38.6543V34.5575C37.0584 34.4122 37.0005 34.2729 36.8976 34.1702C36.7947 34.0676 36.6553 34.0099 36.51 34.0099H32.4132C32.2678 34.0099 32.1285 34.0676 32.0256 34.1702C31.9227 34.2729 31.8648 34.4122 31.8645 34.5575V38.6543C31.8644 38.7265 31.8784 38.7979 31.9059 38.8647C31.9334 38.9314 31.9738 38.9919 32.0248 39.043C32.0757 39.0941 32.1363 39.1346 32.203 39.1622C32.2696 39.1899 32.341 39.2041 32.4132 39.2041ZM32.9619 35.1062H35.9613V38.1056H32.9619V35.1062Z" fill="#F7C4AC"/>
<path d="M30.2934 45.9121C30.3653 45.9122 30.4366 45.8982 30.5031 45.8707C30.5696 45.8433 30.63 45.8029 30.6809 45.752C30.7317 45.7012 30.7721 45.6407 30.7996 45.5742C30.827 45.5077 30.8411 45.4365 30.8409 45.3645V41.2688C30.8411 41.1968 30.8271 41.1254 30.7996 41.0588C30.7722 40.9921 30.7318 40.9315 30.681 40.8805C30.6302 40.8294 30.5698 40.7889 30.5033 40.7612C30.4368 40.7335 30.3654 40.7191 30.2934 40.719H26.1955C26.0498 40.7193 25.9102 40.7773 25.8073 40.8804C25.7045 40.9835 25.6467 41.1232 25.6467 41.2688V45.3668C25.6467 45.4388 25.6609 45.5101 25.6885 45.5766C25.7161 45.6431 25.7565 45.7035 25.8075 45.7544C25.8584 45.8052 25.919 45.8455 25.9855 45.873C26.0521 45.9004 26.1234 45.9145 26.1955 45.9144L30.2934 45.9121ZM26.7441 41.8153H29.7435V44.8147H26.7441V41.8153Z" fill="#F7C4AC"/>
<path d="M32.4132 45.9121H36.51C36.582 45.9122 36.6533 45.8982 36.7199 45.8707C36.7864 45.8433 36.847 45.803 36.8979 45.7521C36.9489 45.7012 36.9893 45.6408 37.0169 45.5743C37.0445 45.5078 37.0587 45.4365 37.0587 45.3645V41.2688C37.0587 41.1232 37.001 40.9835 36.8981 40.8804C36.7952 40.7773 36.6556 40.7193 36.51 40.719H32.4132C32.2675 40.7193 32.128 40.7773 32.0251 40.8804C31.9222 40.9835 31.8645 41.1232 31.8645 41.2688V45.3668C31.8651 45.5118 31.9232 45.6507 32.0261 45.7529C32.1289 45.8552 32.2681 45.9124 32.4132 45.9121ZM32.9619 41.8153H35.9613V44.8147H32.9619V41.8153Z" fill="#F7C4AC"/>
<path d="M50 65C50 56.7157 56.7157 50 65 50C73.2843 50 80 56.7157 80 65C80 73.2843 73.2843 80 65 80C56.7157 80 50 73.2843 50 65Z" fill="#EF5926"/>
<g clip-path="url(#clip0_3878_65470)">
<path d="M72.3334 69.6667C72.3334 70.0203 72.1929 70.3594 71.9429 70.6095C71.6928 70.8595 71.3537 71 71.0001 71H59.0001C58.6465 71 58.3073 70.8595 58.0573 70.6095C57.8072 70.3594 57.6667 70.0203 57.6667 69.6667V62.3333C57.6667 61.9797 57.8072 61.6406 58.0573 61.3905C58.3073 61.1405 58.6465 61 59.0001 61H61.6667L63.0001 59H67.0001L68.3334 61H71.0001C71.3537 61 71.6928 61.1405 71.9429 61.3905C72.1929 61.6406 72.3334 61.9797 72.3334 62.3333V69.6667Z" stroke="white" stroke-width="2" stroke-linecap="round" stroke-linejoin="round"/>
<path d="M65.0001 68.3333C66.4728 68.3333 67.6667 67.1394 67.6667 65.6667C67.6667 64.1939 66.4728 63 65.0001 63C63.5273 63 62.3334 64.1939 62.3334 65.6667C62.3334 67.1394 63.5273 68.3333 65.0001 68.3333Z" stroke="white" stroke-width="2" stroke-linecap="round" stroke-linejoin="round"/>
</g>
<rect x="0.5" y="0.5" width="79" height="79" rx="39.5" stroke="#F7C4AC"/>
<defs>
<clipPath id="clip0_3878_65470">
<rect width="16" height="16" fill="white" transform="translate(57 57)"/>
</clipPath>
</defs>
</svg>
