<svg xmlns="http://www.w3.org/2000/svg" width="32.624" height="36" viewBox="0 0 32.624 36"><defs><style>.a{fill:#f84400;}</style></defs><g transform="translate(-1632.688 -1171)"><g transform="translate(1633.61 1176.915)"><g transform="translate(7.425 1.748)"><rect class="a" width="1.57" height="0.535" transform="translate(7.182 16.564)"/><path class="a" d="M25.775,45.086V46.95a.187.187,0,0,1-.187.187H22.294a.187.187,0,0,1-.187-.187V45.086a.187.187,0,0,1,.187-.187h.529v-.529a.187.187,0,0,1,.187-.187h1.863a.187.187,0,0,1,.187.187V44.9h.529A.187.187,0,0,1,25.775,45.086Z" transform="translate(-15.975 -26.461)"/><path class="a" d="M22.861,8.256l-1.21-.3a.666.666,0,0,1-.466-.414,3.573,3.573,0,0,0-.16-.391.648.648,0,0,1,.033-.622l.65-1.064a.654.654,0,0,0-.094-.791L20.431,3.495A.642.642,0,0,0,19.64,3.4l-1.064.655a.694.694,0,0,1-.631.028c-.122-.057-.25-.113-.377-.165a.653.653,0,0,1-.429-.457l-.292-1.22a.641.641,0,0,0-.626-.494H14.554a.651.651,0,0,0-.631.494l-.3,1.22a.656.656,0,0,1-.414.466,3.732,3.732,0,0,0-.377.155.694.694,0,0,1-.631-.028L11.14,3.4a.642.642,0,0,0-.791.094L9.167,4.677a.641.641,0,0,0-.1.8l.655,1.064a.669.669,0,0,1,.028.626,3.814,3.814,0,0,0-.155.381.666.666,0,0,1-.466.414l-1.21.3a.645.645,0,0,0-.494.631v1.658a.642.642,0,0,0,.494.631l1.21.3a.676.676,0,0,1,.466.414,3.894,3.894,0,0,0,.155.386.66.66,0,0,1-.028.622l-.655,1.064a.649.649,0,0,0,.1.8l1.182,1.177a.642.642,0,0,0,.791.094l1.064-.655a.68.68,0,0,1,.631-.024c.122.052.25.108.377.155a.649.649,0,0,1,.414.461l.3,1.22a.651.651,0,0,0,.631.494h1.667a.641.641,0,0,0,.626-.494l.292-1.22a.662.662,0,0,1,.429-.457c.127-.052.254-.108.377-.16a.68.68,0,0,1,.631.024l1.064.655a.642.642,0,0,0,.791-.094l1.182-1.177a.662.662,0,0,0,.094-.8l-.65-1.06a.658.658,0,0,1-.033-.626,3.229,3.229,0,0,0,.16-.391.676.676,0,0,1,.466-.414l1.21-.3a.642.642,0,0,0,.494-.631V8.887A.645.645,0,0,0,22.861,8.256Zm-7.478,4.879a3.419,3.419,0,1,1,3.424-3.419A3.415,3.415,0,0,1,15.383,13.135Z" transform="translate(-7.425 -1.748)"/></g></g><g transform="translate(4495.688 54.5)"><path class="a" d="M36.969,7.28h0c-7.511-.721-11.76-4.059-11.76-4.1a2.923,2.923,0,0,0-3.756,0c-.038.038-4.287,3.376-11.8,4.1A2.927,2.927,0,0,0,7,10.2C7,31.444,21.529,38.007,22.136,38.273a3.152,3.152,0,0,0,2.352,0c.607-.266,15.136-6.828,15.136-28.072A2.927,2.927,0,0,0,36.969,7.28ZM31.544,28.448c-7.836,8.475-8.29,8.764-16.464,0-2.769-3.983-5.159-9.863-5.121-18.285A27.788,27.788,0,0,0,23.388,5.421c.19.152,4.932,3.945,13.315,4.742l.076.076A32.409,32.409,0,0,1,31.544,28.448Z" transform="translate(-2870 1114)"/></g></g></svg>