<svg xmlns="http://www.w3.org/2000/svg" width="85.077" height="93.882" viewBox="0 0 85.077 93.882"><defs><style>.a{fill:#f84400;}</style></defs><g transform="translate(0)"><g transform="translate(21.766 19.983)"><g transform="translate(0 0)"><rect class="a" width="4.095" height="1.394" transform="translate(18.728 43.196)"/><path class="a" d="M31.671,46.536V51.4a.487.487,0,0,1-.487.487h-8.59a.487.487,0,0,1-.487-.487V46.536a.487.487,0,0,1,.487-.487h1.379V44.671a.487.487,0,0,1,.487-.487h4.859a.487.487,0,0,1,.487.487V46.05h1.379A.487.487,0,0,1,31.671,46.536Z" transform="translate(-6.116 2.036)"/><path class="a" d="M47.68,18.72l-3.156-.774a1.736,1.736,0,0,1-1.216-1.081,9.318,9.318,0,0,0-.417-1.019,1.69,1.69,0,0,1,.086-1.621l1.695-2.775a1.705,1.705,0,0,0-.246-2.063L41.344,6.3a1.673,1.673,0,0,0-2.063-.246L36.505,7.765a1.81,1.81,0,0,1-1.646.074c-.319-.147-.651-.295-.982-.43a1.7,1.7,0,0,1-1.117-1.191L32,3.037a1.672,1.672,0,0,0-1.633-1.289H26.017a1.7,1.7,0,0,0-1.646,1.289L23.6,6.218a1.71,1.71,0,0,1-1.081,1.216,9.733,9.733,0,0,0-.982.405,1.81,1.81,0,0,1-1.646-.074L17.114,6.058a1.673,1.673,0,0,0-2.063.246L11.968,9.386a1.672,1.672,0,0,0-.258,2.075l1.707,2.775a1.744,1.744,0,0,1,.074,1.633,9.945,9.945,0,0,0-.405.995,1.736,1.736,0,0,1-1.216,1.081l-3.156.774a1.683,1.683,0,0,0-1.289,1.646v4.323a1.673,1.673,0,0,0,1.289,1.646l3.156.774a1.763,1.763,0,0,1,1.216,1.081,10.154,10.154,0,0,0,.405,1.007,1.721,1.721,0,0,1-.074,1.621l-1.707,2.775a1.692,1.692,0,0,0,.258,2.088l3.082,3.07a1.673,1.673,0,0,0,2.063.246l2.775-1.707a1.773,1.773,0,0,1,1.646-.061c.319.135.651.282.982.405a1.692,1.692,0,0,1,1.081,1.2l.774,3.181a1.7,1.7,0,0,0,1.646,1.289h4.347A1.672,1.672,0,0,0,32,42.016l.761-3.181a1.726,1.726,0,0,1,1.117-1.191c.332-.135.663-.283.982-.418a1.773,1.773,0,0,1,1.646.061l2.775,1.707a1.673,1.673,0,0,0,2.063-.246l3.082-3.07a1.725,1.725,0,0,0,.246-2.075l-1.695-2.763a1.716,1.716,0,0,1-.086-1.633,8.42,8.42,0,0,0,.417-1.019,1.763,1.763,0,0,1,1.216-1.081l3.156-.774a1.673,1.673,0,0,0,1.289-1.646V20.365A1.683,1.683,0,0,0,47.68,18.72Zm-19.5,12.723a8.916,8.916,0,1,1,8.928-8.916A8.9,8.9,0,0,1,28.179,31.442Z" transform="translate(-7.425 -1.748)"/></g></g><g transform="translate(0 0)"><path class="a" d="M85.153,14.965h0C65.565,13.085,54.485,4.38,54.485,4.281a7.624,7.624,0,0,0-9.794,0c-.1.1-11.179,8.8-30.766,10.684A7.634,7.634,0,0,0,7,22.582C7,77.982,44.889,95.1,46.472,95.789a8.219,8.219,0,0,0,6.133,0c1.583-.692,39.472-17.807,39.472-73.206A7.634,7.634,0,0,0,85.153,14.965Zm-14.147,55.2c-20.434,22.1-21.619,22.854-42.934,0C20.85,59.779,14.617,44.445,14.716,22.483c22.358-2.176,34.625-12.366,35.02-12.366.495.4,12.861,10.288,34.723,12.366l.2.2C84.658,44.544,78.216,58.375,71.006,70.167Z" transform="translate(-7 -2.5)"/></g></g></svg>