<svg xmlns="http://www.w3.org/2000/svg" xmlns:xlink="http://www.w3.org/1999/xlink" width="74.469" height="66.645" viewBox="0 0 74.469 66.645"><defs><style>.a{stroke:#000;}.b{filter:url(#e);}.c{filter:url(#c);}.d{filter:url(#a);}</style><filter id="a" x="10.2" y="0" width="49.463" height="64.208" filterUnits="userSpaceOnUse"><feOffset dx="2" dy="2" input="SourceAlpha"/><feGaussianBlur stdDeviation="3" result="b"/><feFlood flood-opacity="0.502"/><feComposite operator="in" in2="b"/><feComposite in="SourceGraphic"/></filter><filter id="c" x="22.312" y="5.708" width="52.157" height="58.52" filterUnits="userSpaceOnUse"><feOffset dx="2" dy="2" input="SourceAlpha"/><feGaussianBlur stdDeviation="3" result="d"/><feFlood flood-opacity="0.502"/><feComposite operator="in" in2="d"/><feComposite in="SourceGraphic"/></filter><filter id="e" x="0" y="32.208" width="34.003" height="34.437" filterUnits="userSpaceOnUse"><feOffset dx="2" dy="2" input="SourceAlpha"/><feGaussianBlur stdDeviation="3" result="f"/><feFlood flood-opacity="0.502"/><feComposite operator="in" in2="f"/><feComposite in="SourceGraphic"/></filter></defs><g transform="translate(7.5 7.5)"><g transform="translate(10.203)"><g class="d" transform="matrix(1, 0, 0, 1, -17.7, -7.5)"><path class="a" d="M22.833,129.1a14.324,14.324,0,0,1-6.189-1.5,1.26,1.26,0,0,1-.6-1.1v-5.146c0-.771-.542-1.541-2.084-1.541h-.208l-.521.021c-2.9,0-4.959-.6-5.126-1.5a32.576,32.576,0,0,1,.063-6.708.661.661,0,0,0-.438-.708,31.156,31.156,0,0,1-3.334-1.583.914.914,0,0,1-.521-.583,1,1,0,0,1,.146-.708c3.772-5.854,4.022-7.583,4.042-7.812,1.479-12.6,11.648-13.6,14.732-13.6l.75.021h.333A19.672,19.672,0,0,1,31.9,88.411a.721.721,0,0,0,.917-.333.686.686,0,0,0-.313-.917,21.526,21.526,0,0,0-8.627-1.9h-.313c-.188-.021-.458-.021-.771-.021-3.376,0-14.482,1.083-16.107,14.833,0,.063-.229,1.625-3.792,7.188a2.381,2.381,0,0,0-.375,1.771A2.352,2.352,0,0,0,3.7,110.515a27.482,27.482,0,0,0,3.042,1.479,29,29,0,0,0,0,6.6c.438,2.25,4.251,2.6,6.48,2.6l.625-.021h.1c.438,0,.667.1.708.167v5.146a2.642,2.642,0,0,0,1.292,2.292,15.483,15.483,0,0,0,6.814,1.667h.042a.7.7,0,0,0,.688-.646A.681.681,0,0,0,22.833,129.1Z" transform="translate(15.24 -77.74)"/></g></g><g transform="translate(22.319 5.708)"><g class="c" transform="matrix(1, 0, 0, 1, -29.82, -13.21)"><path class="a" d="M36.178,98.747c-.063-12.854-12.94-13.208-14.419-13.208h-.25l-.688-.021c-2.959,0-12.69.938-14.086,12.979,0,.062-.229,1.417-3.313,6.229a2.224,2.224,0,0,0-.333,1.583,2.19,2.19,0,0,0,1.084,1.354,21.984,21.984,0,0,0,2.584,1.271,25.948,25.948,0,0,0,.021,5.687c.4,2.042,3.751,2.333,5.73,2.333h.521l.1-.021a5.317,5.317,0,0,1,.542.063v4.479a2.484,2.484,0,0,0,1.146,2.1,14.822,14.822,0,0,0,7.022,1.458,14.842,14.842,0,0,0,6.939-1.438,2.209,2.209,0,0,0,1.063-2.229,14.644,14.644,0,0,1,.938-7.937,9.9,9.9,0,0,1,1.5-2.167c1.729-2.146,3.917-4.792,3.917-12.437Zm-1.354.083c0,7.167-2.021,9.6-3.626,11.562a11.755,11.755,0,0,0-1.667,2.479,15.963,15.963,0,0,0-1.042,8.687.833.833,0,0,1-.375.854c-2.98,1.708-9.669,1.687-12.586-.021a1.041,1.041,0,0,1-.5-.917V117c0-.687-.5-1.417-1.9-1.417l-.188.021h-.438c-2.438,0-4.251-.5-4.4-1.229a28.52,28.52,0,0,1,.063-5.812.64.64,0,0,0-.438-.708,21.5,21.5,0,0,1-2.876-1.375.725.725,0,0,1-.417-.458.683.683,0,0,1,.125-.521v-.021c3.292-5.146,3.522-6.646,3.522-6.854,1.271-10.9,10.064-11.729,12.732-11.729h.938c2.167,0,13,.563,13.065,11.854h.667Z" transform="translate(26.77 -72.31)"/></g></g><g transform="translate(0 32.208)"><g class="b" transform="matrix(1, 0, 0, 1, -7.5, -39.71)"><path class="a" d="M10.417,86.79V93.6h6.564v1.75H10.417v6.875H8.542V95.352H1.978V93.6H8.542V86.79Z" transform="translate(5.52 -47.08)"/></g></g></g></svg>