<svg xmlns="http://www.w3.org/2000/svg" xmlns:xlink="http://www.w3.org/1999/xlink" width="186.33" height="202.078" viewBox="0 0 186.33 202.078">
  <defs>
    <filter id="Subtraction_1" x="9.736" y="0" width="176" height="175.992" filterUnits="userSpaceOnUse">
      <feOffset dx="4" dy="4" input="SourceAlpha"/>
      <feGaussianBlur stdDeviation="4" result="blur"/>
      <feFlood flood-color="#282828" flood-opacity="0.749"/>
      <feComposite operator="in" in2="blur"/>
      <feComposite in="SourceGraphic"/>
    </filter>
  </defs>
  <g id="Component_101_1" data-name="Component 101 – 1" transform="translate(18.236 8.5)">
    <path id="Path_223" data-name="Path 223" d="M520.921,187.775a95.9,95.9,0,0,0,37.035,22.257c6.173,2.636,12.345,3.222,18.517,4.783l18.518,1.582,18.518-1.5c6.172-1.6,12.344-2.109,18.517-4.764a95.269,95.269,0,0,0,37.035-22.355,95.029,95.029,0,0,0-37.035-22.356c-6.173-2.655-12.345-3.163-18.517-4.764l-18.518-1.5-18.518,1.581c-6.172,1.543-12.344,2.128-18.517,4.784A95.655,95.655,0,0,0,520.921,187.775Z" transform="translate(-519.063 -39.914)" style="mix-blend-mode: multiply;isolation: isolate"/>
    <g transform="matrix(1, 0, 0, 1, -18.24, -8.5)" filter="url(#Subtraction_1)">
      <path id="Subtraction_1-2" data-name="Subtraction 1" d="M15.17,148.978h0A16,16,0,0,1,0,133V14A16,16,0,0,1,16-2H135a16,16,0,0,1,16,16V133a16,16,0,0,1-14.225,15.9,74.851,74.851,0,0,0-26.044-22.827,74.423,74.423,0,0,0-83.9,9.95,75,75,0,0,0-11.665,12.952Z" transform="translate(18.24 10.5)" fill="#ef5926" stroke="rgba(0,0,0,0)" stroke-width="1"/>
    </g>
    <path id="Path_229" data-name="Path 229" d="M520.921,187.775a95.9,95.9,0,0,0,37.035,22.257c6.173,2.636,12.345,3.222,18.517,4.783l18.518,1.582,18.518-1.5c6.172-1.6,12.344-2.109,18.517-4.764a95.269,95.269,0,0,0,37.035-22.355,95.029,95.029,0,0,0-37.035-22.356c-6.173-2.655-12.345-3.163-18.517-4.764l-18.518-1.5-18.518,1.581c-6.172,1.543-12.344,2.128-18.517,4.784A95.655,95.655,0,0,0,520.921,187.775Z" transform="translate(-520.063 -41.914)" style="mix-blend-mode: overlay;isolation: isolate"/>
  </g>
</svg>
