<svg width="80" height="80" viewBox="0 0 80 80" fill="none" xmlns="http://www.w3.org/2000/svg">
<rect x="0.5" y="0.5" width="79" height="79" rx="39.5" fill="#FCF3EC"/>
<path d="M53.3334 55V51.6667C53.3334 49.8986 52.631 48.2029 51.3808 46.9526C50.1305 45.7024 48.4349 45 46.6667 45H33.3334C31.5653 45 29.8696 45.7024 28.6194 46.9526C27.3691 48.2029 26.6667 49.8986 26.6667 51.6667V55M46.6667 31.6667C46.6667 35.3486 43.682 38.3333 40.0001 38.3333C36.3182 38.3333 33.3334 35.3486 33.3334 31.6667C33.3334 27.9848 36.3182 25 40.0001 25C43.682 25 46.6667 27.9848 46.6667 31.6667Z" stroke="#F7C4AC" stroke-width="3" stroke-linecap="round" stroke-linejoin="round"/>
<rect x="0.5" y="0.5" width="79" height="79" rx="39.5" stroke="#F7C4AC"/>
</svg>
