<svg width="16" height="14" viewBox="0 0 16 14" fill="none" xmlns="http://www.w3.org/2000/svg">
<path d="M10.6667 13V11.6667C10.6667 10.9594 10.3858 10.2811 9.8857 9.78105C9.3856 9.28095 8.70732 9 8.00008 9H3.33341C2.62617 9 1.94789 9.28095 1.4478 9.78105C0.9477 10.2811 0.666748 10.9594 0.666748 11.6667V13M12.0001 4.33333L15.3334 7.66667M15.3334 4.33333L12.0001 7.66667M8.33341 3.66667C8.33341 5.13943 7.13951 6.33333 5.66675 6.33333C4.19399 6.33333 3.00008 5.13943 3.00008 3.66667C3.00008 2.19391 4.19399 1 5.66675 1C7.13951 1 8.33341 2.19391 8.33341 3.66667Z" stroke="#152141" stroke-width="1.3" stroke-linecap="round" stroke-linejoin="round"/>
</svg>
