<svg width="20" height="18" viewBox="0 0 20 18" fill="none" xmlns="http://www.w3.org/2000/svg">
<path d="M6.66649 13.1666L9.99982 16.4999M9.99982 16.4999L13.3332 13.1666M9.99982 16.4999V8.99994M17.3998 14.0749C18.1243 13.5655 18.6676 12.8384 18.9509 11.9992C19.2342 11.1601 19.2427 10.2525 18.9752 9.40813C18.7076 8.56381 18.178 7.82669 17.4632 7.30375C16.7484 6.78081 15.8855 6.49925 14.9998 6.49994H13.9498C13.6992 5.52317 13.2302 4.61598 12.5783 3.84668C11.9263 3.07737 11.1083 2.46599 10.1858 2.05857C9.26338 1.65115 8.26053 1.4583 7.25276 1.49454C6.245 1.53078 5.25858 1.79517 4.36778 2.2678C3.47698 2.74043 2.70501 3.40898 2.10998 4.22314C1.51495 5.03729 1.11237 5.97582 0.93254 6.96807C0.752714 7.96032 0.800331 8.98044 1.07181 9.95163C1.34328 10.9228 1.83154 11.8198 2.49982 12.5749" stroke="#667085" stroke-width="1.66667" stroke-linecap="round" stroke-linejoin="round"/>
</svg>
