<svg width="30" height="30" viewBox="0 0 30 30" fill="none" xmlns="http://www.w3.org/2000/svg">
<rect width="30" height="30" rx="15" fill="#EF5926"/>
<path d="M14.3334 9.66667H9.66671C9.31309 9.66667 8.97395 9.80715 8.7239 10.0572C8.47385 10.3072 8.33337 10.6464 8.33337 11V20.3333C8.33337 20.687 8.47385 21.0261 8.7239 21.2761C8.97395 21.5262 9.31309 21.6667 9.66671 21.6667H19C19.3537 21.6667 19.6928 21.5262 19.9428 21.2761C20.1929 21.0261 20.3334 20.687 20.3334 20.3333V15.6667M19.3334 8.66667C19.5986 8.40145 19.9583 8.25246 20.3334 8.25246C20.7084 8.25246 21.0682 8.40145 21.3334 8.66667C21.5986 8.93189 21.7476 9.2916 21.7476 9.66667C21.7476 10.0417 21.5986 10.4015 21.3334 10.6667L15 17L12.3334 17.6667L13 15L19.3334 8.66667Z" stroke="white" stroke-width="2" stroke-linecap="round" stroke-linejoin="round"/>
</svg>
