<svg width="80" height="80" viewBox="0 0 80 80" fill="none" xmlns="http://www.w3.org/2000/svg">
<rect x="0.5" y="0.5" width="79" height="79" rx="39.5" fill="#FCF3EC"/>
<path d="M57.8311 36.8926V22.9134C57.8308 22.6711 57.7343 22.4388 57.5628 22.2675C57.3913 22.0963 57.1589 22 56.9166 22H39.7876C39.5453 22 39.3128 22.0963 39.1414 22.2675C38.9699 22.4388 38.8734 22.6711 38.8731 22.9134V28.9829H22.9145C22.7943 28.9829 22.6753 29.0066 22.5643 29.0526C22.4532 29.0986 22.3524 29.1661 22.2674 29.2512C22.1825 29.3362 22.1152 29.4371 22.0693 29.5482C22.0234 29.6593 21.9999 29.7783 22 29.8985V57.8255C22 57.9456 22.0236 58.0645 22.0696 58.1755C22.1155 58.2864 22.1829 58.3872 22.2679 58.4721C22.3528 58.5571 22.4536 58.6245 22.5645 58.6704C22.6755 58.7164 22.7944 58.74 22.9145 58.74H56.948C57.0681 58.74 57.1869 58.7164 57.2979 58.6704C57.4089 58.6245 57.5097 58.5571 57.5947 58.4721C57.6796 58.3872 57.7469 58.2864 57.7929 58.1755C57.8388 58.0645 57.8153 57.9442 57.8153 57.8241V38.7228L57.8311 36.8926ZM23.8279 30.8108H38.872V56.9088H33.974V48.7623C33.9737 48.6165 33.9156 48.4769 33.8126 48.3738C33.7095 48.2708 33.5699 48.2127 33.4241 48.2124H29.2724C29.1267 48.2127 28.987 48.2708 28.8839 48.3738C28.7809 48.4769 28.7228 48.6165 28.7225 48.7623V56.9088H23.8234L23.8279 30.8108ZM29.8256 49.311H32.8743V57.2779H29.8256V49.311ZM55.9897 37.8082V56.9099H50.7315V48.7634C50.7315 48.6177 50.6738 48.4781 50.5709 48.375C50.468 48.2719 50.3284 48.2138 50.1828 48.2135H46.031C45.8855 48.2141 45.7461 48.2723 45.6433 48.3753C45.5404 48.4783 45.4826 48.6178 45.4823 48.7634V56.9099H40.6988V23.8302H55.9975V37.6983C55.9926 37.7348 55.99 37.7715 55.9897 37.8082ZM46.5842 57.2757V49.3087H49.6329V57.2757H46.5842Z" fill="#F7C4AC"/>
<path d="M47.3495 27.2988H43.2515C43.1059 27.2991 42.9664 27.3572 42.8635 27.4603C42.7606 27.5633 42.7029 27.703 42.7029 27.8486V31.9466C42.7029 32.0186 42.7171 32.0899 42.7447 32.1564C42.7722 32.2229 42.8127 32.2833 42.8636 32.3342C42.9146 32.3851 42.9751 32.4254 43.0417 32.4528C43.1083 32.4803 43.1795 32.4943 43.2515 32.4942H47.3495C47.4215 32.4943 47.4929 32.4803 47.5594 32.4528C47.626 32.4254 47.6865 32.3851 47.7374 32.3342C47.7884 32.2833 47.8288 32.2229 47.8564 32.1564C47.884 32.0899 47.8982 32.0186 47.8982 31.9466V27.8486C47.8982 27.703 47.8404 27.5633 47.7376 27.4603C47.6347 27.3572 47.4951 27.2991 47.3495 27.2988V27.2988ZM46.8008 31.3967H43.8003V28.3974H46.8008V31.3967Z" fill="#F7C4AC"/>
<path d="M53.575 27.2988H49.4815C49.3359 27.2991 49.1963 27.3572 49.0935 27.4603C48.9906 27.5633 48.9329 27.703 48.9329 27.8487V31.9466C48.9329 32.0186 48.947 32.0899 48.9746 32.1564C49.0022 32.2229 49.0426 32.2833 49.0936 32.3342C49.1446 32.3851 49.2051 32.4254 49.2717 32.4528C49.3382 32.4803 49.4095 32.4943 49.4815 32.4942H53.5795C53.6515 32.4943 53.7228 32.4803 53.7894 32.4528C53.856 32.4254 53.9164 32.3851 53.9674 32.3342C54.0184 32.2833 54.0588 32.2229 54.0864 32.1564C54.114 32.0899 54.1282 32.0186 54.1282 31.9466V27.8487C54.1282 27.7762 54.1139 27.7044 54.086 27.6375C54.0582 27.5706 54.0174 27.5098 53.966 27.4587C53.9146 27.4076 53.8536 27.3672 53.7865 27.3397C53.7194 27.3123 53.6475 27.2984 53.575 27.2988ZM53.0251 31.3967H50.0258V28.3974H53.0251V31.3967Z" fill="#F7C4AC"/>
<path d="M47.3495 34.0098H43.2515C43.1062 34.0098 42.9668 34.0674 42.864 34.1701C42.7611 34.2728 42.7032 34.4121 42.7029 34.5574V38.6542C42.7027 38.7264 42.7168 38.7978 42.7443 38.8645C42.7718 38.9312 42.8122 38.9918 42.8631 39.0429C42.9141 39.0939 42.9747 39.1345 43.0413 39.1621C43.108 39.1898 43.1794 39.204 43.2515 39.204H47.3495C47.4217 39.204 47.4931 39.1898 47.5598 39.1621C47.6264 39.1345 47.6869 39.0939 47.7379 39.0429C47.7889 38.9918 47.8292 38.9312 47.8567 38.8645C47.8842 38.7978 47.8984 38.7264 47.8982 38.6542V34.5574C47.8979 34.4121 47.84 34.2728 47.7371 34.1701C47.6342 34.0674 47.4948 34.0098 47.3495 34.0098V34.0098ZM46.8008 38.1055H43.8003V35.1061H46.8008V38.1055Z" fill="#F7C4AC"/>
<path d="M53.575 34.0098H49.4815C49.3362 34.0098 49.1968 34.0675 49.0939 34.1701C48.9911 34.2728 48.9332 34.4121 48.9329 34.5574V38.6542C48.9327 38.7264 48.9468 38.7978 48.9743 38.8646C49.0018 38.9313 49.0422 38.9918 49.0931 39.0429C49.1441 39.094 49.2047 39.1345 49.2713 39.1621C49.338 39.1898 49.4094 39.204 49.4815 39.204H53.5795C53.6516 39.204 53.7231 39.1898 53.7897 39.1621C53.8564 39.1345 53.9169 39.094 53.9679 39.0429C54.0188 38.9918 54.0592 38.9313 54.0867 38.8646C54.1142 38.7978 54.1284 38.7264 54.1282 38.6542V34.5574C54.1281 34.4851 54.1136 34.4135 54.0857 34.3467C54.0578 34.28 54.0169 34.2194 53.9655 34.1685C53.9141 34.1176 53.8531 34.0774 53.7861 34.0502C53.7191 34.023 53.6473 34.0092 53.575 34.0098V34.0098ZM53.0251 38.1055H50.0258V35.1061H53.0251V38.1055Z" fill="#F7C4AC"/>
<path d="M47.3495 40.7168H43.2515C43.1059 40.7171 42.9664 40.7752 42.8635 40.8783C42.7606 40.9814 42.7029 41.1211 42.7029 41.2667V45.3646C42.7029 45.4366 42.7171 45.5079 42.7447 45.5744C42.7722 45.6409 42.8127 45.7013 42.8636 45.7522C42.9146 45.803 42.9751 45.8433 43.0417 45.8708C43.1083 45.8982 43.1795 45.9123 43.2515 45.9122H47.3495C47.4215 45.9123 47.4929 45.8982 47.5594 45.8708C47.626 45.8433 47.6865 45.803 47.7374 45.7522C47.7884 45.7013 47.8288 45.6409 47.8564 45.5744C47.884 45.5079 47.8982 45.4366 47.8982 45.3646V41.2689C47.8985 41.1966 47.8845 41.125 47.8571 41.0581C47.8296 40.9912 47.7894 40.9303 47.7384 40.879C47.6874 40.8278 47.6268 40.787 47.5601 40.7592C47.4934 40.7314 47.4218 40.7169 47.3495 40.7168V40.7168ZM46.8008 44.8148H43.8003V41.8153H46.8008V44.8148Z" fill="#F7C4AC"/>
<path d="M53.575 40.7168H49.4815C49.3359 40.7171 49.1963 40.7752 49.0935 40.8783C48.9906 40.9814 48.9329 41.1211 48.9329 41.2667V45.3646C48.9329 45.4366 48.947 45.5079 48.9746 45.5744C49.0022 45.6409 49.0426 45.7013 49.0936 45.7522C49.1446 45.803 49.2051 45.8433 49.2717 45.8708C49.3382 45.8982 49.4095 45.9123 49.4815 45.9122H53.5795C53.6515 45.9123 53.7228 45.8982 53.7894 45.8708C53.856 45.8433 53.9164 45.803 53.9674 45.7522C54.0184 45.7013 54.0588 45.6409 54.0864 45.5744C54.114 45.5079 54.1282 45.4366 54.1282 45.3646V41.2689C54.1285 41.1962 54.1144 41.1242 54.0866 41.0571C54.0589 40.9899 54.0182 40.9288 53.9667 40.8775C53.9153 40.8261 53.8542 40.7855 53.7869 40.7579C53.7197 40.7303 53.6476 40.7164 53.575 40.7168ZM53.0251 44.8148H50.0258V41.8154H53.0251V44.8148Z" fill="#F7C4AC"/>
<path d="M26.192 39.204H30.2934C30.3655 39.204 30.4368 39.1898 30.5034 39.1621C30.57 39.1345 30.6305 39.0939 30.6813 39.0428C30.7322 38.9917 30.7725 38.9311 30.7999 38.8644C30.8273 38.7977 30.8412 38.7263 30.8409 38.6542V34.5574C30.8409 34.4855 30.8268 34.4143 30.7993 34.3478C30.7718 34.2814 30.7314 34.221 30.6806 34.1702C30.6297 34.1193 30.5694 34.079 30.5029 34.0515C30.4365 34.024 30.3653 34.0098 30.2934 34.0098H26.1955C26.0501 34.0098 25.9107 34.0674 25.8078 34.1701C25.7049 34.2728 25.647 34.4121 25.6467 34.5574V38.6542C25.6464 38.7993 25.7036 38.9387 25.8058 39.0417C25.908 39.1448 26.0469 39.2031 26.192 39.204ZM26.7408 35.1061H29.7402V38.1055H26.7408V35.1061Z" fill="#F7C4AC"/>
<path d="M32.4132 39.204H36.51C36.5821 39.204 36.6536 39.1898 36.7202 39.1621C36.7869 39.1345 36.8474 39.0939 36.8984 39.0429C36.9493 38.9918 36.9897 38.9312 37.0173 38.8645C37.0448 38.7978 37.0588 38.7264 37.0587 38.6542V34.5574C37.0584 34.4121 37.0005 34.2728 36.8976 34.1701C36.7947 34.0674 36.6553 34.0098 36.51 34.0098H32.4132C32.2678 34.0098 32.1285 34.0674 32.0256 34.1701C31.9227 34.2728 31.8648 34.4121 31.8645 34.5574V38.6542C31.8644 38.7264 31.8784 38.7978 31.9059 38.8645C31.9334 38.9312 31.9738 38.9918 32.0248 39.0429C32.0757 39.0939 32.1363 39.1345 32.203 39.1621C32.2696 39.1898 32.341 39.204 32.4132 39.204V39.204ZM32.9619 35.1061H35.9613V38.1055H32.9619V35.1061Z" fill="#F7C4AC"/>
<path d="M30.2934 45.9118C30.3653 45.912 30.4366 45.8979 30.5031 45.8705C30.5696 45.843 30.63 45.8027 30.6809 45.7518C30.7317 45.7009 30.7721 45.6405 30.7996 45.574C30.827 45.5075 30.8411 45.4362 30.8409 45.3643V41.2686C30.8411 41.1965 30.8271 41.1251 30.7996 41.0585C30.7722 40.9919 30.7318 40.9313 30.681 40.8802C30.6302 40.8292 30.5698 40.7886 30.5033 40.7609C30.4368 40.7332 30.3654 40.7189 30.2934 40.7188H26.1955C26.0498 40.719 25.9102 40.7771 25.8073 40.8802C25.7045 40.9833 25.6467 41.1229 25.6467 41.2686V45.3665C25.6467 45.4386 25.6609 45.5098 25.6885 45.5763C25.7161 45.6428 25.7565 45.7033 25.8075 45.7541C25.8584 45.805 25.919 45.8453 25.9855 45.8727C26.0521 45.9002 26.1234 45.9143 26.1955 45.9141L30.2934 45.9118ZM26.7441 41.815H29.7435V44.8145H26.7441V41.815Z" fill="#F7C4AC"/>
<path d="M32.4132 45.9118H36.51C36.582 45.912 36.6533 45.8979 36.7199 45.8705C36.7864 45.843 36.847 45.8027 36.8979 45.7519C36.9489 45.701 36.9893 45.6406 37.0169 45.5741C37.0445 45.5076 37.0587 45.4363 37.0587 45.3643V41.2686C37.0587 41.1229 37.001 40.9833 36.8981 40.8802C36.7952 40.7771 36.6556 40.719 36.51 40.7188H32.4132C32.2675 40.719 32.128 40.7771 32.0251 40.8802C31.9222 40.9833 31.8645 41.1229 31.8645 41.2686V45.3665C31.8651 45.5116 31.9232 45.6504 32.0261 45.7527C32.1289 45.8549 32.2681 45.9121 32.4132 45.9118V45.9118ZM32.9619 41.815H35.9613V44.8145H32.9619V41.815Z" fill="#F7C4AC"/>
<rect x="0.5" y="0.5" width="79" height="79" rx="39.5" stroke="#F7C4AC"/>
</svg>
