<svg width="42" height="42" viewBox="0 0 42 42" fill="none" xmlns="http://www.w3.org/2000/svg">
<rect x="3" y="3" width="36" height="36" rx="18" fill="#F9DFC8"/>
<path d="M17 17H18V19H17V17Z" fill="#EF5926"/>
<path d="M17 20H18V22H17V20Z" fill="#EF5926"/>
<path d="M20 17H21V19H20V17Z" fill="#EF5926"/>
<path d="M20 20H21V22H20V20Z" fill="#EF5926"/>
<path d="M17 23H18V25H17V23Z" fill="#EF5926"/>
<path d="M20 23H21V25H20V23Z" fill="#EF5926"/>
<path d="M28 20C28 19.7348 27.8946 19.4804 27.7071 19.2929C27.5196 19.1054 27.2652 19 27 19H24V15C24 14.7348 23.8946 14.4804 23.7071 14.2929C23.5196 14.1054 23.2652 14 23 14H15C14.7348 14 14.4804 14.1054 14.2929 14.2929C14.1054 14.4804 14 14.7348 14 15V28H28V20ZM15 15H23V27H15V15ZM24 27V20H27V27H24Z" fill="#EF5926"/>
<rect x="3" y="3" width="36" height="36" rx="18" stroke="#FCF3EC" stroke-width="6"/>
</svg>
