<svg width="46" height="46" viewBox="0 0 46 46" fill="none" xmlns="http://www.w3.org/2000/svg">
<rect x="3" y="3" width="40" height="40" rx="20" fill="#F9DFC8"/>
<path d="M29.9938 30.55H31.4932V32.5H15V30.55H16.4994V13.975C16.4994 13.7164 16.5784 13.4684 16.719 13.2856C16.8596 13.1027 17.0502 13 17.2491 13H29.2441C29.4429 13 29.6336 13.1027 29.7742 13.2856C29.9148 13.4684 29.9938 13.7164 29.9938 13.975V30.55ZM28.4944 30.55V14.95H17.9988V30.55H28.4944ZM20.2478 21.775H22.4969V23.725H20.2478V21.775ZM20.2478 17.875H22.4969V19.825H20.2478V17.875ZM20.2478 25.675H22.4969V27.625H20.2478V25.675ZM23.9963 25.675H26.2454V27.625H23.9963V25.675ZM23.9963 21.775H26.2454V23.725H23.9963V21.775ZM23.9963 17.875H26.2454V19.825H23.9963V17.875Z" fill="#EF5926"/>
<rect x="3" y="3" width="40" height="40" rx="20" stroke="#FCF3EC" stroke-width="6"/>
</svg>
