<svg width="46" height="46" viewBox="0 0 46 46" fill="none" xmlns="http://www.w3.org/2000/svg">
<rect x="3" y="3" width="40" height="40" rx="20" fill="#F9DFC8"/>
<path d="M23 17C22.2089 17 21.4355 17.2346 20.7777 17.6741C20.1199 18.1136 19.6072 18.7384 19.3045 19.4693C19.0017 20.2002 18.9225 21.0044 19.0769 21.7804C19.2312 22.5563 19.6122 23.269 20.1716 23.8284C20.731 24.3878 21.4437 24.7688 22.2196 24.9231C22.9956 25.0775 23.7998 24.9983 24.5307 24.6955C25.2616 24.3928 25.8864 23.8801 26.3259 23.2223C26.7654 22.5645 27 21.7911 27 21C27 19.9391 26.5786 18.9217 25.8284 18.1716C25.0783 17.4214 24.0609 17 23 17ZM23 23.4C22.5253 23.4 22.0613 23.2592 21.6666 22.9955C21.272 22.7318 20.9643 22.357 20.7827 21.9184C20.601 21.4799 20.5535 20.9973 20.6461 20.5318C20.7387 20.0662 20.9673 19.6386 21.3029 19.3029C21.6386 18.9673 22.0662 18.7387 22.5318 18.6461C22.9973 18.5535 23.4799 18.601 23.9184 18.7827C24.357 18.9643 24.7318 19.272 24.9955 19.6666C25.2592 20.0613 25.4 20.5253 25.4 21C25.3994 21.6363 25.1463 22.2464 24.6964 22.6964C24.2464 23.1463 23.6363 23.3994 23 23.4Z" fill="#EF5926"/>
<path d="M23 14C21.22 14 19.4799 14.5278 17.9999 15.5168C16.5198 16.5057 15.3663 17.9113 14.6851 19.5558C14.0039 21.2004 13.8257 23.01 14.1729 24.7558C14.5202 26.5016 15.3774 28.1053 16.636 29.364C17.8947 30.6226 19.4984 31.4798 21.2442 31.8271C22.99 32.1743 24.7996 31.9961 26.4442 31.3149C28.0887 30.6337 29.4943 29.4802 30.4832 28.0001C31.4722 26.5201 32 24.78 32 23C31.9973 20.6139 31.0482 18.3263 29.361 16.639C27.6737 14.9518 25.3861 14.0027 23 14ZM19.1429 29.6709V28.7857C19.1434 28.2744 19.3467 27.7841 19.7083 27.4226C20.0699 27.061 20.5601 26.8577 21.0714 26.8571H24.9286C25.4399 26.8577 25.9301 27.061 26.2917 27.4226C26.6533 27.7841 26.8566 28.2744 26.8571 28.7857V29.6709C25.6866 30.3544 24.3555 30.7146 23 30.7146C21.6445 30.7146 20.3134 30.3544 19.1429 29.6709ZM28.1377 28.7381C28.1249 27.8949 27.7814 27.0905 27.1811 26.4982C26.5808 25.9058 25.7719 25.573 24.9286 25.5714H21.0714C20.2281 25.573 19.4192 25.9058 18.8189 26.4982C18.2187 27.0905 17.8751 27.8949 17.8623 28.7381C16.6965 27.6972 15.8744 26.3267 15.5048 24.8081C15.1353 23.2896 15.2356 21.6946 15.7927 20.2343C16.3498 18.7741 17.3372 17.5175 18.6243 16.6309C19.9114 15.7444 21.4374 15.2697 23.0003 15.2697C24.5632 15.2697 26.0892 15.7444 27.3763 16.6309C28.6634 17.5175 29.6509 18.7741 30.2079 20.2343C30.765 21.6946 30.8654 23.2896 30.4958 24.8081C30.1262 26.3267 29.3041 27.6972 28.1384 28.7381H28.1377Z" fill="#EF5926"/>
<rect x="3" y="3" width="40" height="40" rx="20" stroke="#FCF3EC" stroke-width="6"/>
</svg>
