<svg xmlns="http://www.w3.org/2000/svg" xmlns:xlink="http://www.w3.org/1999/xlink" width="116.985" height="116.985" viewBox="0 0 116.985 116.985"><defs><style>.a{fill:#fff;}.b{filter:url(#c);}.c{filter:url(#a);}</style><filter id="a" x="18.052" y="18.024" width="80.909" height="80.96" filterUnits="userSpaceOnUse"><feOffset dx="2" dy="2" input="SourceAlpha"/><feGaussianBlur stdDeviation="3" result="b"/><feFlood flood-opacity="0.502"/><feComposite operator="in" in2="b"/><feComposite in="SourceGraphic"/></filter><filter id="c" x="0" y="0" width="116.985" height="116.985" filterUnits="userSpaceOnUse"><feOffset dx="2" dy="2" input="SourceAlpha"/><feGaussianBlur stdDeviation="3" result="d"/><feFlood flood-opacity="0.502"/><feComposite operator="in" in2="d"/><feComposite in="SourceGraphic"/></filter></defs><g transform="translate(7 7)"><g transform="translate(264.358 283.212)"><g class="c" transform="matrix(1, 0, 0, 1, -271.36, -290.21)"><path class="a" d="M33.6,56.819a31.581,31.581,0,0,0-6.016,36l.228.41a31.9,31.9,0,0,0,5.788,8.112,31.484,31.484,0,1,0,0-44.525ZM30.593,92.184a16.352,16.352,0,0,1,7.337-9.889,9.233,9.233,0,0,0,5.788,2.051,9.459,9.459,0,0,0,5.833-2.051,16.337,16.337,0,0,1,6.79,8.294,19.2,19.2,0,0,0-4.011,11.3,13.237,13.237,0,0,0,1.139,5.514,28.019,28.019,0,0,1-17.728-8.2A27.3,27.3,0,0,1,30.593,92.184ZM43.718,81.338c-3.737,0-6.836-3.418-6.836-7.657a6.462,6.462,0,0,1,6.836-6.654,6.437,6.437,0,0,1,6.836,6.654C50.554,77.92,47.5,81.338,43.718,81.338ZM76.03,99.2a28.487,28.487,0,0,1-19.1,8.294,9.73,9.73,0,0,1-1.6-5.605,16.243,16.243,0,0,1,3.692-9.935l.273-.319a13.932,13.932,0,0,1,3.783-3.145,9.284,9.284,0,0,0,5.833,2.051,8.979,8.979,0,0,0,5.833-2.1,15.581,15.581,0,0,1,5.423,5.469A28.217,28.217,0,0,1,76.03,99.2ZM68.92,87.581c-3.783,0-6.836-3.418-6.836-7.656a6.837,6.837,0,0,1,13.672,0C75.756,84.163,72.7,87.581,68.92,87.581Zm12.806,3.372A17.878,17.878,0,0,0,76.8,86.259a11.1,11.1,0,0,0,1.96-6.335,9.47,9.47,0,0,0-9.844-9.707,9.433,9.433,0,0,0-9.8,9.707,11.306,11.306,0,0,0,1.914,6.335,23.37,23.37,0,0,0-2.461,1.869,18.655,18.655,0,0,0-6.927-8.112,11.305,11.305,0,0,0,1.914-6.335,9.471,9.471,0,0,0-9.844-9.707,9.471,9.471,0,0,0-9.844,9.707,11.246,11.246,0,0,0,1.96,6.38,18.794,18.794,0,0,0-6.973,8.021,28.47,28.47,0,1,1,52.865,2.871Z" transform="translate(0.61 -22.57)"/></g></g><g transform="translate(264.358 283.212)"><g class="b" transform="matrix(1, 0, 0, 1, -271.36, -290.21)"><path class="a" d="M121.53,95.184h-3.053A44.891,44.891,0,0,0,75.046,51.752V48.745a1.5,1.5,0,1,0-3.008,0v3.008A44.891,44.891,0,0,0,28.606,95.184H25.553a1.517,1.517,0,0,0-1.5,1.5,1.488,1.488,0,0,0,1.5,1.5h3.053a44.975,44.975,0,0,0,43.431,43.477v3.008a1.5,1.5,0,1,0,3.008,0v-3.008a44.975,44.975,0,0,0,43.431-43.477h3.053a1.488,1.488,0,0,0,1.5-1.5A1.517,1.517,0,0,0,121.53,95.184ZM103.256,126.4a41.95,41.95,0,0,1-28.21,12.214v-4.42a1.5,1.5,0,1,0-3.008,0v4.42A41.859,41.859,0,0,1,31.614,98.192H36.08a1.488,1.488,0,0,0,1.5-1.5,1.517,1.517,0,0,0-1.5-1.5H31.614A41.947,41.947,0,0,1,72.038,54.76v4.466a1.5,1.5,0,0,0,3.008,0V54.76a41.859,41.859,0,0,1,40.424,40.424h-4.421a1.488,1.488,0,0,0-1.5,1.5,1.461,1.461,0,0,0,1.5,1.5h4.421A41.861,41.861,0,0,1,103.256,126.4Z" transform="translate(-17.05 -40.2)"/></g></g></g></svg>