<svg xmlns="http://www.w3.org/2000/svg" width="33.672" height="33.672" viewBox="0 0 33.672 33.672"><defs><style>.a{fill:#f84400;stroke:#f84400;stroke-width:0.5px;}</style></defs><g transform="translate(0.25 0.25)"><g transform="translate(6.05 6.04)"><path class="a" d="M27.513,50.683A10.584,10.584,0,0,0,25.5,62.749l.076.137a10.692,10.692,0,0,0,1.94,2.719,10.551,10.551,0,1,0,0-14.921ZM26.505,62.535a5.48,5.48,0,0,1,2.459-3.314,3.094,3.094,0,0,0,1.94.687,3.17,3.17,0,0,0,1.955-.687A5.475,5.475,0,0,1,35.135,62a6.434,6.434,0,0,0-1.344,3.788,4.436,4.436,0,0,0,.382,1.848,9.39,9.39,0,0,1-5.941-2.749A9.15,9.15,0,0,1,26.505,62.535ZM30.9,58.9a2.447,2.447,0,0,1-2.291-2.566,2.292,2.292,0,0,1,4.582,0A2.436,2.436,0,0,1,30.9,58.9Zm10.828,5.987a9.547,9.547,0,0,1-6.4,2.78,3.261,3.261,0,0,1-.535-1.878,5.443,5.443,0,0,1,1.237-3.33l.092-.107A4.669,4.669,0,0,1,37.395,61.3a3.111,3.111,0,0,0,1.955.687,3.009,3.009,0,0,0,1.955-.7,5.222,5.222,0,0,1,1.817,1.833A9.456,9.456,0,0,1,41.732,64.887ZM39.35,60.992a2.436,2.436,0,0,1-2.291-2.566,2.291,2.291,0,0,1,4.582,0A2.436,2.436,0,0,1,39.35,60.992Zm4.292,1.13a5.991,5.991,0,0,0-1.649-1.573,3.719,3.719,0,0,0,.657-2.123,3.292,3.292,0,0,0-6.583,0,3.789,3.789,0,0,0,.641,2.123,7.833,7.833,0,0,0-.825.626,6.252,6.252,0,0,0-2.321-2.719,3.789,3.789,0,0,0,.641-2.123,3.3,3.3,0,0,0-6.6,0,3.769,3.769,0,0,0,.657,2.138,6.3,6.3,0,0,0-2.337,2.688,9.541,9.541,0,1,1,17.716.962Z" transform="translate(-24.445 -47.59)"/></g><path class="a" d="M56.717,63.277H55.694A15.044,15.044,0,0,0,41.139,48.722V47.714a.5.5,0,1,0-1.008,0v1.008A15.044,15.044,0,0,0,25.576,63.277H24.553a.508.508,0,0,0-.5.5.5.5,0,0,0,.5.5h1.023a15.072,15.072,0,0,0,14.555,14.57v1.008a.5.5,0,1,0,1.008,0V78.855a15.072,15.072,0,0,0,14.555-14.57h1.023a.5.5,0,0,0,.5-.5A.508.508,0,0,0,56.717,63.277ZM50.593,73.739a14.058,14.058,0,0,1-9.454,4.093V76.351a.5.5,0,1,0-1.008,0v1.481A14.028,14.028,0,0,1,26.584,64.285h1.5a.5.5,0,0,0,.5-.5.508.508,0,0,0-.5-.5h-1.5A14.057,14.057,0,0,1,40.131,49.73v1.5a.5.5,0,0,0,1.008,0v-1.5A14.028,14.028,0,0,1,54.686,63.277H53.2a.5.5,0,0,0-.5.5.49.49,0,0,0,.5.5h1.481A14.029,14.029,0,0,1,50.593,73.739Z" transform="translate(-24.049 -47.195)"/></g></svg>