<svg width="27" height="24" viewBox="0 0 27 24" fill="none" xmlns="http://www.w3.org/2000/svg">
<g clip-path="url(#clip0_551_20986)">
<path d="M2.11333 20.545L3.29656 22.5887C3.54243 23.019 3.89583 23.3571 4.31074 23.603C5.49921 22.0944 6.32632 20.9368 6.79249 20.1301C7.26547 19.3115 7.84681 18.0309 8.53652 16.2885C6.67773 16.0438 5.26917 15.9215 4.31085 15.9215C3.39099 15.9215 1.98243 16.0438 0.0849609 16.2885C0.0849609 16.7649 0.207895 17.2412 0.453764 17.6715L2.11333 20.545Z" fill="#0066DA"/>
<path d="M22.6889 23.603C23.1039 23.3571 23.4573 23.019 23.7031 22.5888L24.1948 21.7437L26.546 17.6715C26.7873 17.2505 26.9144 16.7738 26.9147 16.2885C25.0062 16.0438 23.6003 15.9215 22.6966 15.9215C21.7255 15.9215 20.3195 16.0438 18.4785 16.2885C19.1601 18.0404 19.7337 19.321 20.1996 20.1301C20.6694 20.9464 21.4992 22.104 22.6889 23.603Z" fill="#EA4335"/>
<path d="M13.4997 7.68325C14.8747 6.02264 15.8224 4.74204 16.3425 3.84168C16.7614 3.11665 17.2224 1.95899 17.7255 0.368804C17.3106 0.122935 16.8342 0 16.3425 0H10.6569C10.1652 0 9.68895 0.138341 9.27393 0.368804C9.91386 2.19259 10.4569 3.49059 10.903 4.26267C11.396 5.11598 12.2616 6.25614 13.4997 7.68325Z" fill="#00832D"/>
<path d="M18.4635 16.2886H8.53671L4.31104 23.603C4.72585 23.8489 5.20218 23.9718 5.69392 23.9718H21.3063C21.798 23.9718 22.2745 23.8335 22.6893 23.6029L18.4636 16.2886H18.4635Z" fill="#2684FC"/>
<path d="M13.4999 7.68324L9.27424 0.368896C8.85921 0.614765 8.50582 0.952757 8.25995 1.38308L0.453764 14.9056C0.212415 15.3265 0.0852798 15.8033 0.0849609 16.2885H8.53652L13.5 7.68324H13.4999Z" fill="#00AC47"/>
<path d="M22.6431 8.14425L18.7399 1.38296C18.4941 0.952635 18.1406 0.614643 17.7257 0.368774L13.5 7.68322L18.4633 16.2885H26.8995C26.8995 15.8121 26.7766 15.3359 26.5307 14.9055L22.6431 8.14425Z" fill="#FFBA00"/>
</g>
<defs>
<clipPath id="clip0_551_20986">
<rect width="26.8297" height="24" fill="white" transform="translate(0.0849609)"/>
</clipPath>
</defs>
</svg>
