<svg width="24" height="24" viewBox="0 0 24 24" fill="none" xmlns="http://www.w3.org/2000/svg">
<path d="M11.6214 6.95103C11.6214 7.14205 11.6069 7.33308 11.5827 7.52167C11.5924 7.45638 11.5996 7.39352 11.6093 7.32823C11.5585 7.69577 11.4618 8.05362 11.3191 8.39457C11.3433 8.33654 11.3675 8.2785 11.3917 8.22047C11.2877 8.46469 11.162 8.70167 11.0145 8.92168C10.9758 8.97971 10.9371 9.03533 10.896 9.09094C10.8065 9.21668 11.0024 8.96037 10.9226 9.05709C10.9032 9.08127 10.8839 9.10545 10.8621 9.13205C10.7775 9.23361 10.688 9.33033 10.5962 9.42463C10.5019 9.51893 10.4051 9.60598 10.3036 9.69061C10.2794 9.70995 10.2552 9.73172 10.2286 9.75106C10.1295 9.83086 10.3713 9.64467 10.2746 9.71479C10.219 9.7559 10.1633 9.79459 10.1053 9.83327C9.88043 9.98561 9.63861 10.1138 9.38955 10.2202L9.56364 10.1476C9.22029 10.2903 8.86482 10.387 8.49731 10.4378C8.56259 10.4281 8.62546 10.4209 8.69075 10.4112C8.31112 10.462 7.92905 10.462 7.54946 10.4112C7.61475 10.4209 7.67762 10.4281 7.7429 10.4378C7.37536 10.387 7.01751 10.2903 6.67656 10.1476L6.85066 10.2202C6.60644 10.1162 6.36947 9.99045 6.14945 9.84295C6.09142 9.80426 6.03581 9.76557 5.98019 9.72446C5.85445 9.635 6.11076 9.83086 6.01404 9.75106C5.98986 9.73172 5.96568 9.71237 5.93909 9.69061C5.83753 9.60598 5.74081 9.51651 5.64651 9.42463C5.5522 9.33033 5.46515 9.23361 5.38052 9.13205C5.36118 9.10787 5.33942 9.08369 5.32007 9.05709C5.24028 8.95795 5.42646 9.19976 5.35634 9.10304C5.31524 9.04742 5.27655 8.99181 5.23786 8.93378C5.08552 8.7089 4.95737 8.46708 4.85098 8.21802L4.92352 8.39212C4.78085 8.04876 4.68413 7.69329 4.63335 7.32578C4.64302 7.39106 4.65028 7.45393 4.65995 7.51922C4.60917 7.13959 4.60917 6.75752 4.65995 6.37793C4.65028 6.44322 4.64302 6.50609 4.63335 6.57138C4.68413 6.20384 4.78085 5.84598 4.92352 5.50504L4.85098 5.67913C4.95495 5.43492 5.08069 5.19794 5.22818 4.97792C5.26687 4.91989 5.30556 4.86428 5.34667 4.80866C5.43613 4.68292 5.24028 4.93924 5.32007 4.84252C5.33941 4.81834 5.35876 4.79415 5.38052 4.76756C5.46515 4.666 5.55462 4.56928 5.6465 4.47498C5.74081 4.38067 5.83753 4.29362 5.93908 4.209C5.96326 4.18965 5.98745 4.16789 6.01404 4.14854C6.11318 4.06875 5.87138 4.25493 5.9681 4.18481C6.02371 4.14371 6.07933 4.10502 6.13736 4.06633C6.36223 3.914 6.60405 3.78584 6.85312 3.67945C6.79508 3.70363 6.73705 3.72781 6.67902 3.75199C7.02238 3.60932 7.37784 3.5126 7.74536 3.46182C7.68007 3.4715 7.6172 3.47875 7.55192 3.48842C7.93154 3.43765 8.31361 3.43765 8.6932 3.48842C8.62791 3.47875 8.56505 3.4715 8.49976 3.46182C8.8673 3.5126 9.22515 3.60932 9.5661 3.75199C9.50806 3.72781 9.45003 3.70362 9.392 3.67945C9.63622 3.78342 9.87319 3.90916 10.0932 4.05666C10.1512 4.09534 10.2069 4.13403 10.2625 4.17514C10.3882 4.26461 10.1319 4.06875 10.2286 4.14854C10.2528 4.16789 10.277 4.18723 10.3036 4.20899C10.4051 4.29363 10.5019 4.38309 10.5962 4.47497C10.6905 4.56928 10.7775 4.666 10.8621 4.76756C10.8815 4.79174 10.9032 4.81592 10.9226 4.84251C11.0024 4.94165 10.8162 4.69985 10.8863 4.79657C10.9274 4.85218 10.9661 4.9078 11.0048 4.96583C11.1571 5.1907 11.2853 5.43252 11.3917 5.68159C11.3675 5.62355 11.3433 5.56552 11.3191 5.50749C11.4618 5.85085 11.5585 6.20631 11.6093 6.57383C11.5996 6.50854 11.5924 6.44568 11.5827 6.38039C11.6069 6.57141 11.619 6.76001 11.6214 6.95103C11.6238 7.33066 11.9551 7.69336 12.3468 7.67642C12.7385 7.65949 13.0746 7.35724 13.0722 6.95103C13.0674 5.94756 12.7651 4.92955 12.1751 4.11471C11.5658 3.27082 10.7485 2.64212 9.76918 2.28429C7.87588 1.58789 5.60534 2.20449 4.32849 3.76651C3.65872 4.58865 3.26215 5.55343 3.17752 6.61252C3.09773 7.60873 3.35162 8.64125 3.86666 9.49721C4.36961 10.3314 5.13131 11.0375 6.02353 11.4389C7.01006 11.8814 8.07644 12.0095 9.14035 11.7967C11.082 11.4099 12.6972 9.74383 12.9947 7.78041C13.0358 7.50475 13.0672 7.22909 13.0672 6.95102C13.0696 6.57139 12.7335 6.20869 12.3418 6.22562C11.9525 6.24497 11.6212 6.54481 11.6212 6.95102L11.6214 6.95103Z" fill="#151821"/>
<path d="M19.8936 8.64364C19.8936 8.77905 19.8839 8.91204 19.867 9.04503C19.8767 8.97974 19.8839 8.91688 19.8936 8.85159C19.8573 9.12241 19.7848 9.38354 19.6784 9.6326L19.7509 9.45851C19.676 9.63019 19.5889 9.7922 19.4874 9.94938C19.4608 9.98807 19.4317 10.0268 19.4051 10.0654C19.3495 10.1452 19.4608 9.99533 19.4608 9.99533C19.4608 10.0074 19.4196 10.0461 19.41 10.0558C19.3495 10.1283 19.2867 10.1984 19.219 10.2661C19.1561 10.329 19.0908 10.3895 19.0207 10.4475C19.0013 10.4644 18.9796 10.4814 18.9602 10.4983C18.8974 10.5515 19.1005 10.3967 19.0328 10.4427C18.9941 10.4693 18.9554 10.4983 18.9167 10.5249C18.7571 10.6313 18.5903 10.7232 18.4138 10.7981C18.4718 10.7739 18.5298 10.7498 18.5879 10.7256C18.3364 10.832 18.0752 10.9021 17.8068 10.9408C17.8721 10.9311 17.935 10.9239 18.0003 10.9142C17.7319 10.948 17.4635 10.948 17.1951 10.9142C17.2604 10.9239 17.3232 10.9311 17.3885 10.9408C17.1177 10.9045 16.8566 10.832 16.6075 10.7256C16.6655 10.7498 16.7236 10.7739 16.7816 10.7981C16.6099 10.7232 16.4479 10.6361 16.2907 10.5346C16.252 10.508 16.2133 10.4789 16.1746 10.4523C16.0949 10.3967 16.2448 10.508 16.2448 10.508C16.2327 10.508 16.194 10.4668 16.1843 10.4572C16.1118 10.3967 16.0417 10.3339 15.9739 10.2662C15.9111 10.2033 15.8506 10.138 15.7926 10.0679C15.7757 10.0485 15.7587 10.0268 15.7418 10.0074C15.6886 9.94455 15.8434 10.1477 15.7974 10.08C15.7708 10.0413 15.7418 10.0026 15.7152 9.9639C15.6088 9.80431 15.5169 9.63746 15.442 9.46095L15.5145 9.63505C15.4081 9.38357 15.338 9.12241 15.2993 8.85403C15.309 8.91932 15.3162 8.98218 15.3259 9.04747C15.2921 8.77907 15.2921 8.51065 15.3259 8.24226C15.3162 8.30755 15.309 8.37042 15.2993 8.43571C15.3356 8.16489 15.4081 7.90375 15.5145 7.65469L15.442 7.82879C15.5169 7.65711 15.604 7.4951 15.7055 7.33791C15.7321 7.29922 15.7612 7.26053 15.7878 7.22184C15.8434 7.14205 15.7321 7.29196 15.7321 7.29196C15.7321 7.27987 15.7733 7.24119 15.7829 7.23151C15.8434 7.15897 15.9062 7.08885 15.9739 7.02115C16.0368 6.95828 16.1021 6.89783 16.1722 6.83979C16.1916 6.82287 16.2133 6.80594 16.2327 6.78902C16.2955 6.73582 16.0924 6.89057 16.1601 6.84463C16.1988 6.81803 16.2375 6.78902 16.2762 6.76242C16.4358 6.65603 16.6026 6.56414 16.7791 6.48918C16.7211 6.51336 16.6631 6.53754 16.6051 6.56172C16.8565 6.45533 17.1177 6.3852 17.3861 6.34651C17.3208 6.35619 17.2579 6.36344 17.1926 6.37311C17.461 6.33926 17.7294 6.33926 17.9978 6.37311C17.9325 6.36344 17.8697 6.35619 17.8044 6.34651C18.0752 6.38278 18.3363 6.45532 18.5854 6.56172C18.5274 6.53754 18.4693 6.51336 18.4113 6.48918C18.583 6.56414 18.745 6.65119 18.9022 6.75274C18.9409 6.77934 18.9796 6.80836 19.0183 6.83496C19.098 6.89057 18.9481 6.77934 18.9481 6.77934C18.9602 6.77934 18.9989 6.82045 19.0086 6.83012C19.0811 6.89057 19.1513 6.95344 19.219 7.02114C19.2818 7.08401 19.3423 7.14929 19.4003 7.21942C19.4172 7.23876 19.4342 7.26053 19.4511 7.27987C19.5043 7.34274 19.3495 7.13963 19.3955 7.20733C19.4221 7.24602 19.4511 7.28471 19.4777 7.3234C19.5841 7.48299 19.676 7.64983 19.7509 7.82635L19.6784 7.65225C19.7848 7.90372 19.8549 8.16488 19.8936 8.43327C19.8839 8.36798 19.8767 8.30511 19.867 8.23982C19.8839 8.37523 19.8936 8.51064 19.8936 8.64363C19.896 9.02326 20.2249 9.38596 20.619 9.36903C21.0107 9.3521 21.3468 9.04985 21.3444 8.64363C21.3395 7.89405 21.1171 7.1251 20.677 6.51334C20.2079 5.86289 19.5913 5.38656 18.8393 5.10849C17.4248 4.58379 15.7007 5.04804 14.7432 6.21595C14.2257 6.84704 13.9235 7.57729 13.8582 8.39218C13.7953 9.14419 13.9936 9.9349 14.3829 10.5781C14.7577 11.1971 15.3235 11.7291 15.986 12.0289C16.7477 12.3722 17.5626 12.4738 18.3847 12.3094C19.8331 12.0192 21.0566 10.7667 21.2839 9.30376C21.3177 9.08372 21.3443 8.8661 21.3468 8.64362C21.3492 8.264 21.0107 7.90129 20.6214 7.91823C20.2248 7.93757 19.896 8.23741 19.8935 8.64362L19.8936 8.64364Z" fill="#151821"/>
<path d="M14.7867 18.7437V19.4885C14.7867 19.7496 14.8061 20.0229 14.7771 20.284C14.7867 20.2187 14.794 20.1559 14.8037 20.0906C14.7867 20.2115 14.7553 20.3251 14.7094 20.4363C14.7335 20.3783 14.7577 20.3203 14.7819 20.2623C14.7505 20.33 14.7166 20.3977 14.6755 20.4605C14.5788 20.608 14.7722 20.3541 14.6948 20.4412C14.6707 20.4678 14.6465 20.4968 14.6199 20.5234C14.5933 20.55 14.5643 20.5742 14.5377 20.5984C14.4458 20.683 14.6997 20.492 14.5691 20.5718C14.499 20.6129 14.4313 20.654 14.3587 20.6878C14.4168 20.6636 14.4748 20.6395 14.5328 20.6153C14.4216 20.6612 14.308 20.6927 14.1871 20.7096C14.2524 20.6999 14.3152 20.6927 14.3805 20.683C14.2282 20.6999 14.071 20.6927 13.9187 20.6927H13.0409H10.12H6.54614H3.48976C3.00856 20.6927 2.52737 20.6975 2.04622 20.6927C1.98577 20.6927 1.92532 20.6878 1.86728 20.683C1.93257 20.6927 1.99544 20.6999 2.06073 20.7096C1.93982 20.6927 1.82618 20.6612 1.71495 20.6153C1.77298 20.6395 1.83101 20.6636 1.88905 20.6878C1.82134 20.6564 1.75364 20.6225 1.69077 20.5814C1.54327 20.4847 1.79716 20.6782 1.71011 20.6008C1.68351 20.5766 1.6545 20.5524 1.6279 20.5258C1.6013 20.4992 1.57712 20.4702 1.55294 20.4436C1.46831 20.3517 1.65933 20.6056 1.57954 20.475C1.53843 20.4049 1.49732 20.3372 1.46347 20.2647C1.48765 20.3227 1.51184 20.3807 1.53601 20.4388C1.49007 20.3275 1.45864 20.2139 1.44171 20.093C1.45138 20.1583 1.45864 20.2211 1.46831 20.2864C1.42962 19.9479 1.45864 19.5949 1.45864 19.2539C1.45864 18.8598 1.45138 18.4657 1.50216 18.0739C1.49249 18.1392 1.48523 18.2021 1.47556 18.2673C1.53601 17.8128 1.65692 17.3703 1.83585 16.9471C1.81167 17.0052 1.78748 17.0632 1.76331 17.1212C1.89388 16.8166 2.05105 16.524 2.23482 16.2483C2.28318 16.1782 2.33154 16.1081 2.38232 16.0404C2.41375 15.9968 2.49838 15.9025 2.34605 16.0863C2.37264 16.0549 2.39924 16.021 2.42584 15.9872C2.52982 15.8614 2.64105 15.7381 2.75711 15.6221C2.87318 15.506 2.99408 15.3948 3.12223 15.2908C3.14641 15.2714 3.19235 15.2182 3.22137 15.211C3.1851 15.2182 3.06662 15.3295 3.17543 15.2473C3.24313 15.1965 3.31325 15.1481 3.38338 15.0998C3.65903 14.9136 3.95163 14.7564 4.25627 14.6283C4.19824 14.6524 4.14021 14.6766 4.08218 14.7008C4.50533 14.5243 4.94782 14.4034 5.4024 14.3405C5.33711 14.3502 5.27425 14.3574 5.20896 14.3671C5.88841 14.2801 6.59205 14.3236 7.27394 14.3236H9.95069C10.3206 14.3236 10.6906 14.3212 11.0581 14.3695C10.9929 14.3599 10.93 14.3526 10.8647 14.3429C11.3096 14.4058 11.7449 14.5243 12.1584 14.696C12.1003 14.6718 12.0423 14.6476 11.9843 14.6234C12.3059 14.7613 12.613 14.9281 12.9031 15.1264C12.966 15.1699 13.0288 15.2158 13.0917 15.2618C13.2029 15.344 12.949 15.1481 13.0796 15.2545C13.1135 15.2811 13.1449 15.3077 13.1763 15.3343C13.2948 15.4359 13.4109 15.5423 13.5221 15.6559C13.6309 15.7671 13.7373 15.8856 13.8365 16.0065C13.8582 16.0355 13.88 16.0646 13.9042 16.0912C13.7494 15.9098 13.8679 16.0428 13.8993 16.0887C13.9428 16.1468 13.984 16.2072 14.0251 16.2677C14.2088 16.5409 14.3636 16.8311 14.4918 17.1358C14.4676 17.0777 14.4434 17.0197 14.4192 16.9617C14.5909 17.3751 14.7094 17.808 14.7698 18.2504C14.7602 18.1852 14.7529 18.1223 14.7432 18.057C14.7698 18.2843 14.7843 18.514 14.7868 18.7437C14.7892 19.1233 15.1204 19.486 15.5121 19.4691C15.9039 19.4522 16.24 19.1499 16.2375 18.7437C16.2327 17.5419 15.8603 16.3281 15.1518 15.3561C14.3974 14.3212 13.3625 13.545 12.139 13.146C11.4474 12.9211 10.7317 12.8704 10.0111 12.8704H8.19275H6.31635C5.72395 12.8704 5.14119 12.8897 4.55844 13.0203C2.48134 13.4894 0.769409 15.153 0.210838 17.2011C0.00288939 17.9579 0.005308 18.7244 0.005308 19.5006C0.005308 19.7593 -0.011618 20.0253 0.0149801 20.284C0.0899382 20.9611 0.469557 21.6043 1.09582 21.9138C1.40533 22.0661 1.72691 22.1459 2.07271 22.1459H2.32177H3.40986H7.09008H11.2467H13.95C14.3998 22.1459 14.8326 22.1048 15.2364 21.8678C15.8409 21.5124 16.2157 20.8644 16.2423 20.1655C16.252 19.9213 16.2423 19.6747 16.2423 19.428V18.7413C16.2423 18.3617 15.9086 17.999 15.5169 18.0159C15.118 18.0353 14.7867 18.3375 14.7867 18.7438L14.7867 18.7437Z" fill="#151821"/>
<path d="M22.1591 17.6701C22.1591 17.8781 22.1736 18.0933 22.1495 18.3012C22.1591 18.2359 22.1664 18.1731 22.1761 18.1078C22.164 18.1948 22.1422 18.2771 22.1108 18.3593L22.1833 18.1852C22.1591 18.2432 22.1301 18.3012 22.0938 18.3544C22.0503 18.4197 22.002 18.4294 22.1325 18.3109C22.1108 18.3327 22.0914 18.3593 22.0672 18.381C22.0576 18.3907 22.0044 18.4487 21.9971 18.4463C22.002 18.4487 22.1736 18.323 22.0406 18.4076C21.9875 18.4415 21.9294 18.4705 21.8714 18.4971C21.9294 18.4729 21.9875 18.4487 22.0455 18.4245C21.9633 18.456 21.8811 18.4777 21.794 18.4898C21.8593 18.4802 21.9222 18.4729 21.9875 18.4632C21.7505 18.4898 21.5038 18.4729 21.2669 18.4729H19.7629H16.3123H15.512L16.2373 19.1983C16.2373 18.5865 16.218 17.982 16.0778 17.38C15.8964 16.6086 15.5458 15.8663 15.0646 15.2376C14.7744 14.8604 14.4601 14.5146 14.0901 14.2148V15.24C14.1772 15.1578 14.2691 15.0804 14.361 15.0031C14.4238 14.9499 14.2062 15.1167 14.3199 15.0345C14.3392 15.02 14.361 15.0055 14.3803 14.9885C14.4311 14.9523 14.4843 14.916 14.5375 14.8822C14.7406 14.7492 14.9534 14.6379 15.1759 14.5436L15.0018 14.6162C15.3258 14.4808 15.6643 14.3889 16.0101 14.3381C15.9448 14.3478 15.8819 14.355 15.8167 14.3647C16.2567 14.3067 16.7065 14.326 17.1466 14.326H18.6506C18.8851 14.326 19.1173 14.3308 19.3494 14.3623C19.2841 14.3526 19.2213 14.3454 19.156 14.3357C19.5114 14.384 19.8596 14.4783 20.1909 14.6186C20.1328 14.5944 20.0748 14.5702 20.0168 14.5461C20.2513 14.6476 20.4786 14.7685 20.6914 14.9088C20.7446 14.945 20.7954 14.9813 20.8486 15.0176C20.9598 15.0998 20.8389 14.9885 20.8026 14.9813C20.8244 14.9861 20.8582 15.0248 20.8776 15.0417C20.9792 15.1264 21.0783 15.2158 21.1726 15.3077C21.2621 15.3972 21.3491 15.4915 21.4289 15.5882C21.4482 15.6124 21.4676 15.639 21.4894 15.6632C21.5401 15.7212 21.3685 15.4987 21.4531 15.6172C21.4894 15.668 21.528 15.7212 21.5643 15.772C21.7094 15.9896 21.8351 16.2193 21.9367 16.4611L21.8641 16.287C22.002 16.6183 22.0987 16.9665 22.1471 17.3219C22.1374 17.2566 22.1301 17.1938 22.1205 17.1285C22.1471 17.3123 22.1567 17.4912 22.1591 17.6701C22.1616 18.0498 22.4928 18.4125 22.8845 18.3955C23.2763 18.3786 23.6124 18.0763 23.6099 17.6701C23.6051 16.5602 23.2134 15.5181 22.5291 14.6524C21.9053 13.8642 21.0009 13.2863 20.0289 13.0323C19.4002 12.8679 18.7642 12.8752 18.1211 12.8752H16.426C15.1711 12.8752 13.9742 13.3491 13.0626 14.2123C12.799 14.4614 12.7627 14.9958 13.0626 15.2376C13.227 15.3706 13.3842 15.5132 13.5316 15.6632C13.6042 15.7357 13.6719 15.8131 13.7396 15.8905C13.7759 15.9316 13.8097 15.9727 13.8436 16.0162C13.8581 16.0355 13.8726 16.0549 13.8895 16.0718C13.9403 16.1347 13.7734 15.9171 13.8532 16.0259C14.1071 16.3692 14.3199 16.7368 14.4868 17.1309C14.4626 17.0729 14.4384 17.0148 14.4142 16.9568C14.5859 17.3703 14.7044 17.8031 14.7648 18.2456C14.7552 18.1803 14.7479 18.1174 14.7382 18.0521C14.789 18.4318 14.7842 18.8138 14.7842 19.1959C14.7842 19.5876 15.1154 19.9213 15.5096 19.9213H18.4644C19.5791 19.9213 20.6962 19.9237 21.811 19.9213C22.4227 19.9188 22.9547 19.6359 23.3101 19.1378C23.6245 18.6977 23.6075 18.1778 23.6075 17.6652C23.6075 17.2856 23.2738 16.9229 22.8821 16.9398C22.4904 16.964 22.1591 17.2638 22.1591 17.6701L22.1591 17.6701Z" fill="#151821"/>
</svg>
