<svg xmlns="http://www.w3.org/2000/svg" width="38.54" height="33.401" viewBox="0 0 38.54 33.401"><defs><style>.a{fill:#f84400;}</style></defs><g transform="translate(-3 -9)"><g transform="translate(3 9)"><g transform="translate(0 0)"><path class="a" d="M37.364,24.973h0A7.986,7.986,0,1,0,29.4,17.008,8.023,8.023,0,0,0,37.364,24.973Zm0-13.4a5.439,5.439,0,0,1,0,10.877h0a5.439,5.439,0,0,1,0-10.877Z" transform="translate(-18.095 -9)"/><path class="a" d="M67.71,40.421A4.71,4.71,0,1,0,63,35.71,4.7,4.7,0,0,0,67.71,40.421Zm0-6.851a2.141,2.141,0,1,1-2.141,2.141A2.12,2.12,0,0,1,67.71,33.569Z" transform="translate(-37.307 -21.579)"/><path class="a" d="M36.829,51.96H36.4a1.328,1.328,0,0,0-.942.385c-.6.642-.856.856-1.456.856a9.592,9.592,0,0,0-5.1-2.013,1.175,1.175,0,0,0-.985.343A7.892,7.892,0,0,1,22.27,53.8a8.15,8.15,0,0,1-5.652-2.27,1.223,1.223,0,0,0-.985-.343,8.955,8.955,0,0,0-5.1,2.013c-.6-.043-.856-.214-1.456-.9a1.5,1.5,0,0,0-.942-.343H7.71A4.7,4.7,0,0,0,3,56.67V57.1a2.979,2.979,0,0,0,3,3H6.94c0,.171-.043.385-.043.557v1.584a4.3,4.3,0,0,0,4.282,4.282H33.318A4.3,4.3,0,0,0,37.6,62.237V60.653a2.442,2.442,0,0,0-.043-.557h.985a2.979,2.979,0,0,0,3-3V56.67A4.7,4.7,0,0,0,36.829,51.96ZM6,57.527a.4.4,0,0,1-.428-.428V56.67a2.124,2.124,0,0,1,2.013-2.141,5.573,5.573,0,0,0,.985.771,9.973,9.973,0,0,0-1.156,2.227Zm29.076,4.71a1.718,1.718,0,0,1-1.713,1.713H11.179a1.718,1.718,0,0,1-1.713-1.713V60.653a6.864,6.864,0,0,1,5.824-6.766A10.683,10.683,0,0,0,22.27,56.5a10.464,10.464,0,0,0,6.98-2.612,6.97,6.97,0,0,1,5.481,4.668c0,.086.257.985.257,1.113,0,.3.086.685.086,1.028Zm3.9-5.139a.4.4,0,0,1-.428.428H37.086A9.974,9.974,0,0,0,35.93,55.3a4.359,4.359,0,0,0,.985-.771A2.16,2.16,0,0,1,38.97,56.67V57.1Z" transform="translate(-3 -33.118)"/><path class="a" d="M11,35.71A4.71,4.71,0,1,0,15.71,31,4.7,4.7,0,0,0,11,35.71Zm6.851,0a2.141,2.141,0,1,1-2.141-2.141A2.12,2.12,0,0,1,17.851,35.71Z" transform="translate(-7.574 -21.579)"/></g></g></g></svg>