<svg xmlns="http://www.w3.org/2000/svg" width="106.017" height="91.882" viewBox="0 0 106.017 91.882"><defs><style>.a{fill:#f84400;}</style></defs><g transform="translate(0)"><g transform="translate(0 0)"><g transform="translate(0 0)"><path class="a" d="M51.31,52.938h0A21.969,21.969,0,1,0,29.4,31.028,22.07,22.07,0,0,0,51.31,52.938Zm0-36.871a14.961,14.961,0,0,1,0,29.921h0a14.961,14.961,0,0,1,0-29.921Z" transform="translate(1.698 -9)"/><path class="a" d="M75.958,56.915A12.958,12.958,0,1,0,63,43.958,12.92,12.92,0,0,0,75.958,56.915Zm0-18.848a5.89,5.89,0,1,1-5.89,5.89A5.833,5.833,0,0,1,75.958,38.068Z" transform="translate(7.678 -5.085)"/><path class="a" d="M96.06,53.324H94.882a3.654,3.654,0,0,0-2.592,1.06c-1.649,1.767-2.356,2.356-4.005,2.356A26.387,26.387,0,0,0,74.267,51.2a3.232,3.232,0,0,0-2.709.942,21.71,21.71,0,0,1-15.549,6.243,22.42,22.42,0,0,1-15.549-6.243A3.364,3.364,0,0,0,37.75,51.2,24.633,24.633,0,0,0,23.732,56.74c-1.649-.118-2.356-.589-4.005-2.474a4.116,4.116,0,0,0-2.592-.942H15.958A12.92,12.92,0,0,0,3,66.281v1.178a8.2,8.2,0,0,0,8.246,8.246h2.592c0,.471-.118,1.06-.118,1.531V81.6A11.814,11.814,0,0,0,25.5,93.375H86.4A11.814,11.814,0,0,0,98.18,81.6V77.237a6.717,6.717,0,0,0-.118-1.531h2.709a8.2,8.2,0,0,0,8.246-8.246V66.281A12.92,12.92,0,0,0,96.06,53.324ZM11.246,68.637a1.113,1.113,0,0,1-1.178-1.178V66.281a5.842,5.842,0,0,1,5.536-5.89,15.331,15.331,0,0,0,2.709,2.12,27.436,27.436,0,0,0-3.181,6.125ZM91.23,81.6a4.726,4.726,0,0,1-4.712,4.712H25.5A4.726,4.726,0,0,1,20.787,81.6V77.237a18.882,18.882,0,0,1,16.02-18.612,29.388,29.388,0,0,0,19.2,7.186,28.784,28.784,0,0,0,19.2-7.186,19.173,19.173,0,0,1,15.078,12.84c0,.236.707,2.709.707,3.063,0,.825.236,1.885.236,2.827Zm10.72-14.136a1.113,1.113,0,0,1-1.178,1.178H96.766a27.436,27.436,0,0,0-3.181-6.125,11.991,11.991,0,0,0,2.709-2.12,5.943,5.943,0,0,1,5.654,5.89v1.178Z" transform="translate(-3 -1.493)"/><path class="a" d="M11,43.958A12.958,12.958,0,1,0,23.958,31,12.92,12.92,0,0,0,11,43.958Zm18.848,0a5.89,5.89,0,1,1-5.89-5.89A5.833,5.833,0,0,1,29.848,43.958Z" transform="translate(-1.576 -5.085)"/></g></g></g></svg>