<svg xmlns="http://www.w3.org/2000/svg" width="35.528" height="37.813" viewBox="0 0 35.528 37.813"><defs><style>.a{fill:#f84400;stroke:#f84400;stroke-width:0.3px;}</style></defs><g transform="translate(0.15 0.16)"><path class="a" d="M58.164,147.846h-6.75a.558.558,0,0,1,0-1.115h6.75a.558.558,0,0,1,0,1.115Z" transform="translate(-34.134 -118.812)"/><path class="a" d="M32.387,146.089a.558.558,0,0,1-.558-.558v-1.3a.558.558,0,0,1,1.115,0v1.3A.558.558,0,0,1,32.387,146.089Z" transform="translate(-26.48 -117.583)"/><path class="a" d="M32.387,154.05a.557.557,0,0,1-.558-.557V146.4a.558.558,0,0,1,1.115,0v7.088A.557.557,0,0,1,32.387,154.05Z" transform="translate(-26.48 -118.456)"/><path class="a" d="M28.787,152.85H23.546a.667.667,0,0,1-.666-.666v-13.4a.667.667,0,0,1,.666-.666h5.241a.558.558,0,0,1,.558.558v2.53l5.267-1.882a6.047,6.047,0,0,1,3.426-.192l6.838.91a2.569,2.569,0,0,1,1.966,3.145l.016.071,7.427-4.568a3.526,3.526,0,0,1,1.184-.466,2.177,2.177,0,0,1,2.047.674A2.2,2.2,0,0,1,58,141.021a5.271,5.271,0,0,1-1.009,1.886,10.831,10.831,0,0,1-1.14,1.124c-.125.111-.25.222-.372.335a11.057,11.057,0,0,1-1.062.867L47.755,150a4.991,4.991,0,0,1-2.922.938H29.344v1.352A.558.558,0,0,1,28.787,152.85ZM24,151.735h4.234v-1.352a.558.558,0,0,1,.558-.558H44.832a3.881,3.881,0,0,0,2.273-.73l6.664-4.769a9.9,9.9,0,0,0,.955-.779c.128-.118.258-.233.387-.348a9.817,9.817,0,0,0,1.027-1.008,4.152,4.152,0,0,0,.794-1.485,1.1,1.1,0,0,0-.241-1.057,1.058,1.058,0,0,0-1.008-.331,2.428,2.428,0,0,0-.812.319L47.5,144.207a1.165,1.165,0,0,1-1.751-1.238c.024-.14.231-1.579-1.051-1.827l-6.834-.908a.452.452,0,0,1-.057-.011,4.935,4.935,0,0,0-2.819.152l-6.012,2.147a.558.558,0,0,1-.745-.525v-2.764H24Z" transform="translate(-22.88 -115.347)"/><path class="a" d="M27.067,146.1a1.805,1.805,0,1,1,1.805-1.805A1.807,1.807,0,0,1,27.067,146.1Zm0-2.495a.69.69,0,1,0,.69.69A.691.691,0,0,0,27.067,143.6Z" transform="translate(-23.838 -117.106)"/><path class="a" d="M37.391,111.269a.558.558,0,0,1-.292-1.033l5.927-3.636a.557.557,0,0,1,.583.95l-5.926,3.636A.558.558,0,0,1,37.391,111.269Z" transform="translate(-28.493 -102.635)"/><path class="a" d="M63.225,111.269a.556.556,0,0,1-.291-.082l-5.926-3.636a.558.558,0,1,1,.583-.95l5.926,3.636a.557.557,0,0,1-.292,1.033Z" transform="translate(-36.501 -102.636)"/><path class="a" d="M53.068,121.924H35.242a.558.558,0,0,1-.558-.558v-12.71H32.05a.558.558,0,0,1-.295-1.032l12.106-7.518a.558.558,0,0,1,.588,0l4.234,2.63v-.684a.557.557,0,0,1,.558-.557h3.072a.557.557,0,0,1,.557.557v3.285l3.684,2.288a.558.558,0,0,1-.294,1.032H53.625v12.71A.558.558,0,0,1,53.068,121.924ZM35.8,120.809H52.511V108.1a.557.557,0,0,1,.557-.558h1.238l-2.286-1.42a.558.558,0,0,1-.264-.473V102.61H49.8v1.129a.558.558,0,0,1-.852.474l-4.792-2.976L34,107.541h1.238a.558.558,0,0,1,.558.558Z" transform="translate(-26.344 -100.023)"/><path class="a" d="M53.177,130.445H47.826a.558.558,0,0,1-.558-.558v-8.125a.558.558,0,0,1,.558-.558h5.351a.558.558,0,0,1,.558.558v8.125A.558.558,0,0,1,53.177,130.445Zm-4.793-1.115h4.236v-7.01H48.383Z" transform="translate(-32.691 -108.544)"/></g></svg>