<svg width="252" height="216" viewBox="0 0 252 216" fill="none" xmlns="http://www.w3.org/2000/svg">
<g clip-path="url(#clip0_548_20947)">
<path d="M248.093 169.978L132.144 209.136C130.701 209.622 129.123 209.516 127.757 208.841C126.391 208.165 125.35 206.977 124.86 205.535L71.1515 46.7397C70.6653 45.2968 70.7717 43.7201 71.4474 42.3556C72.1231 40.991 73.3129 39.95 74.7558 39.4609L190.704 0.302784C192.148 -0.183066 193.726 -0.0767297 195.092 0.598462C196.457 1.27365 197.499 2.46256 197.988 3.90434L251.697 162.699C252.183 164.142 252.077 165.719 251.401 167.084C250.725 168.448 249.536 169.489 248.093 169.978Z" fill="#E6E6E6"/>
<path d="M245.133 167.046L132.717 205.011C131.741 205.339 130.675 205.268 129.752 204.811C128.829 204.355 128.125 203.552 127.795 202.578L75.2797 47.3115C74.9511 46.3366 75.023 45.2712 75.4796 44.3492C75.9361 43.4272 76.7401 42.7238 77.715 42.3933L190.132 4.42789C191.108 4.09961 192.174 4.17146 193.096 4.62767C194.019 5.08388 194.723 5.8872 195.054 6.86138L247.569 162.128C247.897 163.103 247.825 164.168 247.369 165.09C246.912 166.012 246.108 166.715 245.133 167.046V167.046Z" fill="white"/>
<path d="M216.873 215.534H94.4817C92.958 215.533 91.4973 214.927 90.42 213.851C89.3426 212.774 88.7366 211.314 88.7349 209.792V42.1727C88.7366 40.6503 89.3426 39.1906 90.42 38.1141C91.4973 37.0375 92.958 36.4319 94.4817 36.4302H216.873C218.397 36.4319 219.857 37.0375 220.935 38.1141C222.012 39.1906 222.618 40.6503 222.62 42.1727V209.792C222.618 211.314 222.012 212.774 220.935 213.851C219.857 214.927 218.397 215.533 216.873 215.534Z" fill="#CCCCCC"/>
<path d="M215.009 211.81H96.3455C95.316 211.808 94.3291 211.399 93.6011 210.672C92.8732 209.944 92.4637 208.958 92.4625 207.93V44.0352C92.4637 43.0065 92.8732 42.0203 93.6011 41.2929C94.3291 40.5655 95.316 40.1563 96.3455 40.1552H215.009C216.039 40.1563 217.026 40.5655 217.754 41.2929C218.482 42.0203 218.891 43.0065 218.892 44.0352V207.93C218.891 208.958 218.482 209.944 217.754 210.672C217.026 211.399 216.039 211.808 215.009 211.81Z" fill="white"/>
<path d="M189.73 86.6468H111.356C110.695 86.6468 110.062 86.3847 109.595 85.9181C109.128 85.4516 108.866 84.8189 108.866 84.1591C108.866 83.4994 109.128 82.8666 109.595 82.4001C110.062 81.9336 110.695 81.6715 111.356 81.6715H189.73C190.39 81.6715 191.024 81.9336 191.49 82.4001C191.957 82.8666 192.22 83.4994 192.22 84.1591C192.22 84.8189 191.957 85.4516 191.49 85.9181C191.024 86.3847 190.39 86.6468 189.73 86.6468Z" fill="#CCCCCC"/>
<path d="M199.999 95.0425H111.356C111.029 95.0425 110.705 94.9782 110.403 94.8531C110.101 94.7281 109.826 94.5449 109.595 94.3139C109.364 94.0829 109.181 93.8087 109.056 93.5068C108.93 93.205 108.866 92.8816 108.866 92.5549C108.866 92.2282 108.93 91.9047 109.056 91.6029C109.181 91.3011 109.364 91.0269 109.595 90.7959C109.826 90.5649 110.101 90.3816 110.403 90.2566C110.705 90.1316 111.029 90.0673 111.356 90.0673H199.999C200.66 90.0673 201.293 90.3293 201.76 90.7959C202.226 91.2624 202.489 91.8951 202.489 92.5549C202.489 93.2146 202.226 93.8474 201.76 94.3139C201.293 94.7804 200.66 95.0425 199.999 95.0425Z" fill="#CCCCCC"/>
<path d="M189.73 124.272H111.356C110.696 124.271 110.063 124.009 109.597 123.542C109.131 123.076 108.869 122.444 108.869 121.784C108.869 121.125 109.131 120.493 109.597 120.026C110.063 119.56 110.696 119.298 111.356 119.297H189.73C190.39 119.297 191.024 119.559 191.491 120.025C191.957 120.492 192.22 121.125 192.22 121.784C192.22 122.444 191.957 123.077 191.491 123.543C191.024 124.01 190.39 124.272 189.73 124.272Z" fill="#EF5926"/>
<path d="M199.999 132.668H111.356C110.696 132.667 110.063 132.405 109.597 131.938C109.131 131.472 108.869 130.839 108.869 130.18C108.869 129.521 109.131 128.889 109.597 128.422C110.063 127.956 110.696 127.693 111.356 127.693H199.999C200.66 127.693 201.293 127.955 201.76 128.421C202.227 128.888 202.489 129.52 202.489 130.18C202.489 130.84 202.227 131.473 201.76 131.939C201.293 132.406 200.66 132.668 199.999 132.668Z" fill="#CCCCCC"/>
<path d="M189.73 161.897H111.356C110.696 161.897 110.063 161.634 109.597 161.168C109.131 160.701 108.869 160.069 108.869 159.41C108.869 158.751 109.131 158.118 109.597 157.652C110.063 157.185 110.696 156.923 111.356 156.922H189.73C190.39 156.922 191.024 157.184 191.491 157.651C191.957 158.117 192.22 158.75 192.22 159.41C192.22 160.07 191.957 160.702 191.491 161.169C191.024 161.635 190.39 161.897 189.73 161.897Z" fill="#CCCCCC"/>
<path d="M199.999 170.293H111.356C110.695 170.293 110.062 170.031 109.595 169.565C109.128 169.098 108.866 168.465 108.866 167.806C108.866 167.146 109.128 166.513 109.595 166.047C110.062 165.58 110.695 165.318 111.356 165.318H199.999C200.66 165.318 201.293 165.58 201.76 166.047C202.226 166.513 202.489 167.146 202.489 167.806C202.489 168.465 202.226 169.098 201.76 169.565C201.293 170.031 200.66 170.293 199.999 170.293Z" fill="#CCCCCC"/>
<path d="M63.5232 115.045H45.5061C45.1355 115.044 44.7802 114.897 44.5182 114.635C44.2561 114.373 44.1087 114.018 44.1083 113.648V105.888C44.1083 103.13 45.2047 100.485 47.1562 98.535C49.1078 96.5849 51.7547 95.4893 54.5147 95.4893C57.2746 95.4893 59.9215 96.5849 61.8731 98.535C63.8246 100.485 64.921 103.13 64.921 105.888V113.648C64.9206 114.018 64.7732 114.373 64.5111 114.635C64.2491 114.897 63.8938 115.044 63.5232 115.045Z" fill="#2F2E41"/>
<path d="M91.3309 155.544C90.8749 155.52 90.4296 155.397 90.0264 155.183C89.6233 154.968 89.2721 154.668 88.9975 154.303C88.723 153.939 88.5318 153.518 88.4375 153.072C88.3431 152.625 88.3479 152.164 88.4514 151.719L79.0623 145.802L84.3173 143.425L92.4277 149.408C93.1634 149.632 93.7915 150.117 94.1931 150.772C94.5947 151.427 94.7418 152.207 94.6066 152.963C94.4714 153.719 94.0633 154.4 93.4596 154.876C92.8558 155.351 92.0984 155.589 91.3309 155.544Z" fill="#FFB8B8"/>
<path d="M84.8518 150.716C84.5325 150.687 84.2285 150.566 83.9757 150.369L58.1463 130.363L54.816 124.444C54.4939 123.875 54.3493 123.223 54.4007 122.571C54.4521 121.919 54.6971 121.297 55.1045 120.785C55.3864 120.429 55.7389 120.135 56.1398 119.922C56.5408 119.708 56.9815 119.58 57.4344 119.545C57.8873 119.51 58.3426 119.568 58.7718 119.717C59.2009 119.866 59.5946 120.102 59.9282 120.41L88.7182 143.743C88.9044 143.869 89.0636 144.031 89.1864 144.219C89.3093 144.407 89.3933 144.618 89.4335 144.839C89.4737 145.06 89.4693 145.286 89.4206 145.506C89.3719 145.725 89.2799 145.932 89.1499 146.115L86.3897 150.01C86.2586 150.197 86.0907 150.354 85.8964 150.474C85.7021 150.593 85.4854 150.672 85.2597 150.704C85.1247 150.725 84.9877 150.729 84.8518 150.716Z" fill="#2F2E41"/>
<path d="M23.9794 207.995L27.5098 209.422L34.6995 196.495L29.4892 194.388L23.9794 207.995Z" fill="#FFB8B8"/>
<path d="M23.5454 206.479L30.4978 209.29L30.4981 209.29C31.0799 209.525 31.6097 209.873 32.0571 210.313C32.5046 210.753 32.8609 211.276 33.1059 211.854C33.3508 212.431 33.4795 213.051 33.4846 213.678C33.4897 214.306 33.3712 214.928 33.1357 215.509L33.0774 215.653L21.6943 211.05L23.5454 206.479Z" fill="#2F2E41"/>
<path d="M65.1157 211.964L68.9241 211.964L70.7361 197.285L65.1151 197.285L65.1157 211.964Z" fill="#FFB8B8"/>
<path d="M64.1444 210.722L71.6444 210.721H71.6447C72.2724 210.721 72.8939 210.845 73.4738 211.085C74.0537 211.325 74.5806 211.677 75.0244 212.12C75.4683 212.564 75.8203 213.09 76.0605 213.67C76.3007 214.249 76.4244 214.87 76.4243 215.497V215.652L64.1446 215.653L64.1444 210.722Z" fill="#2F2E41"/>
<path d="M68.2534 203.666C66.7408 203.666 65.2575 203.049 64.439 202.64C64.2268 202.535 64.0416 202.383 63.8977 202.195C63.7539 202.007 63.6552 201.788 63.6094 201.556L55.5821 161.115L34.7568 200.049C34.5697 200.4 34.255 200.665 33.8778 200.79C29.3925 202.287 26.9464 199.931 26.1027 198.849C25.931 198.627 25.824 198.362 25.7934 198.083C25.7628 197.804 25.8098 197.522 25.9293 197.268L35.5742 176.331L41.406 156.443L47.3007 141.888L47.4294 141.901L67.1407 143.975L69.5376 157.147L71.9514 201.005C71.9729 201.355 71.8733 201.701 71.6693 201.986C71.2833 202.526 70.7693 202.963 70.1731 203.256C69.577 203.549 68.9174 203.69 68.2534 203.666Z" fill="#2F2E41"/>
<path d="M57.0828 114.927C61.2965 114.927 64.7124 111.514 64.7124 107.303C64.7124 103.092 61.2965 99.6791 57.0828 99.6791C52.8691 99.6791 49.4532 103.092 49.4532 107.303C49.4532 111.514 52.8691 114.927 57.0828 114.927Z" fill="#FFB8B8"/>
<path d="M59.7363 150.029C56.4147 150.029 52.3048 148.087 47.4782 144.228L47.396 144.162L50.8085 117.261L50.9678 117.255C55.849 117.079 59.8212 118.317 63.1098 121.05L63.1381 121.08L65.8047 124.506L65.8059 124.568L66.1819 145.61L66.1724 145.64C65.8192 146.603 65.2494 147.472 64.5068 148.18C63.7643 148.888 62.869 149.416 61.8898 149.724C61.1908 149.931 60.4652 150.034 59.7363 150.029Z" fill="#EF5926"/>
<path d="M64.6491 162.605C64.2762 162.605 63.914 162.481 63.6184 162.254C63.3228 162.027 63.1104 161.709 63.0139 161.349L58.3293 143.627L55.3617 159.772C55.2838 160.201 55.0429 160.583 54.6896 160.837C54.3363 161.092 53.8979 161.201 53.4664 161.14L40.5439 159.338C40.2976 159.304 40.0619 159.215 39.8536 159.079C39.6454 158.944 39.4697 158.764 39.3392 158.552C39.2086 158.34 39.1264 158.103 39.0985 157.856C39.0705 157.609 39.0975 157.359 39.1774 157.123L45.7141 137.872L44.2508 126.592C44.1001 125.431 44.1928 124.251 44.5231 123.127C44.8533 122.003 45.4138 120.96 46.169 120.065C46.9241 119.169 47.8575 118.44 48.9097 117.924C49.9619 117.408 51.11 117.116 52.2811 117.068L52.4121 117.062L58.6276 132.042L59.6162 128.09L61.1633 119.586L61.3943 119.719C63.5784 120.977 65.3743 122.811 66.5858 125.021C67.7973 127.23 68.3777 129.729 68.2637 132.246L67.8717 141.254L71.3445 159.646C71.4267 160.085 71.3315 160.539 71.0796 160.909C70.8277 161.278 70.4396 161.533 70.0002 161.617L64.9636 162.576C64.86 162.596 64.7547 162.606 64.6491 162.605Z" fill="#2F2E41"/>
<path d="M67.3829 106.664H56.3659L56.2529 105.083L55.6881 106.664H53.9917L53.7678 103.531L52.6483 106.664H49.3658V106.509C49.3683 104.328 50.2364 102.237 51.7796 100.695C53.3228 99.1529 55.4152 98.2854 57.5977 98.283H59.1509C61.3334 98.2854 63.4258 99.1529 64.9691 100.695C66.5123 102.237 67.3804 104.328 67.3829 106.509V106.664Z" fill="#2F2E41"/>
<path d="M247.579 216H0.310638C0.228252 216 0.14924 215.967 0.0909836 215.909C0.0327276 215.851 0 215.772 0 215.69C0 215.607 0.0327276 215.528 0.0909836 215.47C0.14924 215.412 0.228252 215.379 0.310638 215.379H247.579C247.661 215.379 247.74 215.412 247.798 215.47C247.857 215.528 247.889 215.607 247.889 215.69C247.889 215.772 247.857 215.851 247.798 215.909C247.74 215.967 247.661 216 247.579 216Z" fill="#CCCCCC"/>
<path d="M60.0009 153.986C60.0003 154.484 60.107 154.976 60.3134 155.429C60.5199 155.882 60.8215 156.286 61.1977 156.612C61.5739 156.939 62.0159 157.18 62.4938 157.321C62.9717 157.462 63.4743 157.499 63.9676 157.428C64.4228 158.472 65.1729 159.36 66.126 159.984C67.0791 160.608 68.1937 160.94 69.3331 160.94C70.1016 160.94 70.8626 160.789 71.5727 160.495C72.2827 160.201 72.9279 159.77 73.4713 159.227C74.0148 158.684 74.4459 158.04 74.74 157.33C75.0341 156.621 75.1854 155.86 75.1854 155.092V150.025C75.1854 148.721 74.1274 148.284 72.8222 148.284H65.8439C64.5387 148.284 63.4807 148.721 63.4807 150.025V150.509C62.5581 150.51 61.6736 150.876 61.0212 151.528C60.3689 152.18 60.0019 153.064 60.0009 153.986ZM60.9499 153.986C60.9507 153.315 61.2175 152.673 61.692 152.199C62.1664 151.724 62.8097 151.458 63.4807 151.457V155.092C63.4807 155.569 63.5388 156.044 63.6539 156.506C63.5964 156.51 63.5391 156.515 63.4807 156.515C62.8097 156.514 62.1664 156.247 61.692 155.773C61.2175 155.299 60.9507 154.656 60.9499 153.986H60.9499Z" fill="#EF5926"/>
<path d="M62.8032 153.15C62.5909 152.746 62.2926 152.393 61.9292 152.117C61.5658 151.84 61.1462 151.647 60.6999 151.55C60.2536 151.453 59.7915 151.456 59.3462 151.557C58.9008 151.658 58.4831 151.855 58.1223 152.135L48.8179 146.085L48.8533 151.849L57.6836 156.71C58.1941 157.285 58.8977 157.652 59.6612 157.743C60.4247 157.834 61.195 157.641 61.826 157.202C62.4571 156.763 62.9051 156.109 63.0852 155.362C63.2653 154.615 63.165 153.828 62.8032 153.15H62.8032Z" fill="#FFB8B8"/>
<path d="M52.7284 156.668C52.3577 156.668 52.0021 156.521 51.7399 156.259L39.8921 144.42C39.5136 144.044 39.2374 143.578 39.0897 143.065C38.942 142.553 38.9277 142.011 39.0482 141.492C40.0623 137.062 42.5336 126.476 43.577 123.869C44.3385 121.909 45.748 120.269 47.5715 119.22L47.6181 119.196L51.3689 119.889L51.6995 131.45L47.1685 141.151L56.8027 150.239C57.0562 150.477 57.2116 150.8 57.2385 151.147C57.2654 151.493 57.1618 151.837 56.948 152.111L53.8333 156.127C53.7117 156.283 53.5582 156.412 53.3828 156.505C53.2075 156.598 53.0144 156.653 52.8163 156.665C52.787 156.667 52.7576 156.668 52.7284 156.668Z" fill="#2F2E41"/>
<path d="M69.32 149.884C71.7219 149.884 73.6689 149.606 73.6689 149.263C73.6689 148.92 71.7219 148.642 69.32 148.642C66.9182 148.642 64.9711 148.92 64.9711 149.263C64.9711 149.606 66.9182 149.884 69.32 149.884Z" fill="#2F2E41"/>
</g>
<defs>
<clipPath id="clip0_548_20947">
<rect width="252" height="216" fill="white"/>
</clipPath>
</defs>
</svg>
