<svg width="322" height="189" viewBox="0 0 322 189" fill="none" xmlns="http://www.w3.org/2000/svg">
<g clip-path="url(#clip0_548_21348)">
<path d="M315.986 159.651H82.399C80.8045 159.649 79.2758 159.014 78.1483 157.885C77.0208 156.757 76.3866 155.226 76.3848 153.63V9.44877C76.3861 8.2794 76.8507 7.15829 77.6767 6.3314C78.5027 5.50452 79.6226 5.03937 80.7908 5.03802H317.518C318.706 5.03938 319.846 5.51255 320.686 6.35374C321.526 7.19492 321.999 8.33542 322 9.52502V153.63C321.998 155.226 321.364 156.757 320.237 157.885C319.109 159.014 317.58 159.649 315.986 159.651Z" fill="#F2F2F2"/>
<path d="M307.465 151.124H89.7679C86.5767 151.124 83.9805 148.69 83.9805 145.699V20.1435C83.9805 17.9251 85.9043 16.1201 88.2691 16.1201H308.893C311.296 16.1201 313.252 17.9548 313.252 20.2098V145.699C313.252 148.69 310.656 151.124 307.465 151.124Z" fill="white"/>
<path d="M321.916 9.10368H76.2998V6.03859C76.3021 4.43712 76.9389 2.90196 78.0705 1.7699C79.2022 0.637836 80.7361 0.00132212 82.336 0H315.88C317.48 0.00131441 319.014 0.637823 320.145 1.76989C321.277 2.90195 321.914 4.43712 321.916 6.03859V9.10368Z" fill="#CCCCCC"/>
<path d="M87.2703 6.12381C88.1326 6.12381 88.8316 5.42407 88.8316 4.5609C88.8316 3.69772 88.1326 2.99799 87.2703 2.99799C86.408 2.99799 85.709 3.69772 85.709 4.5609C85.709 5.42407 86.408 6.12381 87.2703 6.12381Z" fill="white"/>
<path d="M93.1961 6.12381C94.0584 6.12381 94.7574 5.42407 94.7574 4.5609C94.7574 3.69772 94.0584 2.99799 93.1961 2.99799C92.3338 2.99799 91.6348 3.69772 91.6348 4.5609C91.6348 5.42407 92.3338 6.12381 93.1961 6.12381Z" fill="white"/>
<path d="M99.1228 6.12381C99.9851 6.12381 100.684 5.42407 100.684 4.5609C100.684 3.69772 99.9851 2.99799 99.1228 2.99799C98.2606 2.99799 97.5615 3.69772 97.5615 4.5609C97.5615 5.42407 98.2606 6.12381 99.1228 6.12381Z" fill="white"/>
<path d="M124.515 127.772H70.2626C68.5714 127.77 66.95 127.097 65.7542 125.9C64.5584 124.703 63.8857 123.08 63.8838 121.387V57.113C63.8852 55.8469 64.3883 54.633 65.2826 53.7377C66.1769 52.8424 67.3895 52.3388 68.6544 52.3373H126.046C127.331 52.3388 128.563 52.8505 129.472 53.7601C130.381 54.6696 130.892 55.9029 130.893 57.1892V121.387C130.891 123.08 130.219 124.703 129.023 125.9C127.827 127.097 126.206 127.77 124.515 127.772Z" fill="white"/>
<path d="M124.515 127.772H70.2626C68.5714 127.77 66.95 127.097 65.7542 125.9C64.5584 124.703 63.8857 123.08 63.8838 121.387V57.113C63.8852 55.8469 64.3883 54.633 65.2826 53.7377C66.1769 52.8424 67.3895 52.3388 68.6544 52.3373H126.046C127.331 52.3388 128.563 52.8505 129.472 53.7601C130.381 54.6696 130.892 55.9029 130.893 57.1892V121.387C130.891 123.08 130.219 124.703 129.023 125.9C127.827 127.097 126.206 127.77 124.515 127.772ZM68.6544 53.0671C67.5828 53.0683 66.5555 53.495 65.7978 54.2535C65.0401 55.012 64.614 56.0403 64.6128 57.113V121.387C64.6145 122.886 65.2103 124.324 66.2694 125.384C67.3286 126.444 68.7647 127.041 70.2626 127.043H124.515C126.012 127.041 127.448 126.444 128.508 125.384C129.567 124.324 130.163 122.886 130.164 121.387V57.1892C130.163 56.0963 129.729 55.0486 128.957 54.2758C128.185 53.503 127.138 53.0683 126.046 53.0671H68.6544Z" fill="#3F3D56"/>
<path d="M97.3883 93.4286C103.573 93.4286 108.587 88.4096 108.587 82.2184C108.587 76.0271 103.573 71.0081 97.3883 71.0081C91.2033 71.0081 86.1895 76.0271 86.1895 82.2184C86.1895 88.4096 91.2033 93.4286 97.3883 93.4286Z" fill="#FA9978"/>
<path d="M115.329 109.1H79.4473V108.986C79.451 105.68 80.7645 102.511 83.0996 100.173C85.4347 97.8357 88.6007 96.5208 91.9031 96.5171H102.873C106.176 96.5208 109.342 97.8357 111.677 100.173C114.012 102.511 115.325 105.68 115.329 108.986V109.1Z" fill="#FA9978"/>
<path d="M66.1045 103.402C65.626 103.644 65.1004 103.777 64.5648 103.793C64.0292 103.809 63.4966 103.708 63.0044 103.495C62.5123 103.283 62.0727 102.966 61.7164 102.565C61.3602 102.164 61.0961 101.69 60.9427 101.176L47.9297 100.607L51.899 95.119L63.6478 96.5006C64.5274 96.2998 65.45 96.429 66.2408 96.8637C67.0316 97.2984 67.6356 98.0084 67.9384 98.8591C68.2413 99.7098 68.2218 100.642 67.8838 101.479C67.5458 102.317 66.9127 103.001 66.1045 103.402Z" fill="#FFB8B8"/>
<path d="M29.9756 98.2009L22.8195 84.4046C21.8334 82.5089 21.3983 80.3743 21.5635 78.2433C21.7287 76.1124 22.4876 74.0705 23.7541 72.3497C24.009 72.0091 24.2795 71.6777 24.5582 71.365C25.6948 70.0871 27.1115 69.0898 28.6972 68.451C30.283 67.8123 31.9948 67.5495 33.6989 67.6831C35.4605 67.8029 37.1705 68.3291 38.6952 69.2204C40.2199 70.1117 41.518 71.344 42.4878 72.8209L45.9244 78.0211C46.2762 78.3356 51.0066 82.7052 49.2469 88.391L48.9444 93.8433C48.9233 94.1976 48.7887 94.5357 48.5605 94.8073C48.3323 95.079 48.0228 95.2698 47.6777 95.3514L31.8025 99.0435C31.4478 99.1264 31.0755 99.0885 30.7447 98.9359C30.4138 98.7834 30.1432 98.5247 29.9756 98.2009L29.9756 98.2009Z" fill="#FA9978"/>
<path d="M24.9565 124.383C24.5828 123.999 24.2979 123.537 24.1217 123.03C23.9456 122.524 23.8826 121.985 23.9371 121.451C23.9916 120.917 24.1623 120.402 24.4372 119.942C24.7121 119.481 25.0845 119.087 25.5282 118.786L22.1641 106.19L28.5854 108.333L30.7956 119.966C31.251 120.745 31.4048 121.665 31.2279 122.551C31.0511 123.436 30.5559 124.226 29.8362 124.771C29.1164 125.315 28.2222 125.576 27.3228 125.505C26.4235 125.434 25.5815 125.034 24.9565 124.383H24.9565Z" fill="#FFB8B8"/>
<path d="M23.3793 118.423C23.1435 118.309 22.9388 118.139 22.7826 117.929C22.6264 117.718 22.5233 117.473 22.4822 117.214L20.267 95.7006C19.9688 93.9538 19.9248 92.173 20.1362 90.4136L22.7917 74.3159C22.9024 73.3763 23.3709 72.5157 24.0997 71.9134C24.8285 71.3111 25.7614 71.0134 26.704 71.0824C27.1998 71.1178 27.6832 71.2535 28.1252 71.4812C28.5671 71.7089 28.9583 72.024 29.2752 72.4073C29.5921 72.7906 29.828 73.2342 29.9688 73.7114C30.1096 74.1886 30.1522 74.6894 30.0942 75.1835L27.9263 93.6498L30.409 115.43C30.4475 115.757 30.3863 116.088 30.2334 116.379C30.0806 116.671 29.8433 116.91 29.5526 117.064L24.8562 118.406C24.629 118.526 24.3766 118.59 24.1198 118.593C23.8631 118.596 23.6093 118.538 23.3793 118.423L23.3793 118.423Z" fill="#FA9978"/>
<path d="M58.9587 184.028L63.3491 183.195L62.2268 165.846L55.7471 167.076L58.9587 184.028Z" fill="#FFB8B8"/>
<path d="M57.5674 182.806L66.2137 181.164L66.2141 181.164C66.9377 181.027 67.6813 181.034 68.4023 181.184C69.1233 181.334 69.8077 181.625 70.4164 182.04C71.0251 182.455 71.5462 182.986 71.9498 183.603C72.3535 184.22 72.6319 184.91 72.7691 185.634L72.803 185.813L58.6464 188.501L57.5674 182.806Z" fill="#2F2E41"/>
<path d="M20.1062 184.164L24.575 184.164L26.7008 166.91L20.1055 166.91L20.1062 184.164Z" fill="#FFB8B8"/>
<path d="M18.9668 182.704L27.7673 182.703H27.7676C28.5041 182.703 29.2334 182.849 29.9139 183.131C30.5943 183.413 31.2126 183.826 31.7334 184.348C32.2542 184.869 32.6673 185.488 32.9491 186.169C33.231 186.85 33.376 187.58 33.376 188.318V188.5L18.9671 188.5L18.9668 182.704Z" fill="#2F2E41"/>
<path d="M33.182 63.8136C38.1264 63.8136 42.1346 59.8013 42.1346 54.8519C42.1346 49.9025 38.1264 45.8902 33.182 45.8902C28.2377 45.8902 24.2295 49.9025 24.2295 54.8519C24.2295 59.8013 28.2377 63.8136 33.182 63.8136Z" fill="#FFB8B8"/>
<path d="M19.3706 177.23C19.2167 177.064 19.0987 176.868 19.0237 176.654C18.9488 176.44 18.9186 176.214 18.935 175.988L25.0286 120.618C24.9762 120.099 24.1486 110.698 30.8639 98.6681L30.901 98.6017L48.8957 93.6066L50.8854 102.008L64.2199 175.06C64.2677 175.482 64.1497 175.906 63.8909 176.243C63.632 176.579 63.2526 176.802 62.8328 176.864L58.1915 177.561C57.7994 177.62 57.3994 177.534 57.0653 177.321C56.7312 177.107 56.4857 176.78 56.3741 176.399L40.6597 127.13C40.6268 127.017 40.5582 126.917 40.464 126.846C40.3698 126.775 40.2551 126.736 40.1371 126.735C40.0191 126.735 39.9041 126.772 39.8092 126.843C39.7144 126.913 39.6448 127.012 39.6108 127.125L26.719 176.569C26.6187 176.91 26.4112 177.209 26.1274 177.422C25.8437 177.635 25.4987 177.751 25.1438 177.753H20.5706C20.3455 177.752 20.1229 177.706 19.9165 177.616C19.7101 177.526 19.5243 177.394 19.3706 177.23Z" fill="#2F2E41"/>
<path d="M57.4019 102.404L38.0132 99.0764C36.7528 98.8646 35.5857 98.2768 34.6646 97.3899C33.7436 96.5031 33.1115 95.3585 32.8511 94.106L28.8026 74.9653C28.6454 74.2223 28.6521 73.454 28.822 72.7139C28.992 71.9739 29.3212 71.2798 29.7867 70.6801C30.2521 70.0805 30.8427 69.5897 31.5171 69.242C32.1915 68.8943 32.9336 68.698 33.6916 68.6669C35.0023 68.6193 36.2832 69.0651 37.2816 69.9165C38.28 70.7678 38.9234 71.9629 39.0848 73.2658L41.1165 90.3267L58.2207 94.7754C58.5442 94.8869 58.8248 95.0968 59.0231 95.3759C59.2214 95.655 59.3276 95.9891 59.3267 96.3316L59.3194 100.79C59.319 101.029 59.2666 101.265 59.1657 101.481C59.0648 101.698 58.9179 101.889 58.7353 102.043C58.5527 102.197 58.3388 102.309 58.1085 102.371C57.8782 102.434 57.6371 102.445 57.4019 102.404H57.4019Z" fill="#FA9978"/>
<path d="M40.7977 52.7712C42.2228 52.4762 43.6084 51.5271 43.9891 50.1212C44.3217 48.893 43.8297 47.5687 43.0595 46.5563C42.0553 45.3036 40.6616 44.4229 39.0999 44.0542C37.5382 43.6854 35.8982 43.8499 34.4406 44.5214C34.5782 43.7972 34.034 43.0827 33.3644 42.7759C32.6712 42.5197 31.93 42.4201 31.1939 42.4841C28.8647 42.5167 26.385 42.5946 24.4591 43.9063C22.9235 44.9523 21.9485 46.6722 21.4433 48.4615C20.9382 50.2507 20.8557 52.1282 20.7763 53.9859C20.637 57.2416 21.9114 64.094 21.9114 64.094C21.9114 64.094 26.4178 65.3342 28.392 65.9088C30.5135 66.5262 34.093 67.1437 36.2145 67.7611C36.7575 67.9192 37.4846 68.0079 37.7575 67.5121C37.9754 67.1163 37.7234 66.6342 37.4701 66.2601C36.3546 64.6131 35.0766 63.0597 34.2185 61.2648C33.3603 59.4698 32.9588 57.337 33.6956 55.4888C34.4324 53.6407 39.3727 53.0661 40.7977 52.7712Z" fill="#2F2E41"/>
<path d="M181.363 115.832H297.945C299.492 115.832 300.975 115.217 302.069 114.122C303.163 113.027 303.777 111.542 303.777 109.994V57.2518C303.777 55.7035 303.163 54.2186 302.069 53.1237C300.975 52.0289 299.492 51.4138 297.945 51.4138H181.363C179.817 51.4138 178.333 52.0289 177.239 53.1237C176.146 54.2186 175.531 55.7035 175.531 57.2518V109.994C175.531 111.542 176.146 113.027 177.239 114.122C178.333 115.217 179.817 115.832 181.363 115.832Z" fill="#F2F2F2"/>
<path d="M285.217 86.5411H192.27C191.496 86.5411 190.754 86.2336 190.208 85.6862C189.661 85.1387 189.354 84.3963 189.354 83.6221C189.354 82.848 189.661 82.1055 190.208 81.5581C190.754 81.0107 191.496 80.7031 192.27 80.7031H285.217C285.991 80.7031 286.733 81.0107 287.279 81.5581C287.826 82.1055 288.134 82.848 288.134 83.6221C288.134 84.3963 287.826 85.1387 287.279 85.6862C286.733 86.2336 285.991 86.5411 285.217 86.5411Z" fill="white"/>
<path d="M285.217 98.9468H192.27C191.496 98.9468 190.754 98.6392 190.208 98.0918C189.661 97.5444 189.354 96.8019 189.354 96.0278C189.354 95.2536 189.661 94.5111 190.208 93.9637C190.754 93.4163 191.496 93.1088 192.27 93.1088H285.217C285.991 93.1088 286.733 93.4163 287.279 93.9637C287.826 94.5111 288.134 95.2536 288.134 96.0278C288.134 96.8019 287.826 97.5444 287.279 98.0918C286.733 98.6392 285.991 98.9468 285.217 98.9468Z" fill="white"/>
<path d="M268.815 74.1354H192.27C191.496 74.1354 190.754 73.8278 190.208 73.2804C189.661 72.733 189.354 71.9905 189.354 71.2164C189.354 70.4422 189.661 69.6997 190.208 69.1523C190.754 68.6049 191.496 68.2974 192.27 68.2974H268.815C269.588 68.2974 270.33 68.6049 270.877 69.1523C271.424 69.6997 271.731 70.4422 271.731 71.2164C271.731 71.9905 271.424 72.733 270.877 73.2804C270.33 73.8278 269.588 74.1354 268.815 74.1354Z" fill="white"/>
<path d="M87.4805 189H0.364502C0.26783 189 0.175117 188.962 0.10676 188.893C0.0384025 188.825 0 188.732 0 188.635C0 188.538 0.0384025 188.446 0.10676 188.377C0.175117 188.309 0.26783 188.27 0.364502 188.27H87.4805C87.5771 188.27 87.6698 188.309 87.7382 188.377C87.8066 188.446 87.845 188.538 87.845 188.635C87.845 188.732 87.8066 188.825 87.7382 188.893C87.6698 188.962 87.5771 189 87.4805 189Z" fill="#CCCCCC"/>
</g>
<defs>
<clipPath id="clip0_548_21348">
<rect width="322" height="189" fill="white"/>
</clipPath>
</defs>
</svg>
