<svg width="24" height="24" viewBox="0 0 24 24" fill="none" xmlns="http://www.w3.org/2000/svg">
<path d="M12.25 5.5C11.36 5.5 10.49 5.76392 9.74994 6.25839C9.00991 6.75285 8.43314 7.45566 8.09254 8.27792C7.75195 9.10019 7.66283 10.005 7.83647 10.8779C8.0101 11.7508 8.43869 12.5526 9.06802 13.182C9.69736 13.8113 10.4992 14.2399 11.3721 14.4135C12.245 14.5872 13.1498 14.498 13.9721 14.1575C14.7943 13.8169 15.4971 13.2401 15.9916 12.5001C16.4861 11.76 16.75 10.89 16.75 10C16.75 8.80652 16.2759 7.66193 15.432 6.81802C14.5881 5.97411 13.4435 5.5 12.25 5.5ZM12.25 12.7C11.716 12.7 11.194 12.5416 10.75 12.245C10.3059 11.9483 9.95988 11.5266 9.75553 11.0332C9.55117 10.5399 9.4977 9.997 9.60188 9.47326C9.70606 8.94951 9.96321 8.46841 10.3408 8.09081C10.7184 7.71321 11.1995 7.45606 11.7233 7.35188C12.247 7.2477 12.7899 7.30117 13.2832 7.50552C13.7766 7.70988 14.1983 8.05595 14.495 8.49996C14.7916 8.94397 14.95 9.46599 14.95 10C14.9493 10.7159 14.6646 11.4022 14.1584 11.9084C13.6522 12.4146 12.9659 12.6993 12.25 12.7Z" fill="#151821"/>
<path d="M12.5 1C10.2255 1 8.00211 1.67446 6.11095 2.9381C4.21978 4.20174 2.7458 5.99779 1.87539 8.09914C1.00498 10.2005 0.777244 12.5128 1.22097 14.7435C1.6647 16.9743 2.75997 19.0234 4.36828 20.6317C5.97658 22.24 8.02568 23.3353 10.2565 23.779C12.4872 24.2228 14.7995 23.995 16.9009 23.1246C19.0022 22.2542 20.7983 20.7802 22.0619 18.8891C23.3255 16.9979 24 14.7745 24 12.5C23.9965 9.45108 22.7838 6.52803 20.6279 4.37211C18.472 2.2162 15.5489 1.00348 12.5 1ZM7.57143 21.024V19.8929C7.57209 19.2395 7.83192 18.6131 8.29393 18.1511C8.75593 17.6891 9.38235 17.4292 10.0357 17.4286H14.9643C15.6177 17.4292 16.2441 17.6891 16.7061 18.1511C17.1681 18.6131 17.4279 19.2395 17.4286 19.8929V21.024C15.9329 21.8973 14.232 22.3575 12.5 22.3575C10.768 22.3575 9.06712 21.8973 7.57143 21.024ZM19.0649 19.8321C19.0485 18.7546 18.6095 17.7267 17.8425 16.9699C17.0755 16.213 16.0419 15.7877 14.9643 15.7857H10.0357C8.95815 15.7877 7.92451 16.213 7.15751 16.9699C6.3905 17.7267 5.95152 18.7546 5.93515 19.8321C4.44554 18.502 3.39507 16.7508 2.92283 14.8104C2.4506 12.87 2.57887 10.832 3.29067 8.9661C4.00247 7.10023 5.26422 5.49458 6.90884 4.36175C8.55347 3.22892 10.5034 2.62234 12.5004 2.62234C14.4974 2.62234 16.4474 3.22892 18.092 4.36175C19.7366 5.49458 20.9984 7.10023 21.7102 8.9661C22.422 10.832 22.5502 12.87 22.078 14.8104C21.6058 16.7508 20.5553 18.502 19.0657 19.8321H19.0649Z" fill="#151821"/>
</svg>
