<svg xmlns="http://www.w3.org/2000/svg" width="29.69" height="32.299" viewBox="0 0 29.69 32.299"><defs><style>.a{fill:#f84400;}</style></defs><g transform="translate(-12.1 -9)"><g transform="translate(12.1 9)"><path class="a" d="M37.1,24.445h0a7.723,7.723,0,1,0-7.7-7.7A7.758,7.758,0,0,0,37.1,24.445Zm0-12.961A5.259,5.259,0,0,1,37.1,22h0a5.259,5.259,0,0,1,0-10.518Z" transform="translate(-22.236 -9)"/><path class="a" d="M38.312,53.135a9.276,9.276,0,0,0-4.928-1.946,1.136,1.136,0,0,0-.952.331,7.631,7.631,0,0,1-5.466,2.195A7.881,7.881,0,0,1,21.5,51.52a1.182,1.182,0,0,0-.952-.331,8.659,8.659,0,0,0-4.928,1.946c-.929.7-3.055,2.44-3.478,6.667,0,.166-.041.373-.041.538v1.532a4.153,4.153,0,0,0,4.141,4.141H37.649a4.153,4.153,0,0,0,4.141-4.141V60.34a2.361,2.361,0,0,0-.041-.538A11.169,11.169,0,0,0,38.312,53.135Zm1.035,8.737a1.661,1.661,0,0,1-1.656,1.656H16.241a1.661,1.661,0,0,1-1.656-1.656V60.34A6.637,6.637,0,0,1,20.216,53.8a10.331,10.331,0,0,0,6.75,2.526,10.118,10.118,0,0,0,6.75-2.526,6.74,6.74,0,0,1,5.3,4.514c0,.083.075.146.075.27a2.618,2.618,0,0,1,.173.807,8.042,8.042,0,0,1,.083.994Z" transform="translate(-12.1 -33.714)"/></g></g></svg>