<svg xmlns="http://www.w3.org/2000/svg" xmlns:xlink="http://www.w3.org/1999/xlink" width="55.577" height="62.606" viewBox="0 0 55.577 62.606"><defs><style>.a{stroke:#000;}.b{filter:url(#a);}</style><filter id="a" x="0" y="0" width="55.577" height="62.606" filterUnits="userSpaceOnUse"><feOffset dx="2" dy="2" input="SourceAlpha"/><feGaussianBlur stdDeviation="3" result="b"/><feFlood flood-opacity="0.502"/><feComposite operator="in" in2="b"/><feComposite in="SourceGraphic"/></filter></defs><g transform="translate(7.509 7.5)"><g class="b" transform="matrix(1, 0, 0, 1, -7.51, -7.5)"><path class="a" d="M39.595,100.115C39.526,85.932,25.32,85.541,23.688,85.541h-.276l-.759-.023c-3.264,0-14,1.035-15.539,14.321,0,.069-.253,1.563-3.655,6.873a2.454,2.454,0,0,0-.368,1.747,2.417,2.417,0,0,0,1.2,1.494,24.246,24.246,0,0,0,2.85,1.4,28.635,28.635,0,0,0,.023,6.275c.437,2.253,4.138,2.575,6.321,2.575h.575l.115-.023a5.85,5.85,0,0,1,.6.069v4.942a2.74,2.74,0,0,0,1.264,2.322,16.347,16.347,0,0,0,7.746,1.609,16.368,16.368,0,0,0,7.655-1.586,2.438,2.438,0,0,0,1.172-2.46,16.161,16.161,0,0,1,1.034-8.758,10.925,10.925,0,0,1,1.655-2.391c1.908-2.368,4.321-5.287,4.321-13.723Zm-1.494.092c0,7.908-2.23,10.6-4,12.758a12.962,12.962,0,0,0-1.839,2.735,17.617,17.617,0,0,0-1.149,9.586.919.919,0,0,1-.414.942c-3.287,1.885-10.666,1.862-13.884-.023a1.149,1.149,0,0,1-.552-1.011v-4.942c0-.759-.552-1.563-2.092-1.563l-.207.023h-.483c-2.689,0-4.689-.552-4.85-1.356a31.474,31.474,0,0,1,.069-6.413.706.706,0,0,0-.483-.782,23.722,23.722,0,0,1-3.172-1.517.8.8,0,0,1-.46-.506.753.753,0,0,1,.138-.575v-.023c3.632-5.678,3.885-7.333,3.885-7.562,1.4-12.022,11.1-12.942,14.045-12.942h1.034c2.391,0,14.344.621,14.413,13.079h.736Z" transform="translate(4.46 -78.02)"/></g></g></svg>