<svg xmlns="http://www.w3.org/2000/svg" width="84.46" height="91.882" viewBox="0 0 84.46 91.882"><defs><style>.a{fill:#f84400;}</style></defs><g transform="translate(0)"><g transform="translate(0 0)"><path class="a" d="M51.31,52.938h0A21.969,21.969,0,1,0,29.4,31.028,22.07,22.07,0,0,0,51.31,52.938Zm0-36.87a14.961,14.961,0,0,1,0,29.92h0a14.961,14.961,0,0,1,0-29.92Z" transform="translate(-9.021 -9)"/><path class="a" d="M86.665,56.74A26.387,26.387,0,0,0,72.647,51.2a3.232,3.232,0,0,0-2.709.942,21.709,21.709,0,0,1-15.549,6.243A22.419,22.419,0,0,1,38.84,52.146a3.364,3.364,0,0,0-2.709-.942A24.633,24.633,0,0,0,22.113,56.74c-2.642,2-8.691,6.941-9.895,18.965,0,.471-.118,1.06-.118,1.531V81.6a11.814,11.814,0,0,0,11.78,11.78h60.9A11.814,11.814,0,0,0,96.56,81.6V77.237a6.718,6.718,0,0,0-.118-1.531C96,70.954,92.65,61.605,86.665,56.74ZM89.61,81.6A4.726,4.726,0,0,1,84.9,86.307H23.88A4.726,4.726,0,0,1,19.168,81.6V77.237a18.882,18.882,0,0,1,16.02-18.612,29.387,29.387,0,0,0,19.2,7.186,28.784,28.784,0,0,0,19.2-7.186,19.173,19.173,0,0,1,15.078,12.84c0,.236.213.414.213.768a7.447,7.447,0,0,1,.493,2.295,22.878,22.878,0,0,1,.236,2.827Z" transform="translate(-12.1 -1.493)"/></g></g></svg>