<svg xmlns="http://www.w3.org/2000/svg" width="77.893" height="94.182" viewBox="0 0 77.893 94.182"><defs><style>.a{fill:#f84400;stroke:#f84400;stroke-width:0.3px;}</style></defs><g transform="translate(0.15 0.15)"><path class="a" d="M83.061,2.5H29.753a5.267,5.267,0,0,0-5.232,5.232v8.589H15.932A5.267,5.267,0,0,0,10.7,21.553v69.6a5.267,5.267,0,0,0,5.232,5.232H69.24a5.267,5.267,0,0,0,5.232-5.232V82.561h8.589a5.267,5.267,0,0,0,5.232-5.232V7.732A5.333,5.333,0,0,0,83.061,2.5ZM70.227,91.051a.912.912,0,0,1-.987.888H15.932a.885.885,0,0,1-.888-.888v-69.6a.885.885,0,0,1,.888-.888h8.589V77.329a5.267,5.267,0,0,0,5.232,5.232H70.227ZM83.949,77.329a.989.989,0,0,1-.987.987H29.753a.989.989,0,0,1-.987-.987V7.732a.989.989,0,0,1,.987-.987H83.061a.989.989,0,0,1,.987.987v69.6Z" transform="translate(-10.7 -2.5)"/><path class="a" d="M72.561,53.2H40.872a2.172,2.172,0,0,0,0,4.344H72.561a2.172,2.172,0,0,0,0-4.344Z" transform="translate(-11.059 -3.149)"/><path class="a" d="M72.561,66.2H40.872a2.172,2.172,0,0,0,0,4.344H72.561a2.172,2.172,0,0,0,0-4.344Z" transform="translate(-11.059 -3.316)"/><path class="a" d="M72.561,40.3H40.872a2.172,2.172,0,0,0,0,4.344H72.561a2.191,2.191,0,0,0,2.172-2.172A2.129,2.129,0,0,0,72.561,40.3Z" transform="translate(-11.059 -2.984)"/><path class="a" d="M44.69,31.9h3.85a.779.779,0,0,0,.79-.79V24.99a.779.779,0,0,0-.79-.79H44.69a.779.779,0,0,0-.79.79V31.11A.849.849,0,0,0,44.69,31.9Z" transform="translate(-11.125 -2.778)"/><path class="a" d="M54.39,31.842h3.85a.779.779,0,0,0,.79-.79V20.49a.779.779,0,0,0-.79-.79H54.39a.779.779,0,0,0-.79.79V30.954A.87.87,0,0,0,54.39,31.842Z" transform="translate(-11.25 -2.72)"/><path class="a" d="M64.09,31.787h3.85a.779.779,0,0,0,.79-.79V16.19a.849.849,0,0,0-.79-.79H64.09a.779.779,0,0,0-.79.79V31A.849.849,0,0,0,64.09,31.787Z" transform="translate(-11.374 -2.665)"/></g></svg>