<svg xmlns="http://www.w3.org/2000/svg" width="25.194" height="38.459" viewBox="0 0 25.194 38.459"><defs><style>.a{fill:#f84400;}</style></defs><g transform="translate(0)"><path class="a" d="M119.732,196.552H101.01a3.24,3.24,0,0,1-3.236-3.236V166.569a3.239,3.239,0,0,1,3.236-3.235h2.879a.648.648,0,0,1,.647.619,1.911,1.911,0,0,0,1.91,1.84H114.3a1.912,1.912,0,0,0,1.91-1.84.646.646,0,0,1,.646-.619h2.88a3.239,3.239,0,0,1,3.235,3.235v26.747A3.239,3.239,0,0,1,119.732,196.552ZM101.01,164.628a1.943,1.943,0,0,0-1.942,1.941v26.747a1.944,1.944,0,0,0,1.942,1.941h18.722a1.944,1.944,0,0,0,1.942-1.941V166.569a1.943,1.943,0,0,0-1.942-1.941h-2.319a3.2,3.2,0,0,1-3.116,2.458h-7.851a3.2,3.2,0,0,1-3.117-2.458Z" transform="translate(-97.774 -158.093)"/><path class="a" d="M112.137,163.533a3.214,3.214,0,1,1,3.214-3.213A3.217,3.217,0,0,1,112.137,163.533Zm0-5.134a1.92,1.92,0,1,0,1.92,1.92A1.922,1.922,0,0,0,112.137,158.4Z" transform="translate(-99.541 -157.106)"/><path class="a" d="M115.324,166.583h-7.851a3.214,3.214,0,1,1,0-6.427h1.358a.647.647,0,0,1,.647.647,1.92,1.92,0,0,0,3.839,0,.647.647,0,0,1,.647-.647h1.359a3.214,3.214,0,1,1,0,6.427Zm-7.851-5.133a1.92,1.92,0,1,0,0,3.839h7.851a1.92,1.92,0,1,0,0-3.839h-.778a3.214,3.214,0,0,1-6.3,0Z" transform="translate(-98.802 -157.589)"/><path class="a" d="M119.81,193.588H102.1a.647.647,0,0,1-.647-.647V168.7a.647.647,0,1,1,1.294,0v23.6h16.421V168.7a.647.647,0,1,1,1.294,0v24.244A.647.647,0,0,1,119.81,193.588Z" transform="translate(-98.356 -158.84)"/><path class="a" d="M117.033,172.727H106.161a.647.647,0,1,1,0-1.294h10.871a.647.647,0,1,1,0,1.294Z" transform="translate(-99.001 -159.376)"/><path class="a" d="M117.033,177.238H106.161a.647.647,0,1,1,0-1.294h10.871a.647.647,0,1,1,0,1.294Z" transform="translate(-99.001 -160.091)"/><path class="a" d="M117.033,181.749H106.161a.647.647,0,1,1,0-1.294h10.871a.647.647,0,1,1,0,1.294Z" transform="translate(-99.001 -160.805)"/><path class="a" d="M117.033,186.26H106.161a.647.647,0,1,1,0-1.294h10.871a.647.647,0,1,1,0,1.294Z" transform="translate(-99.001 -161.52)"/><path class="a" d="M117.033,190.771H106.161a.647.647,0,1,1,0-1.294h10.871a.647.647,0,1,1,0,1.294Z" transform="translate(-99.001 -162.234)"/></g></svg>