<svg xmlns="http://www.w3.org/2000/svg" width="26.253" height="31.701" viewBox="0 0 26.253 31.701"><defs><style>.a{fill:#f84400;stroke:#f84400;stroke-width:0.3px;}</style></defs><g transform="translate(0.15 0.15)"><path class="a" d="M34.9,2.5H17.073a1.762,1.762,0,0,0-1.75,1.75V7.123H12.45a1.762,1.762,0,0,0-1.75,1.75V32.151a1.762,1.762,0,0,0,1.75,1.75H30.28a1.762,1.762,0,0,0,1.75-1.75V29.279H34.9a1.762,1.762,0,0,0,1.75-1.75V4.25A1.784,1.784,0,0,0,34.9,2.5ZM30.611,32.118a.3.3,0,0,1-.33.3H12.45a.3.3,0,0,1-.3-.3V8.84a.3.3,0,0,1,.3-.3h2.873V27.529a1.762,1.762,0,0,0,1.75,1.75H30.611Zm4.59-4.59a.331.331,0,0,1-.33.33h-17.8a.331.331,0,0,1-.33-.33V4.25a.331.331,0,0,1,.33-.33H34.9a.331.331,0,0,1,.33.33V27.529Z" transform="translate(-10.7 -2.5)"/><path class="a" d="M50.026,53.2h-10.6a.726.726,0,0,0,0,1.453h10.6a.726.726,0,0,0,0-1.453Z" transform="translate(-29.455 -36.459)"/><path class="a" d="M50.026,66.2h-10.6a.726.726,0,0,0,0,1.453h10.6a.726.726,0,1,0,0-1.453Z" transform="translate(-29.455 -45.167)"/><path class="a" d="M50.026,40.3h-10.6a.726.726,0,0,0,0,1.453h10.6a.733.733,0,0,0,.726-.726A.712.712,0,0,0,50.026,40.3Z" transform="translate(-29.455 -27.819)"/><path class="a" d="M44.164,26.776h1.288a.26.26,0,0,0,.264-.264V24.464a.26.26,0,0,0-.264-.264H44.164a.26.26,0,0,0-.264.264v2.047A.284.284,0,0,0,44.164,26.776Z" transform="translate(-32.938 -17.035)"/><path class="a" d="M53.864,23.761h1.288a.26.26,0,0,0,.264-.264V19.964a.26.26,0,0,0-.264-.264H53.864a.26.26,0,0,0-.264.264v3.5A.291.291,0,0,0,53.864,23.761Z" transform="translate(-39.435 -14.021)"/><path class="a" d="M63.564,20.881h1.288a.26.26,0,0,0,.264-.264V15.664a.284.284,0,0,0-.264-.264H63.564a.26.26,0,0,0-.264.264v4.953A.284.284,0,0,0,63.564,20.881Z" transform="translate(-45.932 -11.141)"/></g></svg>