<svg id="Component_96_1" data-name="Component 96 – 1" xmlns="http://www.w3.org/2000/svg" width="78.291" height="78.291" viewBox="0 0 78.291 78.291">
  <g id="Group_2524" data-name="Group 2524" transform="translate(15.353 8.45)">
    <path id="Path_1844" data-name="Path 1844" d="M1363.1,493.747" transform="translate(-1322.432 -448.543)" fill="#f05a26"/>
    <path id="Path_1845" data-name="Path 1845" d="M1286.659,416.731h9.544a1.249,1.249,0,0,0,1.249-1.249v-9.544a1.248,1.248,0,0,0-1.249-1.249h-9.544a1.249,1.249,0,0,0-1.249,1.249v9.544A1.249,1.249,0,0,0,1286.659,416.731Zm1.249-9.544h7.047v7.046h-7.047Z" transform="translate(-1277.785 -397.367)" fill="#f05a26"/>
    <path id="Path_1846" data-name="Path 1846" d="M1286.659,450H1316.5a1.249,1.249,0,0,0,0-2.5h-29.839a1.249,1.249,0,1,0,0,2.5Z" transform="translate(-1277.785 -421.969)" fill="#f05a26"/>
    <path id="Path_1847" data-name="Path 1847" d="M1327.264,408.755h12.568a1.249,1.249,0,0,0,0-2.5h-12.568a1.249,1.249,0,0,0,0,2.5Z" transform="translate(-1301.118 -398.267)" fill="#f05a26"/>
    <path id="Path_1848" data-name="Path 1848" d="M1327.264,429.377h12.568a1.249,1.249,0,0,0,0-2.5h-12.568a1.249,1.249,0,0,0,0,2.5Z" transform="translate(-1301.118 -410.118)" fill="#f05a26"/>
    <path id="Path_1849" data-name="Path 1849" d="M1316.5,470.622a1.249,1.249,0,0,0,0-2.5h-29.839a1.249,1.249,0,1,0,0,2.5Z" transform="translate(-1277.785 -433.819)" fill="#f05a26"/>
    <path id="Path_1850" data-name="Path 1850" d="M1316.5,491.244a1.249,1.249,0,0,0,0-2.5h-29.839a1.249,1.249,0,1,0,0,2.5Z" transform="translate(-1277.785 -445.67)" fill="#f05a26"/>
    <path id="Path_1851" data-name="Path 1851" d="M1316.5,511.866a1.249,1.249,0,0,0,0-2.5h-29.839a1.249,1.249,0,1,0,0,2.5Z" transform="translate(-1277.785 -457.52)" fill="#f05a26"/>
    <path id="Path_1852" data-name="Path 1852" d="M1315.07,431.429V392.47a5,5,0,0,0-5-5h-37.6a5,5,0,0,0-5,5v51.4a5,5,0,0,0,5,5h37.6a5,5,0,0,0,5-5v-12.44Zm-2.5,12.44a2.5,2.5,0,0,1-2.5,2.5h-37.6a2.5,2.5,0,0,1-2.5-2.5v-51.4a2.5,2.5,0,0,1,2.5-2.5h37.6a2.5,2.5,0,0,1,2.5,2.5v51.4Z" transform="translate(-1267.483 -387.474)" fill="#f05a26"/>
  </g>
  <g id="Group_2525" data-name="Group 2525">
    <path id="Path_1853" data-name="Path 1853" d="M1384.31,370.152h10.7v10.7h2.544V367.607H1384.31Z" transform="translate(-1319.265 -367.607)" fill="#f05a26"/>
    <path id="Path_1854" data-name="Path 1854" d="M1395.012,520.526v10.7h-10.7v2.545h13.247V520.526Z" transform="translate(-1319.265 -455.482)" fill="#f05a26"/>
    <path id="Path_1855" data-name="Path 1855" d="M1233.935,380.854v-10.7h10.7v-2.545H1231.39v13.247Z" transform="translate(-1231.39 -367.607)" fill="#f05a26"/>
    <path id="Path_1856" data-name="Path 1856" d="M1244.637,531.229h-10.7v-10.7h-2.545v13.247h13.247Z" transform="translate(-1231.39 -455.482)" fill="#f05a26"/>
  </g>
</svg>
