<svg xmlns="http://www.w3.org/2000/svg" xmlns:xlink="http://www.w3.org/1999/xlink" width="106.518" height="112.672" viewBox="0 0 106.518 112.672"><defs><style>.a{fill:#fff;}.b{filter:url(#e);}.c{filter:url(#c);}.d{filter:url(#a);}</style><filter id="a" x="0" y="27.562" width="106.518" height="85.11" filterUnits="userSpaceOnUse"><feOffset dx="2" dy="2" input="SourceAlpha"/><feGaussianBlur stdDeviation="3" result="b"/><feFlood flood-opacity="0.502"/><feComposite operator="in" in2="b"/><feComposite in="SourceGraphic"/></filter><filter id="c" x="62.093" y="36.589" width="31.561" height="31.605" filterUnits="userSpaceOnUse"><feOffset dx="2" dy="2" input="SourceAlpha"/><feGaussianBlur stdDeviation="3" result="d"/><feFlood flood-opacity="0.502"/><feComposite operator="in" in2="d"/><feComposite in="SourceGraphic"/></filter><filter id="e" x="37.413" y="0" width="69.105" height="65.403" filterUnits="userSpaceOnUse"><feOffset dx="2" dy="2" input="SourceAlpha"/><feGaussianBlur stdDeviation="3" result="f"/><feFlood flood-opacity="0.502"/><feComposite operator="in" in2="f"/><feComposite in="SourceGraphic"/></filter></defs><g transform="translate(7 7)"><g transform="translate(0 27.562)"><g class="d" transform="matrix(1, 0, 0, 1, -7, -34.56)"><path class="a" d="M95.1,81.13h-3.75a1.49,1.49,0,0,0-1.483,1.439,1.453,1.453,0,0,0,1.483,1.4h2.311V128.7H81.318L66.971,109.779a4.295,4.295,0,0,0-6.846,0l-7.5,9.942L39.544,102.453a4.275,4.275,0,0,0-3.4-1.7,4.359,4.359,0,0,0-3.445,1.7L20.009,119.241V83.964H42.553a1.415,1.415,0,0,0,1.439-1.4,1.452,1.452,0,0,0-1.439-1.439H18.57a1.415,1.415,0,0,0-1.4,1.439v7.762H9.413a1.388,1.388,0,0,0-1.439,1.4v55.118a1.415,1.415,0,0,0,1.439,1.4H85.9a1.444,1.444,0,0,0,1.439-1.4v-7.762H95.1a1.415,1.415,0,0,0,1.4-1.439V82.569A1.415,1.415,0,0,0,95.1,81.13Zm-32.7,30.35a1.538,1.538,0,0,1,2.311,0l3.576,4.84-.218-.044a7.72,7.72,0,0,0-5.494,2.268,5.014,5.014,0,0,1-6.061.741ZM34.965,104.2a1.538,1.538,0,0,1,2.311,0l4.448,5.887a8.488,8.488,0,0,0-6.584,2.486,5.788,5.788,0,0,1-7.02.7Zm-8.59,11.381a8.456,8.456,0,0,0,10.814-1.046,5.66,5.66,0,0,1,7.892,0l5.712,7.544L40.111,136.248h-20.1v-12.3Zm58.082,29.826H10.808V93.165h6.366v44.478a1.415,1.415,0,0,0,1.4,1.439H84.457Zm-40.771-9.157L54.762,121.6a7.877,7.877,0,0,0,9.855-1.047,5.061,5.061,0,0,1,6.933,0l7.892,10.466a1.434,1.434,0,0,0,1.177.523H93.658v4.709Z" transform="translate(-0.97 -46.57)"/></g></g><g transform="translate(62.093 36.589)"><g class="c" transform="matrix(1, 0, 0, 1, -69.09, -43.59)"><path class="a" d="M16.157,81.337a6.8,6.8,0,1,0,6.8,6.8A6.8,6.8,0,0,0,16.157,81.337Zm0,10.727a3.925,3.925,0,1,1,3.924-3.925A3.936,3.936,0,0,1,16.157,92.064Z" transform="translate(59.7 -37.75)"/></g></g><g transform="translate(37.413)"><g class="b" transform="matrix(1, 0, 0, 1, -44.41, -7)"><path class="a" d="M9.966,127.857l.305.044a1.481,1.481,0,0,0,1.308-.829c.131-.218,11.555-23.2,31.744-23.765V109.5a1.288,1.288,0,0,0,.872,1.308,1.58,1.58,0,0,0,1.57-.262L59.545,96.723a1.456,1.456,0,0,0,.392-1,1.647,1.647,0,0,0-.392-1.047L45.765,80.937a1.347,1.347,0,0,0-1.57-.305,1.324,1.324,0,0,0-.872,1.308v6.454c-6.279,1.265-34.492,8.765-34.492,38.068A1.443,1.443,0,0,0,9.966,127.857ZM44.937,90.967a1.415,1.415,0,0,0,1.265-1.4V85.385L56.492,95.719,46.2,106.054v-4.186a1.513,1.513,0,0,0-1.439-1.439C28.28,100.037,17.2,112.9,12.146,120.444,16.027,95.5,43.672,91.141,44.937,90.967Z" transform="translate(35.58 -73.5)"/></g></g></g></svg>