<svg xmlns="http://www.w3.org/2000/svg" xmlns:xlink="http://www.w3.org/1999/xlink" width="65.469" height="65.474" viewBox="0 0 65.469 65.474"><defs><style>.a{stroke:#000;stroke-linejoin:bevel;}.b{filter:url(#a);}</style><filter id="a" x="0" y="0" width="65.469" height="65.474" filterUnits="userSpaceOnUse"><feOffset dx="2" dy="2" input="SourceAlpha"/><feGaussianBlur stdDeviation="3" result="b"/><feFlood flood-opacity="0.6"/><feComposite operator="in" in2="b"/><feComposite in="SourceGraphic"/></filter></defs><g transform="translate(7.507 7.506)"><g class="b" transform="matrix(1, 0, 0, 1, -7.51, -7.51)"><path class="a" d="M134.567,104.244l-2.375-.642a18,18,0,0,0,0-3.038l2.375-.642a1.917,1.917,0,0,0,1.134-.856,1.959,1.959,0,0,0,.192-1.433l-.9-3.294a1.856,1.856,0,0,0-2.268-1.3l-2.374.642a20.383,20.383,0,0,0-1.54-2.653l1.754-1.733a1.935,1.935,0,0,0,.535-1.326,1.884,1.884,0,0,0-.535-1.305l-2.417-2.417a1.86,1.86,0,0,0-2.631,0l-1.733,1.733a20.249,20.249,0,0,0-2.653-1.519l.642-2.375a1.872,1.872,0,0,0-1.3-2.289l-3.316-.877a1.852,1.852,0,0,0-2.268,1.326l-.642,2.374a18.036,18.036,0,0,0-3.038,0l-.663-2.374a1.765,1.765,0,0,0-.856-1.134,1.808,1.808,0,0,0-1.412-.193l-3.294.877a1.872,1.872,0,0,0-1.3,2.289l.62,2.375a20,20,0,0,0-2.631,1.519l-1.754-1.733a1.834,1.834,0,0,0-2.61,0l-2.417,2.417a1.859,1.859,0,0,0,0,2.631l1.754,1.733a20.382,20.382,0,0,0-1.54,2.653l-2.375-.642a1.889,1.889,0,0,0-2.289,1.3l-.877,3.294a1.959,1.959,0,0,0,.193,1.433,1.872,1.872,0,0,0,1.112.856l2.4.642a18,18,0,0,0,0,3.038l-2.4.642a1.827,1.827,0,0,0-1.112.877,1.849,1.849,0,0,0-.193,1.39l.877,3.294a1.884,1.884,0,0,0,2.289,1.326l2.824-.749a.8.8,0,0,0,.321-.192l4.578-4.6a.694.694,0,0,0,.214-.663A12.51,12.51,0,0,1,115.977,89.8l-9.135,9.156a.626.626,0,0,0-.192.663,11.721,11.721,0,0,0,8.535,8.535.786.786,0,0,0,.685-.171L125,98.832a12.639,12.639,0,0,1-3.273,12.022,12.512,12.512,0,0,1-11.851,3.316.786.786,0,0,0-.685.171l-4.578,4.578a1.082,1.082,0,0,0-.192.342l-.749,2.824a1.817,1.817,0,0,0,1.3,2.268l3.294.9a2,2,0,0,0,.492.043,1.758,1.758,0,0,0,.92-.257,1.637,1.637,0,0,0,.856-1.091l.663-2.417a18.036,18.036,0,0,0,3.038,0l.642,2.417a1.856,1.856,0,0,0,2.268,1.3l3.316-.9a1.839,1.839,0,0,0,1.3-2.268l-.642-2.4a18.09,18.09,0,0,0,2.653-1.519l1.733,1.754a1.9,1.9,0,0,0,2.631,0l2.417-2.417a1.9,1.9,0,0,0,.535-1.326,1.8,1.8,0,0,0-.535-1.284l-1.754-1.754a20.146,20.146,0,0,0,1.54-2.631l2.374.62a1.852,1.852,0,0,0,2.268-1.326l.9-3.294a1.849,1.849,0,0,0-.192-1.39A1.869,1.869,0,0,0,134.567,104.244Zm-.043,1.9-.9,3.316a.452.452,0,0,1-.513.3l-2.974-.813a.735.735,0,0,0-.834.407,18.281,18.281,0,0,1-1.99,3.444.693.693,0,0,0,.086.92l2.161,2.182a.477.477,0,0,1,.128.278.541.541,0,0,1-.128.321l-2.417,2.4a.439.439,0,0,1-.621,0l-2.161-2.139a.693.693,0,0,0-.92-.086,19.5,19.5,0,0,1-3.444,1.99.678.678,0,0,0-.385.834l.792,2.952a.465.465,0,0,1-.3.535l-3.316.9a.47.47,0,0,1-.535-.321l-.792-2.974a.712.712,0,0,0-.684-.513h-.064a17.7,17.7,0,0,1-3.979,0,.7.7,0,0,0-.749.513l-.813,2.974a.436.436,0,0,1-.514.321l-3.316-.9a.359.359,0,0,1-.235-.192.5.5,0,0,1-.064-.342l.706-2.653,4.193-4.15a13.978,13.978,0,0,0,16.065-18.4.683.683,0,0,0-.514-.449.65.65,0,0,0-.663.192l-9.691,9.669a10.333,10.333,0,0,1-7.016-7l9.69-9.69a.726.726,0,0,0,.214-.663.714.714,0,0,0-.471-.513,13.964,13.964,0,0,0-18.4,16.065l-4.171,4.171-2.653.727a.452.452,0,0,1-.513-.3l-.9-3.316a.441.441,0,0,1,.321-.535l2.973-.791a.7.7,0,0,0,.513-.749,17.677,17.677,0,0,1,0-3.979.74.74,0,0,0-.513-.77l-2.973-.792a.429.429,0,0,1-.321-.513l.9-3.316a.419.419,0,0,1,.513-.278l2.973.791a.7.7,0,0,0,.834-.428,18.7,18.7,0,0,1,1.968-3.423.667.667,0,0,0-.064-.92L95.89,88.285a.439.439,0,0,1,0-.62l2.417-2.417a.413.413,0,0,1,.6,0l2.182,2.182a.74.74,0,0,0,.92.064,17.193,17.193,0,0,1,3.444-1.989.688.688,0,0,0,.385-.834l-.792-2.952a.445.445,0,0,1,.3-.535l3.316-.877a.41.41,0,0,1,.514.278l.813,2.974a.7.7,0,0,0,.749.535,20.588,20.588,0,0,1,3.979,0,.678.678,0,0,0,.749-.535l.792-2.974a.452.452,0,0,1,.535-.278l3.316.877a.465.465,0,0,1,.3.535l-.792,2.952A.688.688,0,0,0,120,85.5a17.2,17.2,0,0,1,3.444,1.989.74.74,0,0,0,.92-.064l2.161-2.182a.439.439,0,0,1,.621,0l2.417,2.417a.439.439,0,0,1,0,.62L127.4,90.446a.691.691,0,0,0-.086.92,18.8,18.8,0,0,1,1.99,3.423.7.7,0,0,0,.834.428l2.974-.791a.419.419,0,0,1,.513.278l.9,3.316a.446.446,0,0,1-.321.513l-2.952.792a.734.734,0,0,0-.535.77,17.7,17.7,0,0,1,0,3.979.7.7,0,0,0,.535.749l2.952.791A.458.458,0,0,1,134.524,106.148Z" transform="translate(-81.99 -71.34)"/></g></g></svg>