<svg xmlns="http://www.w3.org/2000/svg" xmlns:xlink="http://www.w3.org/1999/xlink" width="64.337" height="64.327" viewBox="0 0 64.337 64.327"><defs><style>.a{stroke:#000;}.b{filter:url(#c);}.c{filter:url(#a);}</style><filter id="a" x="0" y="0" width="64.324" height="64.327" filterUnits="userSpaceOnUse"><feOffset dx="2" dy="2" input="SourceAlpha"/><feGaussianBlur stdDeviation="3" result="b"/><feFlood flood-opacity="0.8"/><feComposite operator="in" in2="b"/><feComposite in="SourceGraphic"/></filter><filter id="c" x="7.549" y="6.994" width="56.789" height="50.339" filterUnits="userSpaceOnUse"><feOffset dx="2" dy="2" input="SourceAlpha"/><feGaussianBlur stdDeviation="3" result="d"/><feFlood flood-opacity="0.8"/><feComposite operator="in" in2="d"/><feComposite in="SourceGraphic"/></filter></defs><g transform="translate(7.5 7.5)"><g class="c" transform="matrix(1, 0, 0, 1, -7.5, -7.5)"><path class="a" d="M86.208,77.2H42.951V71.568h1.942a.682.682,0,0,0,.689-.689.709.709,0,0,0-.689-.689H42.951v-6.1h1.942a.709.709,0,0,0,.689-.689.7.7,0,0,0-.689-.71H42.951V56.6h1.942a.689.689,0,0,0,0-1.378H42.951V49.1h1.942a.7.7,0,0,0,.689-.689.682.682,0,0,0-.689-.689H42.951v-6.1h1.942a.709.709,0,0,0,.689-.689.7.7,0,0,0-.689-.71H42.951V34.613h1.942a.689.689,0,0,0,0-1.378H42.241a.677.677,0,0,0-.668.689V77.873a.665.665,0,0,0,.668.689H86.208a.679.679,0,1,0,0-1.357Z" transform="translate(-34.07 -25.73)"/></g><g transform="translate(7.551 6.994)"><g class="b" transform="matrix(1, 0, 0, 1, -15.05, -14.49)"><path class="a" d="M79.019,46.515H75.491l-2.38-1.754,6.409-6.451a.676.676,0,0,0-.021-.981.707.707,0,0,0-.96,0l-6.555,6.6L68.33,41.211a.776.776,0,0,0-.418-.146H57.328a2.575,2.575,0,0,0-2.568-2.38,2.455,2.455,0,0,0-1.274.376L48.747,33.8a.712.712,0,0,0-.522-.23H42.609a.683.683,0,0,0-.668.71.691.691,0,0,0,.668.689h5.324l4.593,5.073a2.472,2.472,0,0,0-.334,1.232,2.574,2.574,0,0,0,4.864,1.169H67.683l3.34,2.464-2.046,2.067a2.427,2.427,0,0,0-1.169-.292,2.531,2.531,0,0,0-2.443,1.879h-5.01a.656.656,0,0,0-.543.292l-2.13,2.923-3.758-3.069a.639.639,0,0,0-.418-.146h-10.9a.689.689,0,0,0,0,1.378H53.257L56.889,52.9l-2.255,3.132H50.459a2.574,2.574,0,0,0-5.052.71,2.615,2.615,0,0,0,.585,1.608l-3.925,5.491a.642.642,0,0,0,.146.919.623.623,0,0,0,.4.146.7.7,0,0,0,.564-.271l3.946-5.491a2.426,2.426,0,0,0,.877.167,2.574,2.574,0,0,0,2.463-1.879h4.53a.678.678,0,0,0,.543-.313l2.422-3.341,7.474,6.1a.674.674,0,0,0,.438.167h7.328a.623.623,0,0,0,.5-.251l5.846-6.514a.688.688,0,0,0-1.023-.919l-5.637,6.284H66.1l-7.328-5.992,1.942-2.714h4.635A2.571,2.571,0,1,0,70,47.893l2.129-2.15,2.714,2.025a.641.641,0,0,0,.4.125h3.779a.677.677,0,0,0,.689-.668A.687.687,0,0,0,79.019,46.515ZM54.76,42.485a1.211,1.211,0,1,1,1.211-1.211A1.208,1.208,0,0,1,54.76,42.485ZM48,57.914a1.19,1.19,0,1,1,1.19-1.169A1.19,1.19,0,0,1,48,57.914Zm19.812-7.454a1.2,1.2,0,1,1,1.211-1.211A1.194,1.194,0,0,1,67.808,50.461Z" transform="translate(-26.88 -19.08)"/></g></g></g></svg>