<svg xmlns="http://www.w3.org/2000/svg" xmlns:xlink="http://www.w3.org/1999/xlink" width="113.19" height="110.3" viewBox="0 0 113.19 110.3"><defs><style>.a{fill:#fff;}.b{filter:url(#i);}.c{filter:url(#g);}.d{filter:url(#e);}.e{filter:url(#c);}.f{filter:url(#a);}</style><filter id="a" x="21.485" y="80.373" width="21.245" height="21.201" filterUnits="userSpaceOnUse"><feOffset dx="2" dy="2" input="SourceAlpha"/><feGaussianBlur stdDeviation="3" result="b"/><feFlood flood-opacity="0.502"/><feComposite operator="in" in2="b"/><feComposite in="SourceGraphic"/></filter><filter id="c" x="70.461" y="80.373" width="21.245" height="21.201" filterUnits="userSpaceOnUse"><feOffset dx="2" dy="2" input="SourceAlpha"/><feGaussianBlur stdDeviation="3" result="d"/><feFlood flood-opacity="0.502"/><feComposite operator="in" in2="d"/><feComposite in="SourceGraphic"/></filter><filter id="e" x="0" y="0" width="113.19" height="110.3" filterUnits="userSpaceOnUse"><feOffset dx="2" dy="2" input="SourceAlpha"/><feGaussianBlur stdDeviation="3" result="f"/><feFlood flood-opacity="0.502"/><feComposite operator="in" in2="f"/><feComposite in="SourceGraphic"/></filter><filter id="g" x="59.324" y="60.203" width="28.611" height="20.894" filterUnits="userSpaceOnUse"><feOffset dx="2" dy="2" input="SourceAlpha"/><feGaussianBlur stdDeviation="3" result="h"/><feFlood flood-opacity="0.502"/><feComposite operator="in" in2="h"/><feComposite in="SourceGraphic"/></filter><filter id="i" x="21.728" y="11.445" width="33.147" height="34.794" filterUnits="userSpaceOnUse"><feOffset dx="2" dy="2" input="SourceAlpha"/><feGaussianBlur stdDeviation="3" result="j"/><feFlood flood-opacity="0.502"/><feComposite operator="in" in2="j"/><feComposite in="SourceGraphic"/></filter></defs><g transform="translate(7 7)"><g transform="translate(232.736 30.939)"><g class="f" transform="matrix(1, 0, 0, 1, -239.74, -37.94)"><path class="a" d="M54.886,91.991a1.647,1.647,0,0,0-1.622,1.622,1.623,1.623,0,0,0,3.245,0A1.648,1.648,0,0,0,54.886,91.991Z" transform="translate(-24.78 -4.62)"/></g></g><g transform="translate(232.736 30.939)"><g class="e" transform="matrix(1, 0, 0, 1, -239.74, -37.94)"><path class="a" d="M56,91.991a1.647,1.647,0,0,0-1.622,1.622A1.61,1.61,0,0,0,56,95.192a1.583,1.583,0,0,0,1.622-1.579A1.619,1.619,0,0,0,56,91.991Z" transform="translate(23.08 -4.62)"/></g></g><g transform="translate(232.736 30.939)"><g class="d" transform="matrix(1, 0, 0, 1, -239.74, -37.94)"><path class="a" d="M144.807,143.652a10.245,10.245,0,0,0-6.665-2.806c-.658-3.727-3.069-15.259-8.594-21.091a13.93,13.93,0,0,0-10.172-4.253H114.9a26.961,26.961,0,0,0-3.464-11.795l-.044-.132-.132-.131a26.98,26.98,0,0,0-9.558-9.559l-.132-.132-.132-.044a26.459,26.459,0,0,0-26.483,0l-.132.044-.132.132a26.98,26.98,0,0,0-9.558,9.559l-.132.131-.044.132A26.963,26.963,0,0,0,61.5,115.5H54.221a1.46,1.46,0,0,0-1.447,1.447v50.075a6.3,6.3,0,0,0,6.27,6.27h6.577a10.326,10.326,0,0,0,20.52,0h28.5a10.277,10.277,0,0,0,20.432,0h6.621a6.3,6.3,0,0,0,6.27-6.27v-12.19C147.964,151.632,147.964,146.809,144.807,143.652Zm-17.319-21.924c4.648,4.911,6.928,15.04,7.673,19.03h-15a5.231,5.231,0,0,1-5.174-5.261V118.4h4.385A11.287,11.287,0,0,1,127.488,121.728ZM75.048,97l1.228,2.192a1.527,1.527,0,0,0,1.271.7,1.387,1.387,0,0,0,.7-.175,1.408,1.408,0,0,0,.526-1.973l-1.228-2.149a23.347,23.347,0,0,1,9.208-2.455v2.455a1.447,1.447,0,1,0,2.894,0V93.14a23.347,23.347,0,0,1,9.208,2.455l-1.228,2.149a1.444,1.444,0,0,0,2.5,1.447L101.355,97a23.732,23.732,0,0,1,6.752,6.8l-2.148,1.228a1.435,1.435,0,0,0-.526,1.973,1.4,1.4,0,0,0,1.228.745,1.477,1.477,0,0,0,.745-.219l2.149-1.272a24.582,24.582,0,0,1,2.5,9.252h-2.5a1.447,1.447,0,1,0,0,2.894h2.5a24.15,24.15,0,0,1-2.5,9.208l-2.149-1.272a1.488,1.488,0,0,0-1.973.57,1.435,1.435,0,0,0,.526,1.973l2.148,1.228a24.306,24.306,0,0,1-6.752,6.8l-1.228-2.192a1.444,1.444,0,1,0-2.5,1.447l1.228,2.148a23.338,23.338,0,0,1-9.208,2.456V138.3a1.447,1.447,0,0,0-2.894,0v2.456a23.337,23.337,0,0,1-9.208-2.456l1.228-2.148a1.4,1.4,0,0,0-.526-1.973,1.434,1.434,0,0,0-1.973.526L75.048,136.9a24.309,24.309,0,0,1-6.753-6.8l2.149-1.228a1.435,1.435,0,0,0,.526-1.973,1.488,1.488,0,0,0-1.973-.57L66.849,127.6a23.34,23.34,0,0,1-2.455-9.208h2.455a1.447,1.447,0,0,0,0-2.894H64.393a23.748,23.748,0,0,1,2.455-9.252L69,107.522a1.476,1.476,0,0,0,.745.219A1.4,1.4,0,0,0,70.97,107a1.435,1.435,0,0,0-.526-1.973L68.3,103.795A23.735,23.735,0,0,1,75.048,97Zm.833,82.565a7.432,7.432,0,1,1,7.41-7.41A7.429,7.429,0,0,1,75.881,179.564ZM103.46,170.4H86.009a10.3,10.3,0,0,0-20.3,0H59.044a3.415,3.415,0,0,1-3.42-3.376v-.439h6.4a1.4,1.4,0,0,0,1.184-.614,1.584,1.584,0,0,0,.131-1.4L60.1,156.807a1.478,1.478,0,0,0-1.315-.921H55.624v-2.631H103.46Zm-47.792-6.709v-4.867h2.148l2.017,4.867Zm-.044-13.33V118.4H61.5a26.964,26.964,0,0,0,3.464,11.795l.044.131.175.22a27.336,27.336,0,0,0,9.515,9.471l.132.131.175.088a26.583,26.583,0,0,0,26.4,0l.175-.088.132-.131c.614-.351,1.184-.7,1.754-1.052v11.4Zm69.233,29.2a7.432,7.432,0,1,1,7.41-7.41A7.467,7.467,0,0,1,124.857,179.564Zm20.213-15.873h-5.349l-2.061-4.867h7.41Zm0-7.8h-9.558a1.44,1.44,0,0,0-1.184.658,1.385,1.385,0,0,0-.131,1.36l3.2,7.8a1.452,1.452,0,0,0,1.359.877h6.314v.439a3.377,3.377,0,0,1-3.376,3.376h-6.709a10.3,10.3,0,0,0-20.3,0H106.31V136.593a26.089,26.089,0,0,0,4.911-6.051l.175-.22.044-.131.658-1.228V135.5a8.112,8.112,0,0,0,8.068,8.112h16.267c2.85,0,4.954.7,6.358,2.061,2.28,2.324,2.28,6.226,2.28,9.121Z" transform="translate(-45.77 -83.16)"/></g></g><g transform="translate(232.736 30.939)"><g class="c" transform="matrix(1, 0, 0, 1, -239.74, -37.94)"><path class="a" d="M63.291,91.531H55.574a1.447,1.447,0,0,0,0,2.894h7.717a1.447,1.447,0,0,0,0-2.894Z" transform="translate(12.2 -24.33)"/></g></g><g transform="translate(232.736 30.939)"><g class="b" transform="matrix(1, 0, 0, 1, -239.74, -37.94)"><path class="a" d="M53.99,99.934l12.277,7.1a1.387,1.387,0,0,0,.7.176,1.548,1.548,0,0,0,.745-.176,1.527,1.527,0,0,0,.7-1.272V91.822a1.448,1.448,0,0,0-2.894,0v11.444L55.437,97.435a1.444,1.444,0,0,0-1.447,2.5Z" transform="translate(-24.54 -71.97)"/></g></g></g></svg>