<svg xmlns="http://www.w3.org/2000/svg" width="32.301" height="31.332" viewBox="0 0 32.301 31.332"><defs><style>.a{fill:#f84400;stroke:#f84400;stroke-width:0.4px;}</style></defs><g transform="translate(0.2 0.2)"><path class="a" d="M53.808,91.991a.552.552,0,0,0-.544.544.544.544,0,0,0,1.087,0A.552.552,0,0,0,53.808,91.991Z" transform="translate(-46.064 -65.056)"/><path class="a" d="M54.925,91.991a.552.552,0,0,0-.544.544.54.54,0,0,0,.544.529.53.53,0,0,0,.544-.529A.543.543,0,0,0,54.925,91.991Z" transform="translate(-30.768 -65.056)"/><path class="a" d="M83.617,108.085a3.434,3.434,0,0,0-2.234-.94c-.22-1.249-1.029-5.114-2.88-7.068a4.668,4.668,0,0,0-3.409-1.425H73.6A9.035,9.035,0,0,0,72.434,94.7l-.015-.044-.044-.044a9.042,9.042,0,0,0-3.2-3.2l-.044-.044-.044-.015a8.867,8.867,0,0,0-8.875,0l-.044.015-.044.044a9.042,9.042,0,0,0-3.2,3.2l-.044.044-.015.044A9.036,9.036,0,0,0,55.7,98.651H53.259a.489.489,0,0,0-.485.485v16.781a2.11,2.11,0,0,0,2.1,2.1h2.2a3.46,3.46,0,0,0,6.877,0h9.551a3.444,3.444,0,0,0,6.847,0h2.219a2.11,2.11,0,0,0,2.1-2.1v-4.085C84.674,110.759,84.674,109.143,83.617,108.085Zm-5.8-7.347c1.558,1.646,2.322,5.04,2.571,6.377H75.359a1.753,1.753,0,0,1-1.734-1.763V99.621h1.469A3.782,3.782,0,0,1,77.812,100.738ZM60.238,92.45l.411.735a.512.512,0,0,0,.426.235.465.465,0,0,0,.235-.059.472.472,0,0,0,.176-.661l-.411-.72a7.824,7.824,0,0,1,3.086-.823v.823a.485.485,0,1,0,.97,0v-.823a7.824,7.824,0,0,1,3.086.823l-.411.72a.484.484,0,0,0,.838.485l.411-.735a7.953,7.953,0,0,1,2.263,2.278l-.72.411a.481.481,0,0,0-.176.661.471.471,0,0,0,.411.25.5.5,0,0,0,.25-.073l.72-.426a8.238,8.238,0,0,1,.838,3.1H71.8a.485.485,0,1,0,0,.97h.838a8.093,8.093,0,0,1-.838,3.086l-.72-.426a.5.5,0,0,0-.661.191.481.481,0,0,0,.176.661l.72.411a8.146,8.146,0,0,1-2.263,2.278l-.411-.735a.484.484,0,1,0-.838.485l.411.72a7.821,7.821,0,0,1-3.086.823v-.823a.485.485,0,0,0-.97,0v.823a7.821,7.821,0,0,1-3.086-.823l.411-.72a.469.469,0,0,0-.176-.661.481.481,0,0,0-.661.176l-.411.735a8.147,8.147,0,0,1-2.263-2.278l.72-.411a.481.481,0,0,0,.176-.661.5.5,0,0,0-.661-.191l-.72.426a7.822,7.822,0,0,1-.823-3.086h.823a.485.485,0,0,0,0-.97h-.823a7.958,7.958,0,0,1,.823-3.1l.72.426a.5.5,0,0,0,.25.073.471.471,0,0,0,.411-.25.481.481,0,0,0-.176-.661l-.72-.411A7.954,7.954,0,0,1,60.238,92.45Zm.279,27.67A2.491,2.491,0,1,1,63,117.636,2.49,2.49,0,0,1,60.518,120.12Zm9.243-3.071H63.912a3.452,3.452,0,0,0-6.8,0H54.875a1.144,1.144,0,0,1-1.146-1.131v-.147h2.145a.469.469,0,0,0,.4-.206.531.531,0,0,0,.044-.47l-1.087-2.6a.5.5,0,0,0-.441-.309H53.729V111.3H69.76ZM53.744,114.8v-1.631h.72l.676,1.631Zm-.015-4.467V99.621H55.7a9.036,9.036,0,0,0,1.161,3.953l.015.044.059.074a9.161,9.161,0,0,0,3.189,3.174l.044.044.059.029a8.909,8.909,0,0,0,8.846,0l.059-.029.044-.044c.206-.118.4-.235.588-.353v3.82Zm23.2,9.787a2.491,2.491,0,1,1,2.483-2.483A2.5,2.5,0,0,1,76.931,120.12ZM83.7,114.8H81.912l-.691-1.631H83.7Zm0-2.616H80.5a.482.482,0,0,0-.4.22.464.464,0,0,0-.044.456l1.073,2.616a.487.487,0,0,0,.456.294H83.7v.147a1.132,1.132,0,0,1-1.131,1.131H80.325a3.452,3.452,0,0,0-6.8,0H70.715V105.719a8.743,8.743,0,0,0,1.646-2.028l.059-.074.015-.044.22-.411v2.19a2.719,2.719,0,0,0,2.7,2.718H80.81a2.947,2.947,0,0,1,2.131.691,4.348,4.348,0,0,1,.764,3.057Z" transform="translate(-52.774 -90.158)"/><path class="a" d="M57.2,91.531H54.612a.485.485,0,0,0,0,.97H57.2a.485.485,0,0,0,0-.97Z" transform="translate(-34.246 -71.355)"/><path class="a" d="M53.511,93.608l4.114,2.381a.465.465,0,0,0,.235.059.519.519,0,0,0,.25-.059.512.512,0,0,0,.235-.426V90.889a.485.485,0,0,0-.97,0v3.835L54,92.77a.484.484,0,0,0-.485.838Z" transform="translate(-45.988 -86.584)"/></g></svg>