<svg xmlns="http://www.w3.org/2000/svg" width="73" height="40" viewBox="0 0 73 40"><defs><style>.a{fill:#fff;stroke:#ddd;}.b{fill:#1b2854;}.c{stroke:none;}.d{fill:none;}</style></defs><g class="a"><rect class="c" width="73" height="40" rx="4"/><rect class="d" x="0.5" y="0.5" width="72" height="39" rx="3.5"/></g><g transform="translate(-1135 -347)"><path class="b" d="M61.9,13.486,64.046.9H67.47L65.324,13.486Z" transform="translate(1103.025 360.317)"/><path class="b" d="M95.3.53A8.537,8.537,0,0,0,92.233,0c-3.4,0-5.787,1.712-5.787,4.147-.024,1.808,1.712,2.821,3.014,3.424,1.326.627,1.784,1.013,1.784,1.567,0,.844-1.061,1.23-2.049,1.23a7.375,7.375,0,0,1-3.231-.651L85.482,9.5,85,12.321A10.834,10.834,0,0,0,88.834,13c3.617,0,5.956-1.688,5.98-4.292.024-1.423-.892-2.532-2.869-3.424-1.206-.579-1.929-.964-1.929-1.567,0-.53.627-1.085,1.953-1.085a5.938,5.938,0,0,1,2.556.482l.313.145L95.3.53" transform="translate(1085.495 361)"/><path class="b" d="M134.148,1H131.5a1.718,1.718,0,0,0-1.808,1.037L124.6,13.562h3.593s.579-1.543.723-1.881H133.3c.1.434.41,1.881.41,1.881H136.9L134.148,1m-4.219,8.1c.289-.723,1.374-3.52,1.374-3.52-.024.024.289-.723.458-1.206L132,5.461s.651,3.014.8,3.641Z" transform="translate(1055.443 360.241)"/><path class="b" d="M23.363.9,19.988,9.484l-.362-1.736A9.73,9.73,0,0,0,14.9,2.467l3.062,11.019H21.6L27,.9H23.363" transform="translate(1138.693 360.317)"/><path class="b" d="M5.57.9H.048L0,1.165C4.316,2.2,7.161,4.734,8.343,7.748L7.137,1.961A1.451,1.451,0,0,0,5.57.9" transform="translate(1150 360.317)"/></g></svg>