<svg xmlns="http://www.w3.org/2000/svg" width="150.912" height="63.843" viewBox="0 0 150.912 63.843"><defs><style>.a{fill:#fff;}</style></defs><path class="a" d="M901.491,424.107a8.431,8.431,0,0,0-4.018-4.035,10.76,10.76,0,0,0-4.789-.866c-.452,0-1.037.165-1.319-.055-.3-.236-.086-.848-.094-1.3-.038-1.912.056-3.824-.055-5.735a5.964,5.964,0,0,0-.362-1.7,3.116,3.116,0,0,0-3.176-2.186,3.02,3.02,0,0,0-3.055,2.253,7.808,7.808,0,0,0-.387,2.523q-.021,2.842.005,5.683c0,.382-.107.469-.46.388a4.32,4.32,0,0,0-1.95.06c-1.794.419-2.67,1.54-2.78,3.576a4.141,4.141,0,0,0-5.026.021v-.59q0-9.865,0-19.728a5.968,5.968,0,0,1,.368-2.462,2.889,2.889,0,0,1,1.975-1.733,10.3,10.3,0,0,1,5.448.056c1.513.41,1.988,1.624,2.158,3.023.019.157.025.315.047.593,1.908-2.858,4.378-4.405,7.851-3.989a9.505,9.505,0,0,1,7.459,4.946c.275-.336.518-.643.77-.943a10.847,10.847,0,0,1,5.69-3.76,9.356,9.356,0,0,1,8.967,2.43,11.582,11.582,0,0,1,3.367,6.515,36.16,36.16,0,0,1,.555,7.552c-.02,3.424.062,6.852-.049,10.273-.075,2.3-1.112,3.1-2.816,3.462-.413.086-.614.04-.679-.449a8.746,8.746,0,0,0-.866-2.966,4.805,4.805,0,0,0-5.035-2.7c-.691.07-.691.07-.691-.645,0-2.715.007-5.429-.005-8.143a9.112,9.112,0,0,0-.36-2.857,3.466,3.466,0,0,0-5.04-1.987,2.7,2.7,0,0,0-1.219,1.616,9.193,9.193,0,0,0-.428,2.957q-.006,5.11,0,10.219Z" transform="translate(-774.95 -383.538)"/><path class="a" d="M847.217,401c.038-.036.059-.047.065-.061.691-2.118,1.621-2.855,3.912-3.012a15.042,15.042,0,0,1,3.319.163c1.7.262,2.464,1.067,2.8,3.048a8.106,8.106,0,0,1,.066,1.362q.006,9.559,0,19.119v.712a5.777,5.777,0,0,0-2.6-1.574,7.511,7.511,0,0,0-5.818.865,15.837,15.837,0,0,0-6.365,6.12,1.212,1.212,0,0,1-1.068.655,11.415,11.415,0,0,1-8.228-2.374,15.953,15.953,0,0,1-6.41-9.811,14.869,14.869,0,0,1,.951-9.024,15.264,15.264,0,0,1,9.083-8.648,9.8,9.8,0,0,1,8.32.706A7.088,7.088,0,0,1,847.217,401Zm-5.307,17.286a5.059,5.059,0,0,0-.025-10.117,5.059,5.059,0,1,0,.025,10.117Z" transform="translate(-777.697 -383.534)"/><path class="a" d="M796.3,428.852c-5.313.177-13.008-3.509-15.168-10.765a15.946,15.946,0,0,1,.346-10.7c2.16-5.458,6.415-8.378,11.972-9.562a14.988,14.988,0,0,1,9.171,1.162,15.969,15.969,0,0,1,3.623,2.307,3.033,3.033,0,0,1,1.052,3.568,9.763,9.763,0,0,1-3.336,4.862,2.779,2.779,0,0,1-2.835.378,8.891,8.891,0,0,1-1.977-1.028,5.168,5.168,0,0,0-6.148.037,5.26,5.26,0,0,0-1.495,6.854,5.342,5.342,0,0,0,6.748,2.023,14.006,14.006,0,0,0,1.6-.931c1.746-1.044,2.806-.969,4.367.34a11.63,11.63,0,0,1,2.716,3.179,3.336,3.336,0,0,1-.6,4.373,13.511,13.511,0,0,1-8.036,3.794A12.427,12.427,0,0,1,796.3,428.852Z" transform="translate(-780.371 -383.555)"/><path class="a" d="M819.709,402.851q0,7.239,0,14.479a5.385,5.385,0,0,0,.075.814c.171,1.121.511,1.41,1.659,1.438.4.01.8,0,1.2.039a2.419,2.419,0,0,1,2.4,2.071,13.512,13.512,0,0,1-.006,5.473,2.4,2.4,0,0,1-2.311,2.1,21.341,21.341,0,0,1-8.576-.8c-2.324-.726-3.411-2.5-3.955-4.731a27.22,27.22,0,0,1-.672-6.5q-.006-13.905,0-27.813a8.925,8.925,0,0,1,.315-2.913,2.612,2.612,0,0,1,1.878-1.806,10.862,10.862,0,0,1,5.557-.047,3.045,3.045,0,0,1,2.308,2.736,9.641,9.641,0,0,1,.1,1.631q.011,6.914,0,13.825Z" transform="translate(-778.684 -384.32)"/><path class="a" d="M869.75,426.676c-1.151-2.479-3.213-3.24-5.7-2.944a3.8,3.8,0,0,0-3.348,3.324,4.484,4.484,0,0,1-.605-2.052c-.025-.563-.021-1.129-.022-1.693q0-10.463,0-20.927a8.165,8.165,0,0,1,.218-2.053,2.675,2.675,0,0,1,2.147-2.072,11.314,11.314,0,0,1,5.138-.033,3,3,0,0,1,2.576,3.121c.123,2.912.04,5.826.05,8.738.016,4.735.006,9.47,0,14.206A4.839,4.839,0,0,1,869.75,426.676Z" transform="translate(-775.758 -383.531)"/><path d="M894.195,432.4c.9.456,1.728.9,2.576,1.3,1.291.6,2.481,1.379,3.7,2.105.864.515,1.707,1.068,2.555,1.611a1.438,1.438,0,0,0,.9.09,1.314,1.314,0,0,1,1.336.88c.242.527.691.955.721,1.59.021.44.321.941-.417,1.085-.093.018-.176.126-.25.205-.664.715-1.073.842-1.846.3-1.214-.848-2.563-1.466-3.762-2.346a35.362,35.362,0,0,0-3.5-1.976,25.816,25.816,0,0,0-4.067-1.862c-.693-.249-1.367-.548-2.067-.776-.475-.156-.548.086-.432.4.274.735.325,1.516.523,2.265.213.805.383,1.623.554,2.437.135.642-.032,1.259.094,1.894a1.009,1.009,0,0,1-.684,1.1c-.291.1-.281.461-.657.483-.643.038-1.007-.379-1.444-.7-.04-.03-.048-.113-.088-.13-.708-.3-.482-.884-.524-1.441a10.547,10.547,0,0,0-.229-2.127c-.215-.761-.313-1.551-.5-2.314a22.358,22.358,0,0,0-.619-2.727,10.524,10.524,0,0,1-.313-1.671c-.339-1.705-.67-3.412-1.038-5.111-.162-.75-.289-1.5-.379-2.263-.049-.415-.223-.8-.754-.712-.329.055-.5-.177-.725-.311a1.764,1.764,0,0,1-.6-2.675,1.332,1.332,0,0,1,1.07-.368c1.631-.027,3.261-.032,4.894.036,1.078.046,2.143.22,3.215.248a19.9,19.9,0,0,1,2.342.217,5.467,5.467,0,0,1,4.262,2.82,4.607,4.607,0,0,1-.122,4.533,8.77,8.77,0,0,1-1.587,2.126A16.909,16.909,0,0,1,894.195,432.4Zm-6.4-7.033c.091.455.186.931.279,1.407.24,1.236.477,2.472.719,3.707.047.236.1.44.437.428a4.424,4.424,0,0,0,2.219-.6c1.571-1,3.112-2.078,3.58-4.084a1.027,1.027,0,0,0-.4-1.29,4.153,4.153,0,0,0-1.884-.563,22.477,22.477,0,0,0-2.771-.227c-.514-.036-1.028-.092-1.543-.1-.842-.016-.828.079-.692.834C887.77,425.037,887.886,425.177,887.8,425.372Z" transform="translate(-774.496 -382.219)"/><path d="M859.342,440.658a14.945,14.945,0,0,1-1.962,1.306,21.551,21.551,0,0,1-2.423,1.255c-.694.269-1.389.564-2.1.784a2.529,2.529,0,0,1-1.435.195,1.141,1.141,0,0,0-.593-.007,3.554,3.554,0,0,1-2.325-.33,6.984,6.984,0,0,1-2.068-1.008,10.111,10.111,0,0,1-1.811-1.686c-.236-.316-.577-.544-.806-.908a12.816,12.816,0,0,1-1.39-3.467,6.18,6.18,0,0,1,.111-3.435,2.655,2.655,0,0,0,.156-1.091c-.077-.607.3-1.094.481-1.632a14.54,14.54,0,0,1,.878-2.355,11.136,11.136,0,0,1,2.3-2.888,14.713,14.713,0,0,0,1.682-1.789,5.984,5.984,0,0,1,2.28-1.608c.571-.281,1.192-.087,1.759-.31.225-.089.389.157.583.245a2.992,2.992,0,0,1,1.745,1.864c.186.606-.2.984-.561,1.364a.746.746,0,0,1-1.035.114,1.068,1.068,0,0,0-1.429.083c-.4.331-.9.5-1.3.853a12.727,12.727,0,0,0-3.69,5.361,13.414,13.414,0,0,0-.786,4.19,5.261,5.261,0,0,0,2.05,4.46,2.807,2.807,0,0,0,2.387.744.179.179,0,0,1,.108,0c.867.422,1.606-.126,2.39-.318a7.707,7.707,0,0,0,2.519-1.111c.856-.582,1.709-1.167,2.515-1.826.352-.288.03-.479.061-.709.041-.292-.238-.145-.349-.145-.739,0-1.481,0-2.219.05a11.462,11.462,0,0,1-2.667-.222,3.046,3.046,0,0,1-1.822-1.276.472.472,0,0,1-.062-.511A2.092,2.092,0,0,1,853,433.581a14.614,14.614,0,0,0,3.812-.1c.748-.1,1.5-.173,2.242-.333.508-.109,1.005-.266,1.519-.369a2.278,2.278,0,0,1,2.3,1.351c.167.532,0,1.08.12,1.6.326,1.412-.021,2.84.154,4.267a28.23,28.23,0,0,1,.048,3c.006.476.279.884.24,1.4a2.044,2.044,0,0,1-1.556,1.6c-.131.035-.325-.106-.472-.2-.609-.371-1.3-.639-1.546-1.431-.05-.159-.163-.3-.134-.486a4.4,4.4,0,0,0-.222-2.228,3.353,3.353,0,0,1-.067-.917c.047-.055.083-.132.019-.175C859.373,440.507,859.364,440.6,859.342,440.658Z" transform="translate(-776.79 -382.159)"/><path d="M881.23,429.476c.22.415-.057.894.237,1.3.194.269-.286.219-.231.509a5.849,5.849,0,0,1-.041,1.189,25.443,25.443,0,0,1-.444,3.445c-.1.642-.451,1.241-.61,1.879a8.674,8.674,0,0,1-2.008,3.067,10.672,10.672,0,0,1-2.734,2.01,3.481,3.481,0,0,1-1.931.41,4.515,4.515,0,0,1-2.135-.535,7.057,7.057,0,0,1-1.978-1.558,6.593,6.593,0,0,1-1.18-1.392c-.291-.595-.855-1.016-.979-1.722a8.463,8.463,0,0,0-.833-1.7c-.417-.99-.779-2-1.121-3.015s-.634-2.07-.9-3.11a6.169,6.169,0,0,1-.542-2.145,13.293,13.293,0,0,0-.218-1.371c-.027-.838.1-1.094.867-1.4a2.156,2.156,0,0,1,2.906,2.165.479.479,0,0,0,.007.2,35.912,35.912,0,0,1,.92,3.681c.257.964.549,1.915.9,2.838a17.791,17.791,0,0,0,1.52,3.511,5.862,5.862,0,0,0,1.327,1.622,1.827,1.827,0,0,0,1.831.406,4.759,4.759,0,0,0,2.84-2.361,12.1,12.1,0,0,0,1.078-3.174c.315-1.212.13-2.43.349-3.631a4,4,0,0,0-.208-1.332,8.923,8.923,0,0,0-.235-1.514,2.221,2.221,0,0,0-1.021-1.119,6.875,6.875,0,0,1-.895-1.45c.111-.3-.265-.669.112-.9.721-.447,1.341-1.117,2.374-.527a5.585,5.585,0,0,1,2.433,3,4.285,4.285,0,0,1,.418,1.854C881.084,428.923,881.524,429.124,881.23,429.476Z" transform="translate(-775.555 -382.051)"/><path d="M923.708,426.979c.216.756-.035,1.578.268,2.3.136.326-.221.287-.219.561a25.27,25.27,0,0,1-.441,4.33,17.773,17.773,0,0,1-.69,2.26,9.593,9.593,0,0,1-2.082,3.069,10.607,10.607,0,0,1-2.576,1.885,3.682,3.682,0,0,1-2.046.433,4.7,4.7,0,0,1-2.109-.547,6.436,6.436,0,0,1-1.935-1.534,6.8,6.8,0,0,1-1.184-1.4c-.292-.6-.842-1.031-.979-1.728a9.586,9.586,0,0,0-.827-1.708,27.26,27.26,0,0,1-1.073-2.868c-.382-1.326-.7-2.671-1.15-3.974a12.9,12.9,0,0,1-.565-2.863c-.044-.422-.019-.948.391-1.115.563-.229,1.082-.641,1.838-.312a2.23,2.23,0,0,1,1.48,1.7c.2,1.311.571,2.579.825,3.874a22.089,22.089,0,0,0,.891,2.947,25.4,25.4,0,0,0,1.167,3.008,5.625,5.625,0,0,0,2.527,3.008,2.2,2.2,0,0,0,2.049-.33,5.353,5.353,0,0,0,2.5-3.182c.217-.687.342-1.394.53-2.073a17.9,17.9,0,0,0,.288-3.123,7.719,7.719,0,0,0-.241-2.176,5.188,5.188,0,0,0-.262-1.408,1.345,1.345,0,0,0-.516-.6c-.322-.193-.744-.3-.7-.816.006-.07-.127-.167-.213-.225-.516-.351-.3-.915-.407-1.385-.024-.113.1-.18.214-.209a.774.774,0,0,0,.3-.106c.983-.849,1.589-.75,2.625.031a5.935,5.935,0,0,1,1.793,2.546A14.5,14.5,0,0,1,923.708,426.979Z" transform="translate(-773.095 -382.135)"/><path class="a" d="M870.152,389.594a7.119,7.119,0,0,1-.311,3.008,2.67,2.67,0,0,1-1.967,1.713,12.615,12.615,0,0,1-5.305.048,2.856,2.856,0,0,1-2.359-2.6,14.349,14.349,0,0,1-.01-4.513,2.8,2.8,0,0,1,2.3-2.518,11.367,11.367,0,0,1,5.248,0,3.045,3.045,0,0,1,2.394,3.008C870.186,388.355,870.152,388.976,870.152,389.594Z" transform="translate(-775.761 -384.314)"/><path d="M858.406,439.625c.022-.054.031-.151.117-.094.063.042.027.12-.019.175Z" transform="translate(-775.854 -381.126)"/></svg>